<?xml version="1.0" encoding="UTF-8" standalone="no"?><svg xmlns="http://www.w3.org/2000/svg" xmlns:xlink="http://www.w3.org/1999/xlink" clip-rule="evenodd" stroke-miterlimit="10" viewBox="0 0 362 209"><desc>SVG generated by Keynote</desc><defs></defs><g transform="matrix(1.00, 0.00, -0.00, -1.00, 0.0, 209.0)"><text xml:space="preserve" font-family="ZapfDingbatsITC,Zapf Dingbats" font-size="18.4" fill="#919191" transform="matrix(1.00, 0.00, -0.00, -1.00, 0.0, 188.2)">❖</text><text xml:space="preserve" font-family="Palatino-Roman,Palatino" font-size="30.6" fill="#404040" transform="matrix(1.00, 0.00, -0.00, -1.00, 31.4, 183.5)">L</text><text xml:space="preserve" font-family="Palatino-Roman,Palatino" font-size="30.6" fill="#404040" transform="matrix(1.00, 0.00, -0.00, -1.00, 50.1, 183.5)">C</text><text xml:space="preserve" font-family="Palatino-Roman,Palatino" font-size="30.6" fill="#404040" transform="matrix(1.00, 0.00, -0.00, -1.00, 71.8, 183.5)"> </text><text xml:space="preserve" font-family="Palatino-Roman,Palatino" font-size="30.6" fill="#404040" transform="matrix(1.00, 0.00, -0.00, -1.00, 79.5, 183.5)">N</text><text xml:space="preserve" font-family="Palatino-Roman,Palatino" font-size="30.6" fill="#404040" transform="matrix(1.00, 0.00, -0.00, -1.00, 104.9, 183.5)">a</text><text xml:space="preserve" font-family="Palatino-Roman,Palatino" font-size="30.6" fill="#404040" transform="matrix(1.00, 0.00, -0.00, -1.00, 120.2, 183.5)">m</text><text xml:space="preserve" font-family="Palatino-Roman,Palatino" font-size="30.6" fill="#404040" transform="matrix(1.00, 0.00, -0.00, -1.00, 147.2, 183.5)">e</text><text xml:space="preserve" font-family="Palatino-Roman,Palatino" font-size="30.6" fill="#404040" transform="matrix(1.00, 0.00, -0.00, -1.00, 161.9, 183.5)"> </text><text xml:space="preserve" font-family="Palatino-Roman,Palatino" font-size="30.6" fill="#404040" transform="matrix(1.00, 0.00, -0.00, -1.00, 168.4, 183.5)">A</text><text xml:space="preserve" font-family="Palatino-Roman,Palatino" font-size="30.6" fill="#404040" transform="matrix(1.00, 0.00, -0.00, -1.00, 192.2, 183.5)">u</text><text xml:space="preserve" font-family="Palatino-Roman,Palatino" font-size="30.6" fill="#404040" transform="matrix(1.00, 0.00, -0.00, -1.00, 210.7, 183.5)">t</text><text xml:space="preserve" font-family="Palatino-Roman,Palatino" font-size="30.6" fill="#404040" transform="matrix(1.00, 0.00, -0.00, -1.00, 220.6, 183.5)">h</text><text xml:space="preserve" font-family="Palatino-Roman,Palatino" font-size="30.6" fill="#404040" transform="matrix(1.00, 0.00, -0.00, -1.00, 238.5, 183.5)">o</text><text xml:space="preserve" font-family="Palatino-Roman,Palatino" font-size="30.6" fill="#404040" transform="matrix(1.00, 0.00, -0.00, -1.00, 255.2, 183.5)">r</text><text xml:space="preserve" font-family="Palatino-Roman,Palatino" font-size="30.6" fill="#404040" transform="matrix(1.00, 0.00, -0.00, -1.00, 267.2, 183.5)">i</text><text xml:space="preserve" font-family="Palatino-Roman,Palatino" font-size="30.6" fill="#404040" transform="matrix(1.00, 0.00, -0.00, -1.00, 276.1, 183.5)">t</text><text xml:space="preserve" font-family="Palatino-Roman,Palatino" font-size="30.6" fill="#404040" transform="matrix(1.00, 0.00, -0.00, -1.00, 286.1, 183.5)">y</text><text xml:space="preserve" font-family="Palatino-Roman,Palatino" font-size="30.6" fill="#404040" transform="matrix(1.00, 0.00, -0.00, -1.00, 303.2, 183.5)"> </text><text xml:space="preserve" font-family="Palatino-Roman,Palatino" font-size="30.6" fill="#404040" transform="matrix(1.00, 0.00, -0.00, -1.00, 310.8, 183.5)">F</text><text xml:space="preserve" font-family="Palatino-Roman,Palatino" font-size="30.6" fill="#404040" transform="matrix(1.00, 0.00, -0.00, -1.00, 327.8, 183.5)">i</text><text xml:space="preserve" font-family="Palatino-Roman,Palatino" font-size="30.6" fill="#404040" transform="matrix(1.00, 0.00, -0.00, -1.00, 336.7, 183.5)">l</text><text xml:space="preserve" font-family="Palatino-Roman,Palatino" font-size="30.6" fill="#404040" transform="matrix(1.00, 0.00, -0.00, -1.00, 345.6, 183.5)">e</text><text xml:space="preserve" font-family="ZapfDingbatsITC,Zapf Dingbats" font-size="18.4" fill="#919191" transform="matrix(1.00, 0.00, -0.00, -1.00, 37.0, 127.8)">❖</text><text xml:space="preserve" font-family="Palatino-Roman,Palatino" font-size="30.6" fill="#404040" transform="matrix(1.00, 0.00, -0.00, -1.00, 68.5, 123.1)">P</text><text xml:space="preserve" font-family="Palatino-Roman,Palatino" font-size="30.6" fill="#404040" transform="matrix(1.00, 0.00, -0.00, -1.00, 86.9, 123.1)">e</text><text xml:space="preserve" font-family="Palatino-Roman,Palatino" font-size="30.6" fill="#404040" transform="matrix(1.00, 0.00, -0.00, -1.00, 101.6, 123.1)">r</text><text xml:space="preserve" font-family="Palatino-Roman,Palatino" font-size="30.6" fill="#404040" transform="matrix(1.00, 0.00, -0.00, -1.00, 113.7, 123.1)">s</text><text xml:space="preserve" font-family="Palatino-Roman,Palatino" font-size="30.6" fill="#404040" transform="matrix(1.00, 0.00, -0.00, -1.00, 126.6, 123.1)">o</text><text xml:space="preserve" font-family="Palatino-Roman,Palatino" font-size="30.6" fill="#404040" transform="matrix(1.00, 0.00, -0.00, -1.00, 143.3, 123.1)">n</text><text xml:space="preserve" font-family="Palatino-Roman,Palatino" font-size="30.6" fill="#404040" transform="matrix(1.00, 0.00, -0.00, -1.00, 161.2, 123.1)">a</text><text xml:space="preserve" font-family="Palatino-Roman,Palatino" font-size="30.6" fill="#404040" transform="matrix(1.00, 0.00, -0.00, -1.00, 176.5, 123.1)">l</text><text xml:space="preserve" font-family="ZapfDingbatsITC,Zapf Dingbats" font-size="18.4" fill="#919191" transform="matrix(1.00, 0.00, -0.00, -1.00, 37.0, 67.4)">❖</text><text xml:space="preserve" font-family="Palatino-Roman,Palatino" font-size="30.6" fill="#404040" transform="matrix(1.00, 0.00, -0.00, -1.00, 68.5, 62.7)">C</text><text xml:space="preserve" font-family="Palatino-Roman,Palatino" font-size="30.6" fill="#404040" transform="matrix(1.00, 0.00, -0.00, -1.00, 90.1, 62.7)">o</text><text xml:space="preserve" font-family="Palatino-Roman,Palatino" font-size="30.6" fill="#404040" transform="matrix(1.00, 0.00, -0.00, -1.00, 106.8, 62.7)">r</text><text xml:space="preserve" font-family="Palatino-Roman,Palatino" font-size="30.6" fill="#404040" transform="matrix(1.00, 0.00, -0.00, -1.00, 118.9, 62.7)">p</text><text xml:space="preserve" font-family="Palatino-Roman,Palatino" font-size="30.6" fill="#404040" transform="matrix(1.00, 0.00, -0.00, -1.00, 137.3, 62.7)">o</text><text xml:space="preserve" font-family="Palatino-Roman,Palatino" font-size="30.6" fill="#404040" transform="matrix(1.00, 0.00, -0.00, -1.00, 154.0, 62.7)">r</text><text xml:space="preserve" font-family="Palatino-Roman,Palatino" font-size="30.6" fill="#404040" transform="matrix(1.00, 0.00, -0.00, -1.00, 166.1, 62.7)">a</text><text xml:space="preserve" font-family="Palatino-Roman,Palatino" font-size="30.6" fill="#404040" transform="matrix(1.00, 0.00, -0.00, -1.00, 181.4, 62.7)">t</text><text xml:space="preserve" font-family="Palatino-Roman,Palatino" font-size="30.6" fill="#404040" transform="matrix(1.00, 0.00, -0.00, -1.00, 191.4, 62.7)">e</text><text xml:space="preserve" font-family="Palatino-Roman,Palatino" font-size="30.6" fill="#404040" transform="matrix(1.00, 0.00, -0.00, -1.00, 206.1, 62.7)"> </text><text xml:space="preserve" font-family="Palatino-Roman,Palatino" font-size="30.6" fill="#404040" transform="matrix(1.00, 0.00, -0.00, -1.00, 213.7, 62.7)">B</text><text xml:space="preserve" font-family="Palatino-Roman,Palatino" font-size="30.6" fill="#404040" transform="matrix(1.00, 0.00, -0.00, -1.00, 232.4, 62.7)">o</text><text xml:space="preserve" font-family="Palatino-Roman,Palatino" font-size="30.6" fill="#404040" transform="matrix(1.00, 0.00, -0.00, -1.00, 249.1, 62.7)">d</text><text xml:space="preserve" font-family="Palatino-Roman,Palatino" font-size="30.6" fill="#404040" transform="matrix(1.00, 0.00, -0.00, -1.00, 267.8, 62.7)">i</text><text xml:space="preserve" font-family="Palatino-Roman,Palatino" font-size="30.6" fill="#404040" transform="matrix(1.00, 0.00, -0.00, -1.00, 276.7, 62.7)">e</text><text xml:space="preserve" font-family="Palatino-Roman,Palatino" font-size="30.6" fill="#404040" transform="matrix(1.00, 0.00, -0.00, -1.00, 291.3, 62.7)">s</text><text xml:space="preserve" font-family="ZapfDingbatsITC,Zapf Dingbats" font-size="18.4" fill="#919191" transform="matrix(1.00, 0.00, -0.00, -1.00, 37.0, 7.0)">❖</text><text xml:space="preserve" font-family="Palatino-Roman,Palatino" font-size="30.6" fill="#404040" transform="matrix(1.00, 0.00, -0.00, -1.00, 68.5, 2.3)">T</text><text xml:space="preserve" font-family="Palatino-Roman,Palatino" font-size="30.6" fill="#404040" transform="matrix(1.00, 0.00, -0.00, -1.00, 85.5, 2.3)">i</text><text xml:space="preserve" font-family="Palatino-Roman,Palatino" font-size="30.6" fill="#404040" transform="matrix(1.00, 0.00, -0.00, -1.00, 94.4, 2.3)">t</text><text xml:space="preserve" font-family="Palatino-Roman,Palatino" font-size="30.6" fill="#404040" transform="matrix(1.00, 0.00, -0.00, -1.00, 104.4, 2.3)">l</text><text xml:space="preserve" font-family="Palatino-Roman,Palatino" font-size="30.6" fill="#404040" transform="matrix(1.00, 0.00, -0.00, -1.00, 113.3, 2.3)">e</text><text xml:space="preserve" font-family="Palatino-Roman,Palatino" font-size="30.6" fill="#404040" transform="matrix(1.00, 0.00, -0.00, -1.00, 128.0, 2.3)">s</text></g></svg>