<?xml version="1.0" encoding="UTF-8" standalone="no"?><svg xmlns="http://www.w3.org/2000/svg" xmlns:xlink="http://www.w3.org/1999/xlink" clip-rule="evenodd" stroke-miterlimit="10" viewBox="0 0 421 244"><desc>SVG generated by Keynote</desc><defs></defs><g transform="matrix(1.00, 0.00, -0.00, -1.00, 0.0, 244.0)"><text xml:space="preserve" font-family="ZapfDingbatsITC,Zapf Dingbats" font-size="21.4" fill="#919191" transform="matrix(1.00, 0.00, -0.00, -1.00, 0.0, 220.8)">❖</text><text xml:space="preserve" font-family="Palatino-Roman,Palatino" font-size="35.6" fill="#404040" transform="matrix(1.00, 0.00, -0.00, -1.00, 36.6, 214.9)">L</text><text xml:space="preserve" font-family="Palatino-Roman,Palatino" font-size="35.6" fill="#404040" transform="matrix(1.00, 0.00, -0.00, -1.00, 58.4, 214.9)">C</text><text xml:space="preserve" font-family="Palatino-Roman,Palatino" font-size="35.6" fill="#404040" transform="matrix(1.00, 0.00, -0.00, -1.00, 83.7, 214.9)"> </text><text xml:space="preserve" font-family="Palatino-Roman,Palatino" font-size="35.6" fill="#404040" transform="matrix(1.00, 0.00, -0.00, -1.00, 92.6, 214.9)">N</text><text xml:space="preserve" font-family="Palatino-Roman,Palatino" font-size="35.6" fill="#404040" transform="matrix(1.00, 0.00, -0.00, -1.00, 122.2, 214.9)">a</text><text xml:space="preserve" font-family="Palatino-Roman,Palatino" font-size="35.6" fill="#404040" transform="matrix(1.00, 0.00, -0.00, -1.00, 140.0, 214.9)">m</text><text xml:space="preserve" font-family="Palatino-Roman,Palatino" font-size="35.6" fill="#404040" transform="matrix(1.00, 0.00, -0.00, -1.00, 171.5, 214.9)">e</text><text xml:space="preserve" font-family="Palatino-Roman,Palatino" font-size="35.6" fill="#404040" transform="matrix(1.00, 0.00, -0.00, -1.00, 188.5, 214.9)"> </text><text xml:space="preserve" font-family="Palatino-Roman,Palatino" font-size="35.6" fill="#404040" transform="matrix(1.00, 0.00, -0.00, -1.00, 196.1, 214.9)">A</text><text xml:space="preserve" font-family="Palatino-Roman,Palatino" font-size="35.6" fill="#404040" transform="matrix(1.00, 0.00, -0.00, -1.00, 223.9, 214.9)">u</text><text xml:space="preserve" font-family="Palatino-Roman,Palatino" font-size="35.6" fill="#404040" transform="matrix(1.00, 0.00, -0.00, -1.00, 245.4, 214.9)">t</text><text xml:space="preserve" font-family="Palatino-Roman,Palatino" font-size="35.6" fill="#404040" transform="matrix(1.00, 0.00, -0.00, -1.00, 257.0, 214.9)">h</text><text xml:space="preserve" font-family="Palatino-Roman,Palatino" font-size="35.6" fill="#404040" transform="matrix(1.00, 0.00, -0.00, -1.00, 277.7, 214.9)">o</text><text xml:space="preserve" font-family="Palatino-Roman,Palatino" font-size="35.6" fill="#404040" transform="matrix(1.00, 0.00, -0.00, -1.00, 297.2, 214.9)">r</text><text xml:space="preserve" font-family="Palatino-Roman,Palatino" font-size="35.6" fill="#404040" transform="matrix(1.00, 0.00, -0.00, -1.00, 311.3, 214.9)">i</text><text xml:space="preserve" font-family="Palatino-Roman,Palatino" font-size="35.6" fill="#404040" transform="matrix(1.00, 0.00, -0.00, -1.00, 321.6, 214.9)">t</text><text xml:space="preserve" font-family="Palatino-Roman,Palatino" font-size="35.6" fill="#404040" transform="matrix(1.00, 0.00, -0.00, -1.00, 333.3, 214.9)">y</text><text xml:space="preserve" font-family="Palatino-Roman,Palatino" font-size="35.6" fill="#404040" transform="matrix(1.00, 0.00, -0.00, -1.00, 353.1, 214.9)"> </text><text xml:space="preserve" font-family="Palatino-Roman,Palatino" font-size="35.6" fill="#404040" transform="matrix(1.00, 0.00, -0.00, -1.00, 362.0, 214.9)">F</text><text xml:space="preserve" font-family="Palatino-Roman,Palatino" font-size="35.6" fill="#404040" transform="matrix(1.00, 0.00, -0.00, -1.00, 381.8, 214.9)">i</text><text xml:space="preserve" font-family="Palatino-Roman,Palatino" font-size="35.6" fill="#404040" transform="matrix(1.00, 0.00, -0.00, -1.00, 392.2, 214.9)">l</text><text xml:space="preserve" font-family="Palatino-Roman,Palatino" font-size="35.6" fill="#404040" transform="matrix(1.00, 0.00, -0.00, -1.00, 402.6, 214.9)">e</text><text xml:space="preserve" font-family="ZapfDingbatsITC,Zapf Dingbats" font-size="21.4" fill="#919191" transform="matrix(1.00, 0.00, -0.00, -1.00, 37.0, 150.0)">❖</text><text xml:space="preserve" font-family="Palatino-Roman,Palatino" font-size="35.6" fill="#404040" transform="matrix(1.00, 0.00, -0.00, -1.00, 73.6, 144.1)">P</text><text xml:space="preserve" font-family="Palatino-Roman,Palatino" font-size="35.6" fill="#404040" transform="matrix(1.00, 0.00, -0.00, -1.00, 95.2, 144.1)">e</text><text xml:space="preserve" font-family="Palatino-Roman,Palatino" font-size="35.6" fill="#404040" transform="matrix(1.00, 0.00, -0.00, -1.00, 112.2, 144.1)">r</text><text xml:space="preserve" font-family="Palatino-Roman,Palatino" font-size="35.6" fill="#404040" transform="matrix(1.00, 0.00, -0.00, -1.00, 126.3, 144.1)">s</text><text xml:space="preserve" font-family="Palatino-Roman,Palatino" font-size="35.6" fill="#404040" transform="matrix(1.00, 0.00, -0.00, -1.00, 141.4, 144.1)">o</text><text xml:space="preserve" font-family="Palatino-Roman,Palatino" font-size="35.6" fill="#404040" transform="matrix(1.00, 0.00, -0.00, -1.00, 160.9, 144.1)">n</text><text xml:space="preserve" font-family="Palatino-Roman,Palatino" font-size="35.6" fill="#404040" transform="matrix(1.00, 0.00, -0.00, -1.00, 181.6, 144.1)">a</text><text xml:space="preserve" font-family="Palatino-Roman,Palatino" font-size="35.6" fill="#404040" transform="matrix(1.00, 0.00, -0.00, -1.00, 199.4, 144.1)">l</text><text xml:space="preserve" font-family="ZapfDingbatsITC,Zapf Dingbats" font-size="21.4" fill="#919191" transform="matrix(1.00, 0.00, -0.00, -1.00, 37.0, 79.3)">❖</text><text xml:space="preserve" font-family="Palatino-Roman,Palatino" font-size="35.6" fill="#404040" transform="matrix(1.00, 0.00, -0.00, -1.00, 73.6, 73.4)">C</text><text xml:space="preserve" font-family="Palatino-Roman,Palatino" font-size="35.6" fill="#404040" transform="matrix(1.00, 0.00, -0.00, -1.00, 98.9, 73.4)">o</text><text xml:space="preserve" font-family="Palatino-Roman,Palatino" font-size="35.6" fill="#404040" transform="matrix(1.00, 0.00, -0.00, -1.00, 118.4, 73.4)">r</text><text xml:space="preserve" font-family="Palatino-Roman,Palatino" font-size="35.6" fill="#404040" transform="matrix(1.00, 0.00, -0.00, -1.00, 132.4, 73.4)">p</text><text xml:space="preserve" font-family="Palatino-Roman,Palatino" font-size="35.6" fill="#404040" transform="matrix(1.00, 0.00, -0.00, -1.00, 153.9, 73.4)">o</text><text xml:space="preserve" font-family="Palatino-Roman,Palatino" font-size="35.6" fill="#404040" transform="matrix(1.00, 0.00, -0.00, -1.00, 173.3, 73.4)">r</text><text xml:space="preserve" font-family="Palatino-Roman,Palatino" font-size="35.6" fill="#404040" transform="matrix(1.00, 0.00, -0.00, -1.00, 187.4, 73.4)">a</text><text xml:space="preserve" font-family="Palatino-Roman,Palatino" font-size="35.6" fill="#404040" transform="matrix(1.00, 0.00, -0.00, -1.00, 205.2, 73.4)">t</text><text xml:space="preserve" font-family="Palatino-Roman,Palatino" font-size="35.6" fill="#404040" transform="matrix(1.00, 0.00, -0.00, -1.00, 216.8, 73.4)">e</text><text xml:space="preserve" font-family="Palatino-Roman,Palatino" font-size="35.6" fill="#404040" transform="matrix(1.00, 0.00, -0.00, -1.00, 233.9, 73.4)"> </text><text xml:space="preserve" font-family="Palatino-Roman,Palatino" font-size="35.6" fill="#404040" transform="matrix(1.00, 0.00, -0.00, -1.00, 242.8, 73.4)">B</text><text xml:space="preserve" font-family="Palatino-Roman,Palatino" font-size="35.6" fill="#404040" transform="matrix(1.00, 0.00, -0.00, -1.00, 264.6, 73.4)">o</text><text xml:space="preserve" font-family="Palatino-Roman,Palatino" font-size="35.6" fill="#404040" transform="matrix(1.00, 0.00, -0.00, -1.00, 284.0, 73.4)">d</text><text xml:space="preserve" font-family="Palatino-Roman,Palatino" font-size="35.6" fill="#404040" transform="matrix(1.00, 0.00, -0.00, -1.00, 305.8, 73.4)">i</text><text xml:space="preserve" font-family="Palatino-Roman,Palatino" font-size="35.6" fill="#404040" transform="matrix(1.00, 0.00, -0.00, -1.00, 316.2, 73.4)">e</text><text xml:space="preserve" font-family="Palatino-Roman,Palatino" font-size="35.6" fill="#404040" transform="matrix(1.00, 0.00, -0.00, -1.00, 333.2, 73.4)">s</text><text xml:space="preserve" font-family="ZapfDingbatsITC,Zapf Dingbats" font-size="21.4" fill="#919191" transform="matrix(1.00, 0.00, -0.00, -1.00, 37.0, 8.5)">❖</text><text xml:space="preserve" font-family="Palatino-Roman,Palatino" font-size="35.6" fill="#404040" transform="matrix(1.00, 0.00, -0.00, -1.00, 73.6, 2.6)">T</text><text xml:space="preserve" font-family="Palatino-Roman,Palatino" font-size="35.6" fill="#404040" transform="matrix(1.00, 0.00, -0.00, -1.00, 93.5, 2.6)">i</text><text xml:space="preserve" font-family="Palatino-Roman,Palatino" font-size="35.6" fill="#404040" transform="matrix(1.00, 0.00, -0.00, -1.00, 103.9, 2.6)">t</text><text xml:space="preserve" font-family="Palatino-Roman,Palatino" font-size="35.6" fill="#404040" transform="matrix(1.00, 0.00, -0.00, -1.00, 115.5, 2.6)">l</text><text xml:space="preserve" font-family="Palatino-Roman,Palatino" font-size="35.6" fill="#404040" transform="matrix(1.00, 0.00, -0.00, -1.00, 125.9, 2.6)">e</text><text xml:space="preserve" font-family="Palatino-Roman,Palatino" font-size="35.6" fill="#404040" transform="matrix(1.00, 0.00, -0.00, -1.00, 143.0, 2.6)">s</text></g></svg>