<?xml version="1.0" encoding="UTF-8" standalone="no"?><svg xmlns="http://www.w3.org/2000/svg" xmlns:xlink="http://www.w3.org/1999/xlink" clip-rule="evenodd" stroke-miterlimit="10" viewBox="0 0 861 62"><desc>SVG generated by Keynote</desc><defs></defs><g transform="matrix(1.00, 0.00, -0.00, -1.00, 0.0, 62.0)"><text xml:space="preserve" font-family="ZapfDingbatsITC,Zapf Dingbats" font-size="18.4" fill="#919191" transform="matrix(1.00, 0.00, -0.00, -1.00, 0.0, 14.4)">â–</text><text xml:space="preserve" font-family="Palatino-Roman,Palatino" font-size="30.6" fill="#404040" transform="matrix(1.00, 0.00, -0.00, -1.00, 31.4, 9.7)">A</text><text xml:space="preserve" font-family="Palatino-Roman,Palatino" font-size="30.6" fill="#404040" transform="matrix(1.00, 0.00, -0.00, -1.00, 55.2, 9.7)">u</text><text xml:space="preserve" font-family="Palatino-Roman,Palatino" font-size="30.6" fill="#404040" transform="matrix(1.00, 0.00, -0.00, -1.00, 73.7, 9.7)">t</text><text xml:space="preserve" font-family="Palatino-Roman,Palatino" font-size="30.6" fill="#404040" transform="matrix(1.00, 0.00, -0.00, -1.00, 83.7, 9.7)">h</text><text xml:space="preserve" font-family="Palatino-Roman,Palatino" font-size="30.6" fill="#404040" transform="matrix(1.00, 0.00, -0.00, -1.00, 101.5, 9.7)">o</text><text xml:space="preserve" font-family="Palatino-Roman,Palatino" font-size="30.6" fill="#404040" transform="matrix(1.00, 0.00, -0.00, -1.00, 118.2, 9.7)">r</text><text xml:space="preserve" font-family="Palatino-Roman,Palatino" font-size="30.6" fill="#404040" transform="matrix(1.00, 0.00, -0.00, -1.00, 130.3, 9.7)">i</text><text xml:space="preserve" font-family="Palatino-Roman,Palatino" font-size="30.6" fill="#404040" transform="matrix(1.00, 0.00, -0.00, -1.00, 139.2, 9.7)">t</text><text xml:space="preserve" font-family="Palatino-Roman,Palatino" font-size="30.6" fill="#404040" transform="matrix(1.00, 0.00, -0.00, -1.00, 149.2, 9.7)">i</text><text xml:space="preserve" font-family="Palatino-Roman,Palatino" font-size="30.6" fill="#404040" transform="matrix(1.00, 0.00, -0.00, -1.00, 158.1, 9.7)">e</text><text xml:space="preserve" font-family="Palatino-Roman,Palatino" font-size="30.6" fill="#404040" transform="matrix(1.00, 0.00, -0.00, -1.00, 172.7, 9.7)">s</text><text xml:space="preserve" font-family="Palatino-Roman,Palatino" font-size="30.6" fill="#404040" transform="matrix(1.00, 0.00, -0.00, -1.00, 185.7, 9.7)"> </text><text xml:space="preserve" font-family="Palatino-Roman,Palatino" font-size="30.6" fill="#404040" transform="matrix(1.00, 0.00, -0.00, -1.00, 193.4, 9.7)">@</text><text xml:space="preserve" font-family="Palatino-Roman,Palatino" font-size="30.6" fill="#404040" transform="matrix(1.00, 0.00, -0.00, -1.00, 216.2, 9.7)"> </text><text xml:space="preserve" font-family="Palatino-Roman,Palatino" font-size="30.6" fill="#404040" transform="matrix(1.00, 0.00, -0.00, -1.00, 223.9, 9.7)">L</text><text xml:space="preserve" font-family="Palatino-Roman,Palatino" font-size="30.6" fill="#404040" transform="matrix(1.00, 0.00, -0.00, -1.00, 242.6, 9.7)">i</text><text xml:space="preserve" font-family="Palatino-Roman,Palatino" font-size="30.6" fill="#404040" transform="matrix(1.00, 0.00, -0.00, -1.00, 251.5, 9.7)">b</text><text xml:space="preserve" font-family="Palatino-Roman,Palatino" font-size="30.6" fill="#404040" transform="matrix(1.00, 0.00, -0.00, -1.00, 268.4, 9.7)">r</text><text xml:space="preserve" font-family="Palatino-Roman,Palatino" font-size="30.6" fill="#404040" transform="matrix(1.00, 0.00, -0.00, -1.00, 280.5, 9.7)">a</text><text xml:space="preserve" font-family="Palatino-Roman,Palatino" font-size="30.6" fill="#404040" transform="matrix(1.00, 0.00, -0.00, -1.00, 295.8, 9.7)">r</text><text xml:space="preserve" font-family="Palatino-Roman,Palatino" font-size="30.6" fill="#404040" transform="matrix(1.00, 0.00, -0.00, -1.00, 307.9, 9.7)">y</text><text xml:space="preserve" font-family="Palatino-Roman,Palatino" font-size="30.6" fill="#404040" transform="matrix(1.00, 0.00, -0.00, -1.00, 324.9, 9.7)"> </text><text xml:space="preserve" font-family="Palatino-Roman,Palatino" font-size="30.6" fill="#404040" transform="matrix(1.00, 0.00, -0.00, -1.00, 332.5, 9.7)">o</text><text xml:space="preserve" font-family="Palatino-Roman,Palatino" font-size="30.6" fill="#404040" transform="matrix(1.00, 0.00, -0.00, -1.00, 349.2, 9.7)">f</text><text xml:space="preserve" font-family="Palatino-Roman,Palatino" font-size="30.6" fill="#404040" transform="matrix(1.00, 0.00, -0.00, -1.00, 359.4, 9.7)"> </text><text xml:space="preserve" font-family="Palatino-Roman,Palatino" font-size="30.6" fill="#404040" transform="matrix(1.00, 0.00, -0.00, -1.00, 367.1, 9.7)">C</text><text xml:space="preserve" font-family="Palatino-Roman,Palatino" font-size="30.6" fill="#404040" transform="matrix(1.00, 0.00, -0.00, -1.00, 388.8, 9.7)">o</text><text xml:space="preserve" font-family="Palatino-Roman,Palatino" font-size="30.6" fill="#404040" transform="matrix(1.00, 0.00, -0.00, -1.00, 405.5, 9.7)">n</text><text xml:space="preserve" font-family="Palatino-Roman,Palatino" font-size="30.6" fill="#404040" transform="matrix(1.00, 0.00, -0.00, -1.00, 423.3, 9.7)">g</text><text xml:space="preserve" font-family="Palatino-Roman,Palatino" font-size="30.6" fill="#404040" transform="matrix(1.00, 0.00, -0.00, -1.00, 440.3, 9.7)">r</text><text xml:space="preserve" font-family="Palatino-Roman,Palatino" font-size="30.6" fill="#404040" transform="matrix(1.00, 0.00, -0.00, -1.00, 451.9, 9.7)">e</text><text xml:space="preserve" font-family="Palatino-Roman,Palatino" font-size="30.6" fill="#404040" transform="matrix(1.00, 0.00, -0.00, -1.00, 466.5, 9.7)">s</text><text xml:space="preserve" font-family="Palatino-Roman,Palatino" font-size="30.6" fill="#404040" transform="matrix(1.00, 0.00, -0.00, -1.00, 479.5, 9.7)">s</text><text xml:space="preserve" font-family="Palatino-Roman,Palatino" font-size="30.6" fill="#404040" transform="matrix(1.00, 0.00, -0.00, -1.00, 492.4, 9.7)">:</text><text xml:space="preserve" font-family="Palatino-Roman,Palatino" font-size="30.6" fill="#404040" transform="matrix(1.00, 0.00, -0.00, -1.00, 500.1, 9.7)"> </text><text xml:space="preserve" font-family="Palatino-Roman,Palatino" font-size="30.6" fill="#404040" transform="matrix(1.00, 0.00, -0.00, -1.00, 507.8, 9.7)">h</text><text xml:space="preserve" font-family="Palatino-Roman,Palatino" font-size="30.6" fill="#404040" transform="matrix(1.00, 0.00, -0.00, -1.00, 525.6, 9.7)">t</text><text xml:space="preserve" font-family="Palatino-Roman,Palatino" font-size="30.6" fill="#404040" transform="matrix(1.00, 0.00, -0.00, -1.00, 535.5, 9.7)">t</text><text xml:space="preserve" font-family="Palatino-Roman,Palatino" font-size="30.6" fill="#404040" transform="matrix(1.00, 0.00, -0.00, -1.00, 545.5, 9.7)">p</text><text xml:space="preserve" font-family="Palatino-Roman,Palatino" font-size="30.6" fill="#404040" transform="matrix(1.00, 0.00, -0.00, -1.00, 563.9, 9.7)">:</text><text xml:space="preserve" font-family="Palatino-Roman,Palatino" font-size="30.6" fill="#404040" transform="matrix(1.00, 0.00, -0.00, -1.00, 571.6, 9.7)">/</text><text xml:space="preserve" font-family="Palatino-Roman,Palatino" font-size="30.6" fill="#404040" transform="matrix(1.00, 0.00, -0.00, -1.00, 590.1, 9.7)">/</text><text xml:space="preserve" font-family="Palatino-Roman,Palatino" font-size="30.6" fill="#404040" transform="matrix(1.00, 0.00, -0.00, -1.00, 608.7, 9.7)">a</text><text xml:space="preserve" font-family="Palatino-Roman,Palatino" font-size="30.6" fill="#404040" transform="matrix(1.00, 0.00, -0.00, -1.00, 624.0, 9.7)">u</text><text xml:space="preserve" font-family="Palatino-Roman,Palatino" font-size="30.6" fill="#404040" transform="matrix(1.00, 0.00, -0.00, -1.00, 642.4, 9.7)">t</text><text xml:space="preserve" font-family="Palatino-Roman,Palatino" font-size="30.6" fill="#404040" transform="matrix(1.00, 0.00, -0.00, -1.00, 652.4, 9.7)">h</text><text xml:space="preserve" font-family="Palatino-Roman,Palatino" font-size="30.6" fill="#404040" transform="matrix(1.00, 0.00, -0.00, -1.00, 670.2, 9.7)">o</text><text xml:space="preserve" font-family="Palatino-Roman,Palatino" font-size="30.6" fill="#404040" transform="matrix(1.00, 0.00, -0.00, -1.00, 686.9, 9.7)">r</text><text xml:space="preserve" font-family="Palatino-Roman,Palatino" font-size="30.6" fill="#404040" transform="matrix(1.00, 0.00, -0.00, -1.00, 699.0, 9.7)">i</text><text xml:space="preserve" font-family="Palatino-Roman,Palatino" font-size="30.6" fill="#404040" transform="matrix(1.00, 0.00, -0.00, -1.00, 707.9, 9.7)">t</text><text xml:space="preserve" font-family="Palatino-Roman,Palatino" font-size="30.6" fill="#404040" transform="matrix(1.00, 0.00, -0.00, -1.00, 717.9, 9.7)">i</text><text xml:space="preserve" font-family="Palatino-Roman,Palatino" font-size="30.6" fill="#404040" transform="matrix(1.00, 0.00, -0.00, -1.00, 726.8, 9.7)">e</text><text xml:space="preserve" font-family="Palatino-Roman,Palatino" font-size="30.6" fill="#404040" transform="matrix(1.00, 0.00, -0.00, -1.00, 741.5, 9.7)">s</text><text xml:space="preserve" font-family="Palatino-Roman,Palatino" font-size="30.6" fill="#404040" transform="matrix(1.00, 0.00, -0.00, -1.00, 754.4, 9.7)">.</text><text xml:space="preserve" font-family="Palatino-Roman,Palatino" font-size="30.6" fill="#404040" transform="matrix(1.00, 0.00, -0.00, -1.00, 762.1, 9.7)">l</text><text xml:space="preserve" font-family="Palatino-Roman,Palatino" font-size="30.6" fill="#404040" transform="matrix(1.00, 0.00, -0.00, -1.00, 771.0, 9.7)">o</text><text xml:space="preserve" font-family="Palatino-Roman,Palatino" font-size="30.6" fill="#404040" transform="matrix(1.00, 0.00, -0.00, -1.00, 787.7, 9.7)">c</text><text xml:space="preserve" font-family="Palatino-Roman,Palatino" font-size="30.6" fill="#404040" transform="matrix(1.00, 0.00, -0.00, -1.00, 801.3, 9.7)">.</text><text xml:space="preserve" font-family="Palatino-Roman,Palatino" font-size="30.6" fill="#404040" transform="matrix(1.00, 0.00, -0.00, -1.00, 808.9, 9.7)">g</text><text xml:space="preserve" font-family="Palatino-Roman,Palatino" font-size="30.6" fill="#404040" transform="matrix(1.00, 0.00, -0.00, -1.00, 825.9, 9.7)">o</text><text xml:space="preserve" font-family="Palatino-Roman,Palatino" font-size="30.6" fill="#404040" transform="matrix(1.00, 0.00, -0.00, -1.00, 842.6, 9.7)">v</text><g><clipPath id="clip0x7fd3f29d9cf0"><path d="M 506.8 4.7 L 859.9 4.7 L 859.9 8.5 L 506.8 8.5 Z M 506.8 4.7 "></path></clipPath><g clip-path="url(#clip0x7fd3f29d9cf0)"><path d="M 511.8 466.4 L 863.9 466.4 " fill="none" stroke="#404040" stroke-width="1.79" transform="matrix(1.00, 0.00, 0.00, -1.00, -4.0, 473.0)"></path></g></g></g></svg>