<?xml version="1.0" encoding="UTF-8" standalone="no"?><svg xmlns="http://www.w3.org/2000/svg" xmlns:xlink="http://www.w3.org/1999/xlink" clip-rule="evenodd" stroke-miterlimit="10" viewBox="0 0 772 71"><desc>SVG generated by Keynote</desc><defs></defs><g transform="matrix(1.00, 0.00, -0.00, -1.00, 0.0, 71.0)"><text xml:space="preserve" font-family="BodoniSvtyTwoITCTT-Book,Bodoni SvtyTwo ITC TT" font-size="70.0" fill="#D93D2A" transform="matrix(1.00, 0.00, -0.00, -1.00, -0.6, 19.6)">L</text><text xml:space="preserve" font-family="BodoniSvtyTwoITCTT-Book,Bodoni SvtyTwo ITC TT" font-size="70.0" fill="#D93D2A" transform="matrix(1.00, 0.00, -0.00, -1.00, 38.9, 19.6)">i</text><text xml:space="preserve" font-family="BodoniSvtyTwoITCTT-Book,Bodoni SvtyTwo ITC TT" font-size="70.0" fill="#D93D2A" transform="matrix(1.00, 0.00, -0.00, -1.00, 56.4, 19.6)">b</text><text xml:space="preserve" font-family="BodoniSvtyTwoITCTT-Book,Bodoni SvtyTwo ITC TT" font-size="70.0" fill="#D93D2A" transform="matrix(1.00, 0.00, -0.00, -1.00, 90.1, 19.6)">r</text><text xml:space="preserve" font-family="BodoniSvtyTwoITCTT-Book,Bodoni SvtyTwo ITC TT" font-size="70.0" fill="#D93D2A" transform="matrix(1.00, 0.00, -0.00, -1.00, 113.8, 19.6)">a</text><text xml:space="preserve" font-family="BodoniSvtyTwoITCTT-Book,Bodoni SvtyTwo ITC TT" font-size="70.0" fill="#D93D2A" transform="matrix(1.00, 0.00, -0.00, -1.00, 141.6, 19.6)">r</text><text xml:space="preserve" font-family="BodoniSvtyTwoITCTT-Book,Bodoni SvtyTwo ITC TT" font-size="70.0" fill="#D93D2A" transform="matrix(1.00, 0.00, -0.00, -1.00, 165.2, 19.6)">y</text><text xml:space="preserve" font-family="BodoniSvtyTwoITCTT-Book,Bodoni SvtyTwo ITC TT" font-size="70.0" fill="#D93D2A" transform="matrix(1.00, 0.00, -0.00, -1.00, 193.3, 19.6)"> </text><text xml:space="preserve" font-family="BodoniSvtyTwoITCTT-Book,Bodoni SvtyTwo ITC TT" font-size="70.0" fill="#D93D2A" transform="matrix(1.00, 0.00, -0.00, -1.00, 206.3, 19.6)">S</text><text xml:space="preserve" font-family="BodoniSvtyTwoITCTT-Book,Bodoni SvtyTwo ITC TT" font-size="70.0" fill="#D93D2A" transform="matrix(1.00, 0.00, -0.00, -1.00, 241.2, 19.6)">p</text><text xml:space="preserve" font-family="BodoniSvtyTwoITCTT-Book,Bodoni SvtyTwo ITC TT" font-size="70.0" fill="#D93D2A" transform="matrix(1.00, 0.00, -0.00, -1.00, 275.4, 19.6)">e</text><text xml:space="preserve" font-family="BodoniSvtyTwoITCTT-Book,Bodoni SvtyTwo ITC TT" font-size="70.0" fill="#D93D2A" transform="matrix(1.00, 0.00, -0.00, -1.00, 305.5, 19.6)">c</text><text xml:space="preserve" font-family="BodoniSvtyTwoITCTT-Book,Bodoni SvtyTwo ITC TT" font-size="70.0" fill="#D93D2A" transform="matrix(1.00, 0.00, -0.00, -1.00, 334.1, 19.6)">i</text><text xml:space="preserve" font-family="BodoniSvtyTwoITCTT-Book,Bodoni SvtyTwo ITC TT" font-size="70.0" fill="#D93D2A" transform="matrix(1.00, 0.00, -0.00, -1.00, 351.7, 19.6)">f</text><text xml:space="preserve" font-family="BodoniSvtyTwoITCTT-Book,Bodoni SvtyTwo ITC TT" font-size="70.0" fill="#D93D2A" transform="matrix(1.00, 0.00, -0.00, -1.00, 370.2, 19.6)">i</text><text xml:space="preserve" font-family="BodoniSvtyTwoITCTT-Book,Bodoni SvtyTwo ITC TT" font-size="70.0" fill="#D93D2A" transform="matrix(1.00, 0.00, -0.00, -1.00, 387.8, 19.6)">c</text><text xml:space="preserve" font-family="BodoniSvtyTwoITCTT-Book,Bodoni SvtyTwo ITC TT" font-size="70.0" fill="#D93D2A" transform="matrix(1.00, 0.00, -0.00, -1.00, 416.4, 19.6)"> </text><text xml:space="preserve" font-family="BodoniSvtyTwoITCTT-Book,Bodoni SvtyTwo ITC TT" font-size="70.0" fill="#D93D2A" transform="matrix(1.00, 0.00, -0.00, -1.00, 429.4, 19.6)">V</text><text xml:space="preserve" font-family="BodoniSvtyTwoITCTT-Book,Bodoni SvtyTwo ITC TT" font-size="70.0" fill="#D93D2A" transform="matrix(1.00, 0.00, -0.00, -1.00, 473.7, 19.6)">o</text><text xml:space="preserve" font-family="BodoniSvtyTwoITCTT-Book,Bodoni SvtyTwo ITC TT" font-size="70.0" fill="#D93D2A" transform="matrix(1.00, 0.00, -0.00, -1.00, 507.3, 19.6)">c</text><text xml:space="preserve" font-family="BodoniSvtyTwoITCTT-Book,Bodoni SvtyTwo ITC TT" font-size="70.0" fill="#D93D2A" transform="matrix(1.00, 0.00, -0.00, -1.00, 535.9, 19.6)">a</text><text xml:space="preserve" font-family="BodoniSvtyTwoITCTT-Book,Bodoni SvtyTwo ITC TT" font-size="70.0" fill="#D93D2A" transform="matrix(1.00, 0.00, -0.00, -1.00, 563.7, 19.6)">b</text><text xml:space="preserve" font-family="BodoniSvtyTwoITCTT-Book,Bodoni SvtyTwo ITC TT" font-size="70.0" fill="#D93D2A" transform="matrix(1.00, 0.00, -0.00, -1.00, 597.4, 19.6)">u</text><text xml:space="preserve" font-family="BodoniSvtyTwoITCTT-Book,Bodoni SvtyTwo ITC TT" font-size="70.0" fill="#D93D2A" transform="matrix(1.00, 0.00, -0.00, -1.00, 631.7, 19.6)">l</text><text xml:space="preserve" font-family="BodoniSvtyTwoITCTT-Book,Bodoni SvtyTwo ITC TT" font-size="70.0" fill="#D93D2A" transform="matrix(1.00, 0.00, -0.00, -1.00, 648.1, 19.6)">a</text><text xml:space="preserve" font-family="BodoniSvtyTwoITCTT-Book,Bodoni SvtyTwo ITC TT" font-size="70.0" fill="#D93D2A" transform="matrix(1.00, 0.00, -0.00, -1.00, 675.9, 19.6)">r</text><text xml:space="preserve" font-family="BodoniSvtyTwoITCTT-Book,Bodoni SvtyTwo ITC TT" font-size="70.0" fill="#D93D2A" transform="matrix(1.00, 0.00, -0.00, -1.00, 699.6, 19.6)">i</text><text xml:space="preserve" font-family="BodoniSvtyTwoITCTT-Book,Bodoni SvtyTwo ITC TT" font-size="70.0" fill="#D93D2A" transform="matrix(1.00, 0.00, -0.00, -1.00, 717.2, 19.6)">e</text><text xml:space="preserve" font-family="BodoniSvtyTwoITCTT-Book,Bodoni SvtyTwo ITC TT" font-size="70.0" fill="#D93D2A" transform="matrix(1.00, 0.00, -0.00, -1.00, 747.3, 19.6)">s</text></g></svg>