<?xml version="1.0" encoding="UTF-8" standalone="no"?><svg xmlns="http://www.w3.org/2000/svg" xmlns:xlink="http://www.w3.org/1999/xlink" clip-rule="evenodd" stroke-miterlimit="10" viewBox="0 0 1024 768"><desc>SVG generated by Keynote</desc><defs></defs><g transform="matrix(1.00, 0.00, -0.00, -1.00, 0.0, 768.0)"><g><clipPath id="clip0x6000016a8a60"><path d="M 0.0 768.0 L 1024.0 768.0 L 1024.0 0.0 L 0.0 0.0 Z M 0.0 768.0 "></path></clipPath><g clip-path="url(#clip0x6000016a8a60)"><image xlink:href="../../F253DB65-92C6-4850-9693-63CDF5253250/assets/5A8C990C4A4597A5304AC9F14CDA7C87.jpeg" width="2048.00" height="1536.00" transform="matrix(0.50, 0.00, -0.00, -0.50, 0.0, 768.0)"></image></g></g><g opacity="0.30"><g><clipPath id="clip0x6000016a9a20"><path d="M 39.0 595.0 L 986.0 595.0 L 986.0 599.0 L 39.0 599.0 Z M 39.0 595.0 "></path></clipPath><g clip-path="url(#clip0x6000016a9a20)"><path d="M 0.0 0.5 L 944.7 0.5 L 944.7 0.5 L 0.0 0.5 Z M 0.0 0.0 " fill="none" stroke="#434343" stroke-width="1.00" transform="matrix(1.00, 0.00, 0.00, -1.00, 40.0, 597.0)"></path></g></g></g><g opacity="0.30"><g><clipPath id="clip0x6000016a9600"><path d="M 39.0 716.0 L 986.0 716.0 L 986.0 720.0 L 39.0 720.0 Z M 39.0 716.0 "></path></clipPath><g clip-path="url(#clip0x6000016a9600)"><path d="M 0.0 0.5 L 944.7 0.5 L 944.7 0.5 L 0.0 0.5 Z M 0.0 0.0 " fill="none" stroke="#434343" stroke-width="1.00" transform="matrix(1.00, 0.00, 0.00, -1.00, 40.0, 718.0)"></path></g></g></g><text xml:space="preserve" font-family="BodoniSvtyTwoITCTT-Book,Bodoni SvtyTwo ITC TT" font-size="70.0" fill="#D93D2A" transform="matrix(1.00, 0.00, -0.00, -1.00, 125.4, 632.6)">L</text><text xml:space="preserve" font-family="BodoniSvtyTwoITCTT-Book,Bodoni SvtyTwo ITC TT" font-size="70.0" fill="#D93D2A" transform="matrix(1.00, 0.00, -0.00, -1.00, 164.9, 632.6)">i</text><text xml:space="preserve" font-family="BodoniSvtyTwoITCTT-Book,Bodoni SvtyTwo ITC TT" font-size="70.0" fill="#D93D2A" transform="matrix(1.00, 0.00, -0.00, -1.00, 182.4, 632.6)">b</text><text xml:space="preserve" font-family="BodoniSvtyTwoITCTT-Book,Bodoni SvtyTwo ITC TT" font-size="70.0" fill="#D93D2A" transform="matrix(1.00, 0.00, -0.00, -1.00, 216.1, 632.6)">r</text><text xml:space="preserve" font-family="BodoniSvtyTwoITCTT-Book,Bodoni SvtyTwo ITC TT" font-size="70.0" fill="#D93D2A" transform="matrix(1.00, 0.00, -0.00, -1.00, 239.8, 632.6)">a</text><text xml:space="preserve" font-family="BodoniSvtyTwoITCTT-Book,Bodoni SvtyTwo ITC TT" font-size="70.0" fill="#D93D2A" transform="matrix(1.00, 0.00, -0.00, -1.00, 267.6, 632.6)">r</text><text xml:space="preserve" font-family="BodoniSvtyTwoITCTT-Book,Bodoni SvtyTwo ITC TT" font-size="70.0" fill="#D93D2A" transform="matrix(1.00, 0.00, -0.00, -1.00, 291.2, 632.6)">y</text><text xml:space="preserve" font-family="BodoniSvtyTwoITCTT-Book,Bodoni SvtyTwo ITC TT" font-size="70.0" fill="#D93D2A" transform="matrix(1.00, 0.00, -0.00, -1.00, 319.3, 632.6)"> </text><text xml:space="preserve" font-family="BodoniSvtyTwoITCTT-Book,Bodoni SvtyTwo ITC TT" font-size="70.0" fill="#D93D2A" transform="matrix(1.00, 0.00, -0.00, -1.00, 332.3, 632.6)">S</text><text xml:space="preserve" font-family="BodoniSvtyTwoITCTT-Book,Bodoni SvtyTwo ITC TT" font-size="70.0" fill="#D93D2A" transform="matrix(1.00, 0.00, -0.00, -1.00, 367.2, 632.6)">p</text><text xml:space="preserve" font-family="BodoniSvtyTwoITCTT-Book,Bodoni SvtyTwo ITC TT" font-size="70.0" fill="#D93D2A" transform="matrix(1.00, 0.00, -0.00, -1.00, 401.4, 632.6)">e</text><text xml:space="preserve" font-family="BodoniSvtyTwoITCTT-Book,Bodoni SvtyTwo ITC TT" font-size="70.0" fill="#D93D2A" transform="matrix(1.00, 0.00, -0.00, -1.00, 431.5, 632.6)">c</text><text xml:space="preserve" font-family="BodoniSvtyTwoITCTT-Book,Bodoni SvtyTwo ITC TT" font-size="70.0" fill="#D93D2A" transform="matrix(1.00, 0.00, -0.00, -1.00, 460.1, 632.6)">i</text><text xml:space="preserve" font-family="BodoniSvtyTwoITCTT-Book,Bodoni SvtyTwo ITC TT" font-size="70.0" fill="#D93D2A" transform="matrix(1.00, 0.00, -0.00, -1.00, 477.7, 632.6)">f</text><text xml:space="preserve" font-family="BodoniSvtyTwoITCTT-Book,Bodoni SvtyTwo ITC TT" font-size="70.0" fill="#D93D2A" transform="matrix(1.00, 0.00, -0.00, -1.00, 496.2, 632.6)">i</text><text xml:space="preserve" font-family="BodoniSvtyTwoITCTT-Book,Bodoni SvtyTwo ITC TT" font-size="70.0" fill="#D93D2A" transform="matrix(1.00, 0.00, -0.00, -1.00, 513.8, 632.6)">c</text><text xml:space="preserve" font-family="BodoniSvtyTwoITCTT-Book,Bodoni SvtyTwo ITC TT" font-size="70.0" fill="#D93D2A" transform="matrix(1.00, 0.00, -0.00, -1.00, 542.4, 632.6)"> </text><text xml:space="preserve" font-family="BodoniSvtyTwoITCTT-Book,Bodoni SvtyTwo ITC TT" font-size="70.0" fill="#D93D2A" transform="matrix(1.00, 0.00, -0.00, -1.00, 555.4, 632.6)">V</text><text xml:space="preserve" font-family="BodoniSvtyTwoITCTT-Book,Bodoni SvtyTwo ITC TT" font-size="70.0" fill="#D93D2A" transform="matrix(1.00, 0.00, -0.00, -1.00, 599.7, 632.6)">o</text><text xml:space="preserve" font-family="BodoniSvtyTwoITCTT-Book,Bodoni SvtyTwo ITC TT" font-size="70.0" fill="#D93D2A" transform="matrix(1.00, 0.00, -0.00, -1.00, 633.3, 632.6)">c</text><text xml:space="preserve" font-family="BodoniSvtyTwoITCTT-Book,Bodoni SvtyTwo ITC TT" font-size="70.0" fill="#D93D2A" transform="matrix(1.00, 0.00, -0.00, -1.00, 661.9, 632.6)">a</text><text xml:space="preserve" font-family="BodoniSvtyTwoITCTT-Book,Bodoni SvtyTwo ITC TT" font-size="70.0" fill="#D93D2A" transform="matrix(1.00, 0.00, -0.00, -1.00, 689.7, 632.6)">b</text><text xml:space="preserve" font-family="BodoniSvtyTwoITCTT-Book,Bodoni SvtyTwo ITC TT" font-size="70.0" fill="#D93D2A" transform="matrix(1.00, 0.00, -0.00, -1.00, 723.4, 632.6)">u</text><text xml:space="preserve" font-family="BodoniSvtyTwoITCTT-Book,Bodoni SvtyTwo ITC TT" font-size="70.0" fill="#D93D2A" transform="matrix(1.00, 0.00, -0.00, -1.00, 757.7, 632.6)">l</text><text xml:space="preserve" font-family="BodoniSvtyTwoITCTT-Book,Bodoni SvtyTwo ITC TT" font-size="70.0" fill="#D93D2A" transform="matrix(1.00, 0.00, -0.00, -1.00, 774.1, 632.6)">a</text><text xml:space="preserve" font-family="BodoniSvtyTwoITCTT-Book,Bodoni SvtyTwo ITC TT" font-size="70.0" fill="#D93D2A" transform="matrix(1.00, 0.00, -0.00, -1.00, 801.9, 632.6)">r</text><text xml:space="preserve" font-family="BodoniSvtyTwoITCTT-Book,Bodoni SvtyTwo ITC TT" font-size="70.0" fill="#D93D2A" transform="matrix(1.00, 0.00, -0.00, -1.00, 825.6, 632.6)">i</text><text xml:space="preserve" font-family="BodoniSvtyTwoITCTT-Book,Bodoni SvtyTwo ITC TT" font-size="70.0" fill="#D93D2A" transform="matrix(1.00, 0.00, -0.00, -1.00, 843.2, 632.6)">e</text><text xml:space="preserve" font-family="BodoniSvtyTwoITCTT-Book,Bodoni SvtyTwo ITC TT" font-size="70.0" fill="#D93D2A" transform="matrix(1.00, 0.00, -0.00, -1.00, 873.3, 632.6)">s</text><text xml:space="preserve" font-family="ZapfDingbatsITC,Zapf Dingbats" font-size="18.4" fill="#919191" transform="matrix(1.00, 0.00, -0.00, -1.00, 44.0, 525.2)">❖</text><text xml:space="preserve" font-family="Palatino-Roman,Palatino" font-size="30.6" fill="#404040" transform="matrix(1.00, 0.00, -0.00, -1.00, 75.5, 520.5)">L</text><text xml:space="preserve" font-family="Palatino-Roman,Palatino" font-size="30.6" fill="#404040" transform="matrix(1.00, 0.00, -0.00, -1.00, 94.1, 520.5)">C</text><text xml:space="preserve" font-family="Palatino-Roman,Palatino" font-size="30.6" fill="#404040" transform="matrix(1.00, 0.00, -0.00, -1.00, 115.8, 520.5)"> </text><text xml:space="preserve" font-family="Palatino-Roman,Palatino" font-size="30.6" fill="#404040" transform="matrix(1.00, 0.00, -0.00, -1.00, 123.5, 520.5)">N</text><text xml:space="preserve" font-family="Palatino-Roman,Palatino" font-size="30.6" fill="#404040" transform="matrix(1.00, 0.00, -0.00, -1.00, 148.9, 520.5)">a</text><text xml:space="preserve" font-family="Palatino-Roman,Palatino" font-size="30.6" fill="#404040" transform="matrix(1.00, 0.00, -0.00, -1.00, 164.2, 520.5)">m</text><text xml:space="preserve" font-family="Palatino-Roman,Palatino" font-size="30.6" fill="#404040" transform="matrix(1.00, 0.00, -0.00, -1.00, 191.2, 520.5)">e</text><text xml:space="preserve" font-family="Palatino-Roman,Palatino" font-size="30.6" fill="#404040" transform="matrix(1.00, 0.00, -0.00, -1.00, 205.9, 520.5)"> </text><text xml:space="preserve" font-family="Palatino-Roman,Palatino" font-size="30.6" fill="#404040" transform="matrix(1.00, 0.00, -0.00, -1.00, 212.4, 520.5)">A</text><text xml:space="preserve" font-family="Palatino-Roman,Palatino" font-size="30.6" fill="#404040" transform="matrix(1.00, 0.00, -0.00, -1.00, 236.2, 520.5)">u</text><text xml:space="preserve" font-family="Palatino-Roman,Palatino" font-size="30.6" fill="#404040" transform="matrix(1.00, 0.00, -0.00, -1.00, 254.7, 520.5)">t</text><text xml:space="preserve" font-family="Palatino-Roman,Palatino" font-size="30.6" fill="#404040" transform="matrix(1.00, 0.00, -0.00, -1.00, 264.6, 520.5)">h</text><text xml:space="preserve" font-family="Palatino-Roman,Palatino" font-size="30.6" fill="#404040" transform="matrix(1.00, 0.00, -0.00, -1.00, 282.5, 520.5)">o</text><text xml:space="preserve" font-family="Palatino-Roman,Palatino" font-size="30.6" fill="#404040" transform="matrix(1.00, 0.00, -0.00, -1.00, 299.2, 520.5)">r</text><text xml:space="preserve" font-family="Palatino-Roman,Palatino" font-size="30.6" fill="#404040" transform="matrix(1.00, 0.00, -0.00, -1.00, 311.2, 520.5)">i</text><text xml:space="preserve" font-family="Palatino-Roman,Palatino" font-size="30.6" fill="#404040" transform="matrix(1.00, 0.00, -0.00, -1.00, 320.1, 520.5)">t</text><text xml:space="preserve" font-family="Palatino-Roman,Palatino" font-size="30.6" fill="#404040" transform="matrix(1.00, 0.00, -0.00, -1.00, 330.1, 520.5)">y</text><text xml:space="preserve" font-family="Palatino-Roman,Palatino" font-size="30.6" fill="#404040" transform="matrix(1.00, 0.00, -0.00, -1.00, 347.2, 520.5)"> </text><text xml:space="preserve" font-family="Palatino-Roman,Palatino" font-size="30.6" fill="#404040" transform="matrix(1.00, 0.00, -0.00, -1.00, 354.8, 520.5)">F</text><text xml:space="preserve" font-family="Palatino-Roman,Palatino" font-size="30.6" fill="#404040" transform="matrix(1.00, 0.00, -0.00, -1.00, 371.8, 520.5)">i</text><text xml:space="preserve" font-family="Palatino-Roman,Palatino" font-size="30.6" fill="#404040" transform="matrix(1.00, 0.00, -0.00, -1.00, 380.7, 520.5)">l</text><text xml:space="preserve" font-family="Palatino-Roman,Palatino" font-size="30.6" fill="#404040" transform="matrix(1.00, 0.00, -0.00, -1.00, 389.6, 520.5)">e</text><text xml:space="preserve" font-family="ZapfDingbatsITC,Zapf Dingbats" font-size="18.4" fill="#919191" transform="matrix(1.00, 0.00, -0.00, -1.00, 81.0, 464.8)">❖</text><text xml:space="preserve" font-family="Palatino-Roman,Palatino" font-size="30.6" fill="#404040" transform="matrix(1.00, 0.00, -0.00, -1.00, 112.5, 460.1)">P</text><text xml:space="preserve" font-family="Palatino-Roman,Palatino" font-size="30.6" fill="#404040" transform="matrix(1.00, 0.00, -0.00, -1.00, 130.9, 460.1)">e</text><text xml:space="preserve" font-family="Palatino-Roman,Palatino" font-size="30.6" fill="#404040" transform="matrix(1.00, 0.00, -0.00, -1.00, 145.6, 460.1)">r</text><text xml:space="preserve" font-family="Palatino-Roman,Palatino" font-size="30.6" fill="#404040" transform="matrix(1.00, 0.00, -0.00, -1.00, 157.7, 460.1)">s</text><text xml:space="preserve" font-family="Palatino-Roman,Palatino" font-size="30.6" fill="#404040" transform="matrix(1.00, 0.00, -0.00, -1.00, 170.6, 460.1)">o</text><text xml:space="preserve" font-family="Palatino-Roman,Palatino" font-size="30.6" fill="#404040" transform="matrix(1.00, 0.00, -0.00, -1.00, 187.3, 460.1)">n</text><text xml:space="preserve" font-family="Palatino-Roman,Palatino" font-size="30.6" fill="#404040" transform="matrix(1.00, 0.00, -0.00, -1.00, 205.2, 460.1)">a</text><text xml:space="preserve" font-family="Palatino-Roman,Palatino" font-size="30.6" fill="#404040" transform="matrix(1.00, 0.00, -0.00, -1.00, 220.5, 460.1)">l</text><text xml:space="preserve" font-family="ZapfDingbatsITC,Zapf Dingbats" font-size="18.4" fill="#919191" transform="matrix(1.00, 0.00, -0.00, -1.00, 81.0, 404.4)">❖</text><text xml:space="preserve" font-family="Palatino-Roman,Palatino" font-size="30.6" fill="#404040" transform="matrix(1.00, 0.00, -0.00, -1.00, 112.5, 399.7)">C</text><text xml:space="preserve" font-family="Palatino-Roman,Palatino" font-size="30.6" fill="#404040" transform="matrix(1.00, 0.00, -0.00, -1.00, 134.1, 399.7)">o</text><text xml:space="preserve" font-family="Palatino-Roman,Palatino" font-size="30.6" fill="#404040" transform="matrix(1.00, 0.00, -0.00, -1.00, 150.8, 399.7)">r</text><text xml:space="preserve" font-family="Palatino-Roman,Palatino" font-size="30.6" fill="#404040" transform="matrix(1.00, 0.00, -0.00, -1.00, 162.9, 399.7)">p</text><text xml:space="preserve" font-family="Palatino-Roman,Palatino" font-size="30.6" fill="#404040" transform="matrix(1.00, 0.00, -0.00, -1.00, 181.3, 399.7)">o</text><text xml:space="preserve" font-family="Palatino-Roman,Palatino" font-size="30.6" fill="#404040" transform="matrix(1.00, 0.00, -0.00, -1.00, 198.0, 399.7)">r</text><text xml:space="preserve" font-family="Palatino-Roman,Palatino" font-size="30.6" fill="#404040" transform="matrix(1.00, 0.00, -0.00, -1.00, 210.1, 399.7)">a</text><text xml:space="preserve" font-family="Palatino-Roman,Palatino" font-size="30.6" fill="#404040" transform="matrix(1.00, 0.00, -0.00, -1.00, 225.4, 399.7)">t</text><text xml:space="preserve" font-family="Palatino-Roman,Palatino" font-size="30.6" fill="#404040" transform="matrix(1.00, 0.00, -0.00, -1.00, 235.4, 399.7)">e</text><text xml:space="preserve" font-family="Palatino-Roman,Palatino" font-size="30.6" fill="#404040" transform="matrix(1.00, 0.00, -0.00, -1.00, 250.1, 399.7)"> </text><text xml:space="preserve" font-family="Palatino-Roman,Palatino" font-size="30.6" fill="#404040" transform="matrix(1.00, 0.00, -0.00, -1.00, 257.7, 399.7)">B</text><text xml:space="preserve" font-family="Palatino-Roman,Palatino" font-size="30.6" fill="#404040" transform="matrix(1.00, 0.00, -0.00, -1.00, 276.4, 399.7)">o</text><text xml:space="preserve" font-family="Palatino-Roman,Palatino" font-size="30.6" fill="#404040" transform="matrix(1.00, 0.00, -0.00, -1.00, 293.1, 399.7)">d</text><text xml:space="preserve" font-family="Palatino-Roman,Palatino" font-size="30.6" fill="#404040" transform="matrix(1.00, 0.00, -0.00, -1.00, 311.8, 399.7)">i</text><text xml:space="preserve" font-family="Palatino-Roman,Palatino" font-size="30.6" fill="#404040" transform="matrix(1.00, 0.00, -0.00, -1.00, 320.7, 399.7)">e</text><text xml:space="preserve" font-family="Palatino-Roman,Palatino" font-size="30.6" fill="#404040" transform="matrix(1.00, 0.00, -0.00, -1.00, 335.3, 399.7)">s</text><text xml:space="preserve" font-family="ZapfDingbatsITC,Zapf Dingbats" font-size="18.4" fill="#919191" transform="matrix(1.00, 0.00, -0.00, -1.00, 81.0, 344.0)">❖</text><text xml:space="preserve" font-family="Palatino-Roman,Palatino" font-size="30.6" fill="#404040" transform="matrix(1.00, 0.00, -0.00, -1.00, 112.5, 339.3)">T</text><text xml:space="preserve" font-family="Palatino-Roman,Palatino" font-size="30.6" fill="#404040" transform="matrix(1.00, 0.00, -0.00, -1.00, 129.5, 339.3)">i</text><text xml:space="preserve" font-family="Palatino-Roman,Palatino" font-size="30.6" fill="#404040" transform="matrix(1.00, 0.00, -0.00, -1.00, 138.4, 339.3)">t</text><text xml:space="preserve" font-family="Palatino-Roman,Palatino" font-size="30.6" fill="#404040" transform="matrix(1.00, 0.00, -0.00, -1.00, 148.4, 339.3)">l</text><text xml:space="preserve" font-family="Palatino-Roman,Palatino" font-size="30.6" fill="#404040" transform="matrix(1.00, 0.00, -0.00, -1.00, 157.3, 339.3)">e</text><text xml:space="preserve" font-family="Palatino-Roman,Palatino" font-size="30.6" fill="#404040" transform="matrix(1.00, 0.00, -0.00, -1.00, 172.0, 339.3)">s</text><text xml:space="preserve" font-family="ZapfDingbatsITC,Zapf Dingbats" font-size="18.4" fill="#919191" transform="matrix(1.00, 0.00, -0.00, -1.00, 44.0, 283.6)">❖</text><text xml:space="preserve" font-family="Palatino-Roman,Palatino" font-size="30.6" fill="#404040" transform="matrix(1.00, 0.00, -0.00, -1.00, 75.5, 278.9)">L</text><text xml:space="preserve" font-family="Palatino-Roman,Palatino" font-size="30.6" fill="#404040" transform="matrix(1.00, 0.00, -0.00, -1.00, 94.1, 278.9)">C</text><text xml:space="preserve" font-family="Palatino-Roman,Palatino" font-size="30.6" fill="#404040" transform="matrix(1.00, 0.00, -0.00, -1.00, 115.8, 278.9)"> </text><text xml:space="preserve" font-family="Palatino-Roman,Palatino" font-size="30.6" fill="#404040" transform="matrix(1.00, 0.00, -0.00, -1.00, 123.5, 278.9)">S</text><text xml:space="preserve" font-family="Palatino-Roman,Palatino" font-size="30.6" fill="#404040" transform="matrix(1.00, 0.00, -0.00, -1.00, 139.5, 278.9)">u</text><text xml:space="preserve" font-family="Palatino-Roman,Palatino" font-size="30.6" fill="#404040" transform="matrix(1.00, 0.00, -0.00, -1.00, 158.0, 278.9)">b</text><text xml:space="preserve" font-family="Palatino-Roman,Palatino" font-size="30.6" fill="#404040" transform="matrix(1.00, 0.00, -0.00, -1.00, 174.9, 278.9)">j</text><text xml:space="preserve" font-family="Palatino-Roman,Palatino" font-size="30.6" fill="#404040" transform="matrix(1.00, 0.00, -0.00, -1.00, 182.1, 278.9)">e</text><text xml:space="preserve" font-family="Palatino-Roman,Palatino" font-size="30.6" fill="#404040" transform="matrix(1.00, 0.00, -0.00, -1.00, 196.7, 278.9)">c</text><text xml:space="preserve" font-family="Palatino-Roman,Palatino" font-size="30.6" fill="#404040" transform="matrix(1.00, 0.00, -0.00, -1.00, 210.3, 278.9)">t</text><text xml:space="preserve" font-family="Palatino-Roman,Palatino" font-size="30.6" fill="#404040" transform="matrix(1.00, 0.00, -0.00, -1.00, 220.3, 278.9)"> </text><text xml:space="preserve" font-family="Palatino-Roman,Palatino" font-size="30.6" fill="#404040" transform="matrix(1.00, 0.00, -0.00, -1.00, 228.0, 278.9)">H</text><text xml:space="preserve" font-family="Palatino-Roman,Palatino" font-size="30.6" fill="#404040" transform="matrix(1.00, 0.00, -0.00, -1.00, 253.4, 278.9)">e</text><text xml:space="preserve" font-family="Palatino-Roman,Palatino" font-size="30.6" fill="#404040" transform="matrix(1.00, 0.00, -0.00, -1.00, 268.1, 278.9)">a</text><text xml:space="preserve" font-family="Palatino-Roman,Palatino" font-size="30.6" fill="#404040" transform="matrix(1.00, 0.00, -0.00, -1.00, 283.4, 278.9)">d</text><text xml:space="preserve" font-family="Palatino-Roman,Palatino" font-size="30.6" fill="#404040" transform="matrix(1.00, 0.00, -0.00, -1.00, 302.1, 278.9)">i</text><text xml:space="preserve" font-family="Palatino-Roman,Palatino" font-size="30.6" fill="#404040" transform="matrix(1.00, 0.00, -0.00, -1.00, 311.0, 278.9)">n</text><text xml:space="preserve" font-family="Palatino-Roman,Palatino" font-size="30.6" fill="#404040" transform="matrix(1.00, 0.00, -0.00, -1.00, 328.8, 278.9)">g</text><text xml:space="preserve" font-family="Palatino-Roman,Palatino" font-size="30.6" fill="#404040" transform="matrix(1.00, 0.00, -0.00, -1.00, 345.8, 278.9)">s</text><text xml:space="preserve" font-family="ZapfDingbatsITC,Zapf Dingbats" font-size="18.4" fill="#919191" transform="matrix(1.00, 0.00, -0.00, -1.00, 81.0, 223.2)">❖</text><text xml:space="preserve" font-family="Palatino-Roman,Palatino" font-size="30.6" fill="#404040" transform="matrix(1.00, 0.00, -0.00, -1.00, 112.5, 218.5)">T</text><text xml:space="preserve" font-family="Palatino-Roman,Palatino" font-size="30.6" fill="#404040" transform="matrix(1.00, 0.00, -0.00, -1.00, 128.4, 218.5)">o</text><text xml:space="preserve" font-family="Palatino-Roman,Palatino" font-size="30.6" fill="#404040" transform="matrix(1.00, 0.00, -0.00, -1.00, 145.1, 218.5)">p</text><text xml:space="preserve" font-family="Palatino-Roman,Palatino" font-size="30.6" fill="#404040" transform="matrix(1.00, 0.00, -0.00, -1.00, 163.5, 218.5)">i</text><text xml:space="preserve" font-family="Palatino-Roman,Palatino" font-size="30.6" fill="#404040" transform="matrix(1.00, 0.00, -0.00, -1.00, 172.4, 218.5)">c</text><text xml:space="preserve" font-family="Palatino-Roman,Palatino" font-size="30.6" fill="#404040" transform="matrix(1.00, 0.00, -0.00, -1.00, 186.0, 218.5)">s</text><text xml:space="preserve" font-family="ZapfDingbatsITC,Zapf Dingbats" font-size="18.4" fill="#919191" transform="matrix(1.00, 0.00, -0.00, -1.00, 81.0, 162.8)">❖</text><text xml:space="preserve" font-family="Palatino-Roman,Palatino" font-size="30.6" fill="#404040" transform="matrix(1.00, 0.00, -0.00, -1.00, 112.5, 158.1)">P</text><text xml:space="preserve" font-family="Palatino-Roman,Palatino" font-size="30.6" fill="#404040" transform="matrix(1.00, 0.00, -0.00, -1.00, 130.9, 158.1)">l</text><text xml:space="preserve" font-family="Palatino-Roman,Palatino" font-size="30.6" fill="#404040" transform="matrix(1.00, 0.00, -0.00, -1.00, 139.8, 158.1)">a</text><text xml:space="preserve" font-family="Palatino-Roman,Palatino" font-size="30.6" fill="#404040" transform="matrix(1.00, 0.00, -0.00, -1.00, 155.1, 158.1)">c</text><text xml:space="preserve" font-family="Palatino-Roman,Palatino" font-size="30.6" fill="#404040" transform="matrix(1.00, 0.00, -0.00, -1.00, 168.7, 158.1)">e</text><text xml:space="preserve" font-family="Palatino-Roman,Palatino" font-size="30.6" fill="#404040" transform="matrix(1.00, 0.00, -0.00, -1.00, 183.4, 158.1)">s</text><text xml:space="preserve" font-family="ZapfDingbatsITC,Zapf Dingbats" font-size="18.4" fill="#919191" transform="matrix(1.00, 0.00, -0.00, -1.00, 44.0, 102.4)">❖</text><text xml:space="preserve" font-family="Palatino-Roman,Palatino" font-size="30.6" fill="#404040" transform="matrix(1.00, 0.00, -0.00, -1.00, 75.5, 97.7)">A</text><text xml:space="preserve" font-family="Palatino-Roman,Palatino" font-size="30.6" fill="#404040" transform="matrix(1.00, 0.00, -0.00, -1.00, 99.2, 97.7)">u</text><text xml:space="preserve" font-family="Palatino-Roman,Palatino" font-size="30.6" fill="#404040" transform="matrix(1.00, 0.00, -0.00, -1.00, 117.7, 97.7)">t</text><text xml:space="preserve" font-family="Palatino-Roman,Palatino" font-size="30.6" fill="#404040" transform="matrix(1.00, 0.00, -0.00, -1.00, 127.7, 97.7)">h</text><text xml:space="preserve" font-family="Palatino-Roman,Palatino" font-size="30.6" fill="#404040" transform="matrix(1.00, 0.00, -0.00, -1.00, 145.5, 97.7)">o</text><text xml:space="preserve" font-family="Palatino-Roman,Palatino" font-size="30.6" fill="#404040" transform="matrix(1.00, 0.00, -0.00, -1.00, 162.2, 97.7)">r</text><text xml:space="preserve" font-family="Palatino-Roman,Palatino" font-size="30.6" fill="#404040" transform="matrix(1.00, 0.00, -0.00, -1.00, 174.3, 97.7)">i</text><text xml:space="preserve" font-family="Palatino-Roman,Palatino" font-size="30.6" fill="#404040" transform="matrix(1.00, 0.00, -0.00, -1.00, 183.2, 97.7)">t</text><text xml:space="preserve" font-family="Palatino-Roman,Palatino" font-size="30.6" fill="#404040" transform="matrix(1.00, 0.00, -0.00, -1.00, 193.2, 97.7)">i</text><text xml:space="preserve" font-family="Palatino-Roman,Palatino" font-size="30.6" fill="#404040" transform="matrix(1.00, 0.00, -0.00, -1.00, 202.1, 97.7)">e</text><text xml:space="preserve" font-family="Palatino-Roman,Palatino" font-size="30.6" fill="#404040" transform="matrix(1.00, 0.00, -0.00, -1.00, 216.7, 97.7)">s</text><text xml:space="preserve" font-family="Palatino-Roman,Palatino" font-size="30.6" fill="#404040" transform="matrix(1.00, 0.00, -0.00, -1.00, 229.7, 97.7)"> </text><text xml:space="preserve" font-family="Palatino-Roman,Palatino" font-size="30.6" fill="#404040" transform="matrix(1.00, 0.00, -0.00, -1.00, 237.4, 97.7)">@</text><text xml:space="preserve" font-family="Palatino-Roman,Palatino" font-size="30.6" fill="#404040" transform="matrix(1.00, 0.00, -0.00, -1.00, 260.2, 97.7)"> </text><text xml:space="preserve" font-family="Palatino-Roman,Palatino" font-size="30.6" fill="#404040" transform="matrix(1.00, 0.00, -0.00, -1.00, 267.9, 97.7)">L</text><text xml:space="preserve" font-family="Palatino-Roman,Palatino" font-size="30.6" fill="#404040" transform="matrix(1.00, 0.00, -0.00, -1.00, 286.6, 97.7)">i</text><text xml:space="preserve" font-family="Palatino-Roman,Palatino" font-size="30.6" fill="#404040" transform="matrix(1.00, 0.00, -0.00, -1.00, 295.5, 97.7)">b</text><text xml:space="preserve" font-family="Palatino-Roman,Palatino" font-size="30.6" fill="#404040" transform="matrix(1.00, 0.00, -0.00, -1.00, 312.4, 97.7)">r</text><text xml:space="preserve" font-family="Palatino-Roman,Palatino" font-size="30.6" fill="#404040" transform="matrix(1.00, 0.00, -0.00, -1.00, 324.5, 97.7)">a</text><text xml:space="preserve" font-family="Palatino-Roman,Palatino" font-size="30.6" fill="#404040" transform="matrix(1.00, 0.00, -0.00, -1.00, 339.8, 97.7)">r</text><text xml:space="preserve" font-family="Palatino-Roman,Palatino" font-size="30.6" fill="#404040" transform="matrix(1.00, 0.00, -0.00, -1.00, 351.9, 97.7)">y</text><text xml:space="preserve" font-family="Palatino-Roman,Palatino" font-size="30.6" fill="#404040" transform="matrix(1.00, 0.00, -0.00, -1.00, 368.9, 97.7)"> </text><text xml:space="preserve" font-family="Palatino-Roman,Palatino" font-size="30.6" fill="#404040" transform="matrix(1.00, 0.00, -0.00, -1.00, 376.5, 97.7)">o</text><text xml:space="preserve" font-family="Palatino-Roman,Palatino" font-size="30.6" fill="#404040" transform="matrix(1.00, 0.00, -0.00, -1.00, 393.2, 97.7)">f</text><text xml:space="preserve" font-family="Palatino-Roman,Palatino" font-size="30.6" fill="#404040" transform="matrix(1.00, 0.00, -0.00, -1.00, 403.4, 97.7)"> </text><text xml:space="preserve" font-family="Palatino-Roman,Palatino" font-size="30.6" fill="#404040" transform="matrix(1.00, 0.00, -0.00, -1.00, 411.1, 97.7)">C</text><text xml:space="preserve" font-family="Palatino-Roman,Palatino" font-size="30.6" fill="#404040" transform="matrix(1.00, 0.00, -0.00, -1.00, 432.8, 97.7)">o</text><text xml:space="preserve" font-family="Palatino-Roman,Palatino" font-size="30.6" fill="#404040" transform="matrix(1.00, 0.00, -0.00, -1.00, 449.5, 97.7)">n</text><text xml:space="preserve" font-family="Palatino-Roman,Palatino" font-size="30.6" fill="#404040" transform="matrix(1.00, 0.00, -0.00, -1.00, 467.3, 97.7)">g</text><text xml:space="preserve" font-family="Palatino-Roman,Palatino" font-size="30.6" fill="#404040" transform="matrix(1.00, 0.00, -0.00, -1.00, 484.3, 97.7)">r</text><text xml:space="preserve" font-family="Palatino-Roman,Palatino" font-size="30.6" fill="#404040" transform="matrix(1.00, 0.00, -0.00, -1.00, 495.9, 97.7)">e</text><text xml:space="preserve" font-family="Palatino-Roman,Palatino" font-size="30.6" fill="#404040" transform="matrix(1.00, 0.00, -0.00, -1.00, 510.5, 97.7)">s</text><text xml:space="preserve" font-family="Palatino-Roman,Palatino" font-size="30.6" fill="#404040" transform="matrix(1.00, 0.00, -0.00, -1.00, 523.5, 97.7)">s</text><text xml:space="preserve" font-family="Palatino-Roman,Palatino" font-size="30.6" fill="#404040" transform="matrix(1.00, 0.00, -0.00, -1.00, 536.4, 97.7)">:</text><text xml:space="preserve" font-family="Palatino-Roman,Palatino" font-size="30.6" fill="#404040" transform="matrix(1.00, 0.00, -0.00, -1.00, 544.1, 97.7)"> </text><text xml:space="preserve" font-family="Palatino-Roman,Palatino" font-size="30.6" fill="#404040" transform="matrix(1.00, 0.00, -0.00, -1.00, 551.8, 97.7)">h</text><text xml:space="preserve" font-family="Palatino-Roman,Palatino" font-size="30.6" fill="#404040" transform="matrix(1.00, 0.00, -0.00, -1.00, 569.6, 97.7)">t</text><text xml:space="preserve" font-family="Palatino-Roman,Palatino" font-size="30.6" fill="#404040" transform="matrix(1.00, 0.00, -0.00, -1.00, 579.5, 97.7)">t</text><text xml:space="preserve" font-family="Palatino-Roman,Palatino" font-size="30.6" fill="#404040" transform="matrix(1.00, 0.00, -0.00, -1.00, 589.5, 97.7)">p</text><text xml:space="preserve" font-family="Palatino-Roman,Palatino" font-size="30.6" fill="#404040" transform="matrix(1.00, 0.00, -0.00, -1.00, 607.9, 97.7)">:</text><text xml:space="preserve" font-family="Palatino-Roman,Palatino" font-size="30.6" fill="#404040" transform="matrix(1.00, 0.00, -0.00, -1.00, 615.6, 97.7)">/</text><text xml:space="preserve" font-family="Palatino-Roman,Palatino" font-size="30.6" fill="#404040" transform="matrix(1.00, 0.00, -0.00, -1.00, 634.1, 97.7)">/</text><text xml:space="preserve" font-family="Palatino-Roman,Palatino" font-size="30.6" fill="#404040" transform="matrix(1.00, 0.00, -0.00, -1.00, 652.7, 97.7)">a</text><text xml:space="preserve" font-family="Palatino-Roman,Palatino" font-size="30.6" fill="#404040" transform="matrix(1.00, 0.00, -0.00, -1.00, 668.0, 97.7)">u</text><text xml:space="preserve" font-family="Palatino-Roman,Palatino" font-size="30.6" fill="#404040" transform="matrix(1.00, 0.00, -0.00, -1.00, 686.4, 97.7)">t</text><text xml:space="preserve" font-family="Palatino-Roman,Palatino" font-size="30.6" fill="#404040" transform="matrix(1.00, 0.00, -0.00, -1.00, 696.4, 97.7)">h</text><text xml:space="preserve" font-family="Palatino-Roman,Palatino" font-size="30.6" fill="#404040" transform="matrix(1.00, 0.00, -0.00, -1.00, 714.2, 97.7)">o</text><text xml:space="preserve" font-family="Palatino-Roman,Palatino" font-size="30.6" fill="#404040" transform="matrix(1.00, 0.00, -0.00, -1.00, 730.9, 97.7)">r</text><text xml:space="preserve" font-family="Palatino-Roman,Palatino" font-size="30.6" fill="#404040" transform="matrix(1.00, 0.00, -0.00, -1.00, 743.0, 97.7)">i</text><text xml:space="preserve" font-family="Palatino-Roman,Palatino" font-size="30.6" fill="#404040" transform="matrix(1.00, 0.00, -0.00, -1.00, 751.9, 97.7)">t</text><text xml:space="preserve" font-family="Palatino-Roman,Palatino" font-size="30.6" fill="#404040" transform="matrix(1.00, 0.00, -0.00, -1.00, 761.9, 97.7)">i</text><text xml:space="preserve" font-family="Palatino-Roman,Palatino" font-size="30.6" fill="#404040" transform="matrix(1.00, 0.00, -0.00, -1.00, 770.8, 97.7)">e</text><text xml:space="preserve" font-family="Palatino-Roman,Palatino" font-size="30.6" fill="#404040" transform="matrix(1.00, 0.00, -0.00, -1.00, 785.5, 97.7)">s</text><text xml:space="preserve" font-family="Palatino-Roman,Palatino" font-size="30.6" fill="#404040" transform="matrix(1.00, 0.00, -0.00, -1.00, 798.4, 97.7)">.</text><text xml:space="preserve" font-family="Palatino-Roman,Palatino" font-size="30.6" fill="#404040" transform="matrix(1.00, 0.00, -0.00, -1.00, 806.1, 97.7)">l</text><text xml:space="preserve" font-family="Palatino-Roman,Palatino" font-size="30.6" fill="#404040" transform="matrix(1.00, 0.00, -0.00, -1.00, 815.0, 97.7)">o</text><text xml:space="preserve" font-family="Palatino-Roman,Palatino" font-size="30.6" fill="#404040" transform="matrix(1.00, 0.00, -0.00, -1.00, 831.7, 97.7)">c</text><text xml:space="preserve" font-family="Palatino-Roman,Palatino" font-size="30.6" fill="#404040" transform="matrix(1.00, 0.00, -0.00, -1.00, 845.3, 97.7)">.</text><text xml:space="preserve" font-family="Palatino-Roman,Palatino" font-size="30.6" fill="#404040" transform="matrix(1.00, 0.00, -0.00, -1.00, 852.9, 97.7)">g</text><text xml:space="preserve" font-family="Palatino-Roman,Palatino" font-size="30.6" fill="#404040" transform="matrix(1.00, 0.00, -0.00, -1.00, 869.9, 97.7)">o</text><text xml:space="preserve" font-family="Palatino-Roman,Palatino" font-size="30.6" fill="#404040" transform="matrix(1.00, 0.00, -0.00, -1.00, 886.6, 97.7)">v</text><g><clipPath id="clip0x6000016ae760"><path d="M 550.8 92.7 L 903.9 92.7 L 903.9 96.5 L 550.8 96.5 Z M 550.8 92.7 "></path></clipPath><g clip-path="url(#clip0x6000016ae760)"><path d="M 511.8 466.4 L 863.9 466.4 " fill="none" stroke="#404040" stroke-width="1.79" transform="matrix(1.00, 0.00, 0.00, -1.00, 40.0, 561.0)"></path></g></g><text xml:space="preserve" font-family="Palatino-Roman,Palatino" font-size="18.0" fill="#4B4945" transform="matrix(1.00, 0.00, -0.00, -1.00, 502.5, 16.0)">2</text><text xml:space="preserve" font-family="Palatino-Roman,Palatino" font-size="18.0" fill="#4B4945" transform="matrix(1.00, 0.00, -0.00, -1.00, 511.5, 16.0)">3</text></g></svg>