<?xml version="1.0" encoding="UTF-8" standalone="no"?><svg xmlns="http://www.w3.org/2000/svg" xmlns:xlink="http://www.w3.org/1999/xlink" clip-rule="evenodd" stroke-miterlimit="10" viewBox="0 0 1024 768"><desc>SVG generated by Keynote</desc><defs></defs><g transform="matrix(1.00, 0.00, -0.00, -1.00, 0.0, 768.0)"><g><clipPath id="clip0x6000016aeb80"><path d="M 0.0 768.0 L 1024.0 768.0 L 1024.0 0.0 L 0.0 0.0 Z M 0.0 768.0 "></path></clipPath><g clip-path="url(#clip0x6000016aeb80)"><image xlink:href="../../F253DB65-92C6-4850-9693-63CDF5253250/assets/5A8C990C4A4597A5304AC9F14CDA7C87.jpeg" width="2048.00" height="1536.00" transform="matrix(0.50, 0.00, -0.00, -0.50, 0.0, 768.0)"></image></g></g><g opacity="0.30"><g><clipPath id="clip0x6000016aaa40"><path d="M 39.0 595.0 L 986.0 595.0 L 986.0 599.0 L 39.0 599.0 Z M 39.0 595.0 "></path></clipPath><g clip-path="url(#clip0x6000016aaa40)"><path d="M 0.0 0.5 L 944.7 0.5 L 944.7 0.5 L 0.0 0.5 Z M 0.0 0.0 " fill="none" stroke="#434343" stroke-width="1.00" transform="matrix(1.00, 0.00, 0.00, -1.00, 40.0, 597.0)"></path></g></g></g><g opacity="0.30"><g><clipPath id="clip0x6000016af1e0"><path d="M 39.0 716.0 L 986.0 716.0 L 986.0 720.0 L 39.0 720.0 Z M 39.0 716.0 "></path></clipPath><g clip-path="url(#clip0x6000016af1e0)"><path d="M 0.0 0.5 L 944.7 0.5 L 944.7 0.5 L 0.0 0.5 Z M 0.0 0.0 " fill="none" stroke="#434343" stroke-width="1.00" transform="matrix(1.00, 0.00, 0.00, -1.00, 40.0, 718.0)"></path></g></g></g><text xml:space="preserve" font-family="BodoniSvtyTwoITCTT-Book,Bodoni SvtyTwo ITC TT" font-size="70.0" fill="#D93D2A" transform="matrix(1.00, 0.00, -0.00, -1.00, 125.4, 632.6)">L</text><text xml:space="preserve" font-family="BodoniSvtyTwoITCTT-Book,Bodoni SvtyTwo ITC TT" font-size="70.0" fill="#D93D2A" transform="matrix(1.00, 0.00, -0.00, -1.00, 164.9, 632.6)">i</text><text xml:space="preserve" font-family="BodoniSvtyTwoITCTT-Book,Bodoni SvtyTwo ITC TT" font-size="70.0" fill="#D93D2A" transform="matrix(1.00, 0.00, -0.00, -1.00, 182.4, 632.6)">b</text><text xml:space="preserve" font-family="BodoniSvtyTwoITCTT-Book,Bodoni SvtyTwo ITC TT" font-size="70.0" fill="#D93D2A" transform="matrix(1.00, 0.00, -0.00, -1.00, 216.1, 632.6)">r</text><text xml:space="preserve" font-family="BodoniSvtyTwoITCTT-Book,Bodoni SvtyTwo ITC TT" font-size="70.0" fill="#D93D2A" transform="matrix(1.00, 0.00, -0.00, -1.00, 239.8, 632.6)">a</text><text xml:space="preserve" font-family="BodoniSvtyTwoITCTT-Book,Bodoni SvtyTwo ITC TT" font-size="70.0" fill="#D93D2A" transform="matrix(1.00, 0.00, -0.00, -1.00, 267.6, 632.6)">r</text><text xml:space="preserve" font-family="BodoniSvtyTwoITCTT-Book,Bodoni SvtyTwo ITC TT" font-size="70.0" fill="#D93D2A" transform="matrix(1.00, 0.00, -0.00, -1.00, 291.2, 632.6)">y</text><text xml:space="preserve" font-family="BodoniSvtyTwoITCTT-Book,Bodoni SvtyTwo ITC TT" font-size="70.0" fill="#D93D2A" transform="matrix(1.00, 0.00, -0.00, -1.00, 319.3, 632.6)"> </text><text xml:space="preserve" font-family="BodoniSvtyTwoITCTT-Book,Bodoni SvtyTwo ITC TT" font-size="70.0" fill="#D93D2A" transform="matrix(1.00, 0.00, -0.00, -1.00, 332.3, 632.6)">S</text><text xml:space="preserve" font-family="BodoniSvtyTwoITCTT-Book,Bodoni SvtyTwo ITC TT" font-size="70.0" fill="#D93D2A" transform="matrix(1.00, 0.00, -0.00, -1.00, 367.2, 632.6)">p</text><text xml:space="preserve" font-family="BodoniSvtyTwoITCTT-Book,Bodoni SvtyTwo ITC TT" font-size="70.0" fill="#D93D2A" transform="matrix(1.00, 0.00, -0.00, -1.00, 401.4, 632.6)">e</text><text xml:space="preserve" font-family="BodoniSvtyTwoITCTT-Book,Bodoni SvtyTwo ITC TT" font-size="70.0" fill="#D93D2A" transform="matrix(1.00, 0.00, -0.00, -1.00, 431.5, 632.6)">c</text><text xml:space="preserve" font-family="BodoniSvtyTwoITCTT-Book,Bodoni SvtyTwo ITC TT" font-size="70.0" fill="#D93D2A" transform="matrix(1.00, 0.00, -0.00, -1.00, 460.1, 632.6)">i</text><text xml:space="preserve" font-family="BodoniSvtyTwoITCTT-Book,Bodoni SvtyTwo ITC TT" font-size="70.0" fill="#D93D2A" transform="matrix(1.00, 0.00, -0.00, -1.00, 477.7, 632.6)">f</text><text xml:space="preserve" font-family="BodoniSvtyTwoITCTT-Book,Bodoni SvtyTwo ITC TT" font-size="70.0" fill="#D93D2A" transform="matrix(1.00, 0.00, -0.00, -1.00, 496.2, 632.6)">i</text><text xml:space="preserve" font-family="BodoniSvtyTwoITCTT-Book,Bodoni SvtyTwo ITC TT" font-size="70.0" fill="#D93D2A" transform="matrix(1.00, 0.00, -0.00, -1.00, 513.8, 632.6)">c</text><text xml:space="preserve" font-family="BodoniSvtyTwoITCTT-Book,Bodoni SvtyTwo ITC TT" font-size="70.0" fill="#D93D2A" transform="matrix(1.00, 0.00, -0.00, -1.00, 542.4, 632.6)"> </text><text xml:space="preserve" font-family="BodoniSvtyTwoITCTT-Book,Bodoni SvtyTwo ITC TT" font-size="70.0" fill="#D93D2A" transform="matrix(1.00, 0.00, -0.00, -1.00, 555.4, 632.6)">V</text><text xml:space="preserve" font-family="BodoniSvtyTwoITCTT-Book,Bodoni SvtyTwo ITC TT" font-size="70.0" fill="#D93D2A" transform="matrix(1.00, 0.00, -0.00, -1.00, 599.7, 632.6)">o</text><text xml:space="preserve" font-family="BodoniSvtyTwoITCTT-Book,Bodoni SvtyTwo ITC TT" font-size="70.0" fill="#D93D2A" transform="matrix(1.00, 0.00, -0.00, -1.00, 633.3, 632.6)">c</text><text xml:space="preserve" font-family="BodoniSvtyTwoITCTT-Book,Bodoni SvtyTwo ITC TT" font-size="70.0" fill="#D93D2A" transform="matrix(1.00, 0.00, -0.00, -1.00, 661.9, 632.6)">a</text><text xml:space="preserve" font-family="BodoniSvtyTwoITCTT-Book,Bodoni SvtyTwo ITC TT" font-size="70.0" fill="#D93D2A" transform="matrix(1.00, 0.00, -0.00, -1.00, 689.7, 632.6)">b</text><text xml:space="preserve" font-family="BodoniSvtyTwoITCTT-Book,Bodoni SvtyTwo ITC TT" font-size="70.0" fill="#D93D2A" transform="matrix(1.00, 0.00, -0.00, -1.00, 723.4, 632.6)">u</text><text xml:space="preserve" font-family="BodoniSvtyTwoITCTT-Book,Bodoni SvtyTwo ITC TT" font-size="70.0" fill="#D93D2A" transform="matrix(1.00, 0.00, -0.00, -1.00, 757.7, 632.6)">l</text><text xml:space="preserve" font-family="BodoniSvtyTwoITCTT-Book,Bodoni SvtyTwo ITC TT" font-size="70.0" fill="#D93D2A" transform="matrix(1.00, 0.00, -0.00, -1.00, 774.1, 632.6)">a</text><text xml:space="preserve" font-family="BodoniSvtyTwoITCTT-Book,Bodoni SvtyTwo ITC TT" font-size="70.0" fill="#D93D2A" transform="matrix(1.00, 0.00, -0.00, -1.00, 801.9, 632.6)">r</text><text xml:space="preserve" font-family="BodoniSvtyTwoITCTT-Book,Bodoni SvtyTwo ITC TT" font-size="70.0" fill="#D93D2A" transform="matrix(1.00, 0.00, -0.00, -1.00, 825.6, 632.6)">i</text><text xml:space="preserve" font-family="BodoniSvtyTwoITCTT-Book,Bodoni SvtyTwo ITC TT" font-size="70.0" fill="#D93D2A" transform="matrix(1.00, 0.00, -0.00, -1.00, 843.2, 632.6)">e</text><text xml:space="preserve" font-family="BodoniSvtyTwoITCTT-Book,Bodoni SvtyTwo ITC TT" font-size="70.0" fill="#D93D2A" transform="matrix(1.00, 0.00, -0.00, -1.00, 873.3, 632.6)">s</text><text xml:space="preserve" font-family="ZapfDingbatsITC,Zapf Dingbats" font-size="21.4" fill="#919191" transform="matrix(1.00, 0.00, -0.00, -1.00, 44.0, 525.8)">❖</text><text xml:space="preserve" font-family="Palatino-Roman,Palatino" font-size="35.6" fill="#404040" transform="matrix(1.00, 0.00, -0.00, -1.00, 80.6, 519.9)">L</text><text xml:space="preserve" font-family="Palatino-Roman,Palatino" font-size="35.6" fill="#404040" transform="matrix(1.00, 0.00, -0.00, -1.00, 102.4, 519.9)">C</text><text xml:space="preserve" font-family="Palatino-Roman,Palatino" font-size="35.6" fill="#404040" transform="matrix(1.00, 0.00, -0.00, -1.00, 127.7, 519.9)"> </text><text xml:space="preserve" font-family="Palatino-Roman,Palatino" font-size="35.6" fill="#404040" transform="matrix(1.00, 0.00, -0.00, -1.00, 136.6, 519.9)">N</text><text xml:space="preserve" font-family="Palatino-Roman,Palatino" font-size="35.6" fill="#404040" transform="matrix(1.00, 0.00, -0.00, -1.00, 166.2, 519.9)">a</text><text xml:space="preserve" font-family="Palatino-Roman,Palatino" font-size="35.6" fill="#404040" transform="matrix(1.00, 0.00, -0.00, -1.00, 184.0, 519.9)">m</text><text xml:space="preserve" font-family="Palatino-Roman,Palatino" font-size="35.6" fill="#404040" transform="matrix(1.00, 0.00, -0.00, -1.00, 215.5, 519.9)">e</text><text xml:space="preserve" font-family="Palatino-Roman,Palatino" font-size="35.6" fill="#404040" transform="matrix(1.00, 0.00, -0.00, -1.00, 232.5, 519.9)"> </text><text xml:space="preserve" font-family="Palatino-Roman,Palatino" font-size="35.6" fill="#404040" transform="matrix(1.00, 0.00, -0.00, -1.00, 240.1, 519.9)">A</text><text xml:space="preserve" font-family="Palatino-Roman,Palatino" font-size="35.6" fill="#404040" transform="matrix(1.00, 0.00, -0.00, -1.00, 267.9, 519.9)">u</text><text xml:space="preserve" font-family="Palatino-Roman,Palatino" font-size="35.6" fill="#404040" transform="matrix(1.00, 0.00, -0.00, -1.00, 289.4, 519.9)">t</text><text xml:space="preserve" font-family="Palatino-Roman,Palatino" font-size="35.6" fill="#404040" transform="matrix(1.00, 0.00, -0.00, -1.00, 301.0, 519.9)">h</text><text xml:space="preserve" font-family="Palatino-Roman,Palatino" font-size="35.6" fill="#404040" transform="matrix(1.00, 0.00, -0.00, -1.00, 321.7, 519.9)">o</text><text xml:space="preserve" font-family="Palatino-Roman,Palatino" font-size="35.6" fill="#404040" transform="matrix(1.00, 0.00, -0.00, -1.00, 341.2, 519.9)">r</text><text xml:space="preserve" font-family="Palatino-Roman,Palatino" font-size="35.6" fill="#404040" transform="matrix(1.00, 0.00, -0.00, -1.00, 355.3, 519.9)">i</text><text xml:space="preserve" font-family="Palatino-Roman,Palatino" font-size="35.6" fill="#404040" transform="matrix(1.00, 0.00, -0.00, -1.00, 365.6, 519.9)">t</text><text xml:space="preserve" font-family="Palatino-Roman,Palatino" font-size="35.6" fill="#404040" transform="matrix(1.00, 0.00, -0.00, -1.00, 377.3, 519.9)">y</text><text xml:space="preserve" font-family="Palatino-Roman,Palatino" font-size="35.6" fill="#404040" transform="matrix(1.00, 0.00, -0.00, -1.00, 397.1, 519.9)"> </text><text xml:space="preserve" font-family="Palatino-Roman,Palatino" font-size="35.6" fill="#404040" transform="matrix(1.00, 0.00, -0.00, -1.00, 406.0, 519.9)">F</text><text xml:space="preserve" font-family="Palatino-Roman,Palatino" font-size="35.6" fill="#404040" transform="matrix(1.00, 0.00, -0.00, -1.00, 425.8, 519.9)">i</text><text xml:space="preserve" font-family="Palatino-Roman,Palatino" font-size="35.6" fill="#404040" transform="matrix(1.00, 0.00, -0.00, -1.00, 436.2, 519.9)">l</text><text xml:space="preserve" font-family="Palatino-Roman,Palatino" font-size="35.6" fill="#404040" transform="matrix(1.00, 0.00, -0.00, -1.00, 446.6, 519.9)">e</text><text xml:space="preserve" font-family="ZapfDingbatsITC,Zapf Dingbats" font-size="21.4" fill="#919191" transform="matrix(1.00, 0.00, -0.00, -1.00, 81.0, 455.0)">❖</text><text xml:space="preserve" font-family="Palatino-Roman,Palatino" font-size="35.6" fill="#404040" transform="matrix(1.00, 0.00, -0.00, -1.00, 117.6, 449.1)">P</text><text xml:space="preserve" font-family="Palatino-Roman,Palatino" font-size="35.6" fill="#404040" transform="matrix(1.00, 0.00, -0.00, -1.00, 139.2, 449.1)">e</text><text xml:space="preserve" font-family="Palatino-Roman,Palatino" font-size="35.6" fill="#404040" transform="matrix(1.00, 0.00, -0.00, -1.00, 156.2, 449.1)">r</text><text xml:space="preserve" font-family="Palatino-Roman,Palatino" font-size="35.6" fill="#404040" transform="matrix(1.00, 0.00, -0.00, -1.00, 170.3, 449.1)">s</text><text xml:space="preserve" font-family="Palatino-Roman,Palatino" font-size="35.6" fill="#404040" transform="matrix(1.00, 0.00, -0.00, -1.00, 185.4, 449.1)">o</text><text xml:space="preserve" font-family="Palatino-Roman,Palatino" font-size="35.6" fill="#404040" transform="matrix(1.00, 0.00, -0.00, -1.00, 204.9, 449.1)">n</text><text xml:space="preserve" font-family="Palatino-Roman,Palatino" font-size="35.6" fill="#404040" transform="matrix(1.00, 0.00, -0.00, -1.00, 225.6, 449.1)">a</text><text xml:space="preserve" font-family="Palatino-Roman,Palatino" font-size="35.6" fill="#404040" transform="matrix(1.00, 0.00, -0.00, -1.00, 243.4, 449.1)">l</text><text xml:space="preserve" font-family="ZapfDingbatsITC,Zapf Dingbats" font-size="21.4" fill="#919191" transform="matrix(1.00, 0.00, -0.00, -1.00, 81.0, 384.3)">❖</text><text xml:space="preserve" font-family="Palatino-Roman,Palatino" font-size="35.6" fill="#404040" transform="matrix(1.00, 0.00, -0.00, -1.00, 117.6, 378.4)">C</text><text xml:space="preserve" font-family="Palatino-Roman,Palatino" font-size="35.6" fill="#404040" transform="matrix(1.00, 0.00, -0.00, -1.00, 142.9, 378.4)">o</text><text xml:space="preserve" font-family="Palatino-Roman,Palatino" font-size="35.6" fill="#404040" transform="matrix(1.00, 0.00, -0.00, -1.00, 162.4, 378.4)">r</text><text xml:space="preserve" font-family="Palatino-Roman,Palatino" font-size="35.6" fill="#404040" transform="matrix(1.00, 0.00, -0.00, -1.00, 176.4, 378.4)">p</text><text xml:space="preserve" font-family="Palatino-Roman,Palatino" font-size="35.6" fill="#404040" transform="matrix(1.00, 0.00, -0.00, -1.00, 197.9, 378.4)">o</text><text xml:space="preserve" font-family="Palatino-Roman,Palatino" font-size="35.6" fill="#404040" transform="matrix(1.00, 0.00, -0.00, -1.00, 217.3, 378.4)">r</text><text xml:space="preserve" font-family="Palatino-Roman,Palatino" font-size="35.6" fill="#404040" transform="matrix(1.00, 0.00, -0.00, -1.00, 231.4, 378.4)">a</text><text xml:space="preserve" font-family="Palatino-Roman,Palatino" font-size="35.6" fill="#404040" transform="matrix(1.00, 0.00, -0.00, -1.00, 249.2, 378.4)">t</text><text xml:space="preserve" font-family="Palatino-Roman,Palatino" font-size="35.6" fill="#404040" transform="matrix(1.00, 0.00, -0.00, -1.00, 260.8, 378.4)">e</text><text xml:space="preserve" font-family="Palatino-Roman,Palatino" font-size="35.6" fill="#404040" transform="matrix(1.00, 0.00, -0.00, -1.00, 277.9, 378.4)"> </text><text xml:space="preserve" font-family="Palatino-Roman,Palatino" font-size="35.6" fill="#404040" transform="matrix(1.00, 0.00, -0.00, -1.00, 286.8, 378.4)">B</text><text xml:space="preserve" font-family="Palatino-Roman,Palatino" font-size="35.6" fill="#404040" transform="matrix(1.00, 0.00, -0.00, -1.00, 308.6, 378.4)">o</text><text xml:space="preserve" font-family="Palatino-Roman,Palatino" font-size="35.6" fill="#404040" transform="matrix(1.00, 0.00, -0.00, -1.00, 328.0, 378.4)">d</text><text xml:space="preserve" font-family="Palatino-Roman,Palatino" font-size="35.6" fill="#404040" transform="matrix(1.00, 0.00, -0.00, -1.00, 349.8, 378.4)">i</text><text xml:space="preserve" font-family="Palatino-Roman,Palatino" font-size="35.6" fill="#404040" transform="matrix(1.00, 0.00, -0.00, -1.00, 360.2, 378.4)">e</text><text xml:space="preserve" font-family="Palatino-Roman,Palatino" font-size="35.6" fill="#404040" transform="matrix(1.00, 0.00, -0.00, -1.00, 377.2, 378.4)">s</text><text xml:space="preserve" font-family="ZapfDingbatsITC,Zapf Dingbats" font-size="21.4" fill="#919191" transform="matrix(1.00, 0.00, -0.00, -1.00, 81.0, 313.5)">❖</text><text xml:space="preserve" font-family="Palatino-Roman,Palatino" font-size="35.6" fill="#404040" transform="matrix(1.00, 0.00, -0.00, -1.00, 117.6, 307.6)">T</text><text xml:space="preserve" font-family="Palatino-Roman,Palatino" font-size="35.6" fill="#404040" transform="matrix(1.00, 0.00, -0.00, -1.00, 137.5, 307.6)">i</text><text xml:space="preserve" font-family="Palatino-Roman,Palatino" font-size="35.6" fill="#404040" transform="matrix(1.00, 0.00, -0.00, -1.00, 147.9, 307.6)">t</text><text xml:space="preserve" font-family="Palatino-Roman,Palatino" font-size="35.6" fill="#404040" transform="matrix(1.00, 0.00, -0.00, -1.00, 159.5, 307.6)">l</text><text xml:space="preserve" font-family="Palatino-Roman,Palatino" font-size="35.6" fill="#404040" transform="matrix(1.00, 0.00, -0.00, -1.00, 169.9, 307.6)">e</text><text xml:space="preserve" font-family="Palatino-Roman,Palatino" font-size="35.6" fill="#404040" transform="matrix(1.00, 0.00, -0.00, -1.00, 187.0, 307.6)">s</text><text xml:space="preserve" font-family="ZapfDingbatsITC,Zapf Dingbats" font-size="21.4" fill="#919191" transform="matrix(1.00, 0.00, -0.00, -1.00, 44.0, 242.7)">❖</text><text xml:space="preserve" font-family="Palatino-Roman,Palatino" font-size="35.6" fill="#404040" transform="matrix(1.00, 0.00, -0.00, -1.00, 80.6, 236.8)">L</text><text xml:space="preserve" font-family="Palatino-Roman,Palatino" font-size="35.6" fill="#404040" transform="matrix(1.00, 0.00, -0.00, -1.00, 102.4, 236.8)">C</text><text xml:space="preserve" font-family="Palatino-Roman,Palatino" font-size="35.6" fill="#404040" transform="matrix(1.00, 0.00, -0.00, -1.00, 127.7, 236.8)"> </text><text xml:space="preserve" font-family="Palatino-Roman,Palatino" font-size="35.6" fill="#404040" transform="matrix(1.00, 0.00, -0.00, -1.00, 136.6, 236.8)">S</text><text xml:space="preserve" font-family="Palatino-Roman,Palatino" font-size="35.6" fill="#404040" transform="matrix(1.00, 0.00, -0.00, -1.00, 155.3, 236.8)">u</text><text xml:space="preserve" font-family="Palatino-Roman,Palatino" font-size="35.6" fill="#404040" transform="matrix(1.00, 0.00, -0.00, -1.00, 176.8, 236.8)">b</text><text xml:space="preserve" font-family="Palatino-Roman,Palatino" font-size="35.6" fill="#404040" transform="matrix(1.00, 0.00, -0.00, -1.00, 196.5, 236.8)">j</text><text xml:space="preserve" font-family="Palatino-Roman,Palatino" font-size="35.6" fill="#404040" transform="matrix(1.00, 0.00, -0.00, -1.00, 204.8, 236.8)">e</text><text xml:space="preserve" font-family="Palatino-Roman,Palatino" font-size="35.6" fill="#404040" transform="matrix(1.00, 0.00, -0.00, -1.00, 221.9, 236.8)">c</text><text xml:space="preserve" font-family="Palatino-Roman,Palatino" font-size="35.6" fill="#404040" transform="matrix(1.00, 0.00, -0.00, -1.00, 237.7, 236.8)">t</text><text xml:space="preserve" font-family="Palatino-Roman,Palatino" font-size="35.6" fill="#404040" transform="matrix(1.00, 0.00, -0.00, -1.00, 249.3, 236.8)"> </text><text xml:space="preserve" font-family="Palatino-Roman,Palatino" font-size="35.6" fill="#404040" transform="matrix(1.00, 0.00, -0.00, -1.00, 258.2, 236.8)">H</text><text xml:space="preserve" font-family="Palatino-Roman,Palatino" font-size="35.6" fill="#404040" transform="matrix(1.00, 0.00, -0.00, -1.00, 287.9, 236.8)">e</text><text xml:space="preserve" font-family="Palatino-Roman,Palatino" font-size="35.6" fill="#404040" transform="matrix(1.00, 0.00, -0.00, -1.00, 305.0, 236.8)">a</text><text xml:space="preserve" font-family="Palatino-Roman,Palatino" font-size="35.6" fill="#404040" transform="matrix(1.00, 0.00, -0.00, -1.00, 322.8, 236.8)">d</text><text xml:space="preserve" font-family="Palatino-Roman,Palatino" font-size="35.6" fill="#404040" transform="matrix(1.00, 0.00, -0.00, -1.00, 344.6, 236.8)">i</text><text xml:space="preserve" font-family="Palatino-Roman,Palatino" font-size="35.6" fill="#404040" transform="matrix(1.00, 0.00, -0.00, -1.00, 354.9, 236.8)">n</text><text xml:space="preserve" font-family="Palatino-Roman,Palatino" font-size="35.6" fill="#404040" transform="matrix(1.00, 0.00, -0.00, -1.00, 375.7, 236.8)">g</text><text xml:space="preserve" font-family="Palatino-Roman,Palatino" font-size="35.6" fill="#404040" transform="matrix(1.00, 0.00, -0.00, -1.00, 395.5, 236.8)">s</text><text xml:space="preserve" font-family="ZapfDingbatsITC,Zapf Dingbats" font-size="21.4" fill="#919191" transform="matrix(1.00, 0.00, -0.00, -1.00, 81.0, 172.0)">❖</text><text xml:space="preserve" font-family="Palatino-Roman,Palatino" font-size="35.6" fill="#404040" transform="matrix(1.00, 0.00, -0.00, -1.00, 117.6, 166.1)">T</text><text xml:space="preserve" font-family="Palatino-Roman,Palatino" font-size="35.6" fill="#404040" transform="matrix(1.00, 0.00, -0.00, -1.00, 136.2, 166.1)">o</text><text xml:space="preserve" font-family="Palatino-Roman,Palatino" font-size="35.6" fill="#404040" transform="matrix(1.00, 0.00, -0.00, -1.00, 155.6, 166.1)">p</text><text xml:space="preserve" font-family="Palatino-Roman,Palatino" font-size="35.6" fill="#404040" transform="matrix(1.00, 0.00, -0.00, -1.00, 177.1, 166.1)">i</text><text xml:space="preserve" font-family="Palatino-Roman,Palatino" font-size="35.6" fill="#404040" transform="matrix(1.00, 0.00, -0.00, -1.00, 187.4, 166.1)">c</text><text xml:space="preserve" font-family="Palatino-Roman,Palatino" font-size="35.6" fill="#404040" transform="matrix(1.00, 0.00, -0.00, -1.00, 203.3, 166.1)">s</text><text xml:space="preserve" font-family="ZapfDingbatsITC,Zapf Dingbats" font-size="21.4" fill="#919191" transform="matrix(1.00, 0.00, -0.00, -1.00, 81.0, 101.2)">❖</text><text xml:space="preserve" font-family="Palatino-Roman,Palatino" font-size="35.6" fill="#404040" transform="matrix(1.00, 0.00, -0.00, -1.00, 117.6, 95.3)">P</text><text xml:space="preserve" font-family="Palatino-Roman,Palatino" font-size="35.6" fill="#404040" transform="matrix(1.00, 0.00, -0.00, -1.00, 139.2, 95.3)">l</text><text xml:space="preserve" font-family="Palatino-Roman,Palatino" font-size="35.6" fill="#404040" transform="matrix(1.00, 0.00, -0.00, -1.00, 149.5, 95.3)">a</text><text xml:space="preserve" font-family="Palatino-Roman,Palatino" font-size="35.6" fill="#404040" transform="matrix(1.00, 0.00, -0.00, -1.00, 167.3, 95.3)">c</text><text xml:space="preserve" font-family="Palatino-Roman,Palatino" font-size="35.6" fill="#404040" transform="matrix(1.00, 0.00, -0.00, -1.00, 183.2, 95.3)">e</text><text xml:space="preserve" font-family="Palatino-Roman,Palatino" font-size="35.6" fill="#404040" transform="matrix(1.00, 0.00, -0.00, -1.00, 200.2, 95.3)">s</text><text xml:space="preserve" font-family="Palatino-Roman,Palatino" font-size="18.0" fill="#4B4945" transform="matrix(1.00, 0.00, -0.00, -1.00, 502.5, 16.0)">2</text><text xml:space="preserve" font-family="Palatino-Roman,Palatino" font-size="18.0" fill="#4B4945" transform="matrix(1.00, 0.00, -0.00, -1.00, 511.5, 16.0)">2</text></g></svg>