<?xml version="1.0" encoding="UTF-8" standalone="no"?><svg xmlns="http://www.w3.org/2000/svg" xmlns:xlink="http://www.w3.org/1999/xlink" clip-rule="evenodd" stroke-miterlimit="10" viewBox="0 0 1024 768"><desc>SVG generated by Keynote</desc><defs></defs><g transform="matrix(1.00, 0.00, -0.00, -1.00, 0.0, 768.0)"><g><clipPath id="clip0x608000cac2a0"><path d="M 0.0 768.0 L 1024.0 768.0 L 1024.0 0.0 L 0.0 0.0 Z M 0.0 768.0 "></path></clipPath><g clip-path="url(#clip0x608000cac2a0)"><image xlink:href="../../F253DB65-92C6-4850-9693-63CDF5253250/assets/5A8C990C4A4597A5304AC9F14CDA7C87.jpeg" width="2048.00" height="1536.00" transform="matrix(0.50, 0.00, -0.00, -0.50, 0.0, 768.0)"></image></g></g><g opacity="0.30"><g><clipPath id="clip0x600001ea0de0"><path d="M 39.0 382.0 L 488.0 382.0 L 488.0 386.0 L 39.0 386.0 Z M 39.0 382.0 "></path></clipPath><g clip-path="url(#clip0x600001ea0de0)"><path d="M 0.0 0.5 L 447.0 0.5 L 447.0 0.5 L 0.0 0.5 Z M 0.0 0.0 " fill="none" stroke="#434343" stroke-width="1.00" transform="matrix(1.00, 0.00, 0.00, -1.00, 40.0, 384.0)"></path></g></g></g><g opacity="0.30"><g><clipPath id="clip0x600001ea1440"><path d="M 39.0 548.0 L 488.0 548.0 L 488.0 552.0 L 39.0 552.0 Z M 39.0 548.0 "></path></clipPath><g clip-path="url(#clip0x600001ea1440)"><path d="M 0.0 0.5 L 447.0 0.5 L 447.0 0.5 L 0.0 0.5 Z M 0.0 0.0 " fill="none" stroke="#434343" stroke-width="1.00" transform="matrix(1.00, 0.00, 0.00, -1.00, 40.0, 550.0)"></path></g></g></g><text xml:space="preserve" font-family="Palatino-Italic,Palatino" font-style="italic" font-size="24.0" fill="#404040" transform="matrix(1.00, 0.00, -0.00, -1.00, 44.0, 567.7)">I</text><text xml:space="preserve" font-family="Palatino-Italic,Palatino" font-style="italic" font-size="24.0" fill="#404040" transform="matrix(1.00, 0.00, -0.00, -1.00, 52.0, 567.7)">N</text><text xml:space="preserve" font-family="Palatino-Italic,Palatino" font-style="italic" font-size="24.0" fill="#404040" transform="matrix(1.00, 0.00, -0.00, -1.00, 70.7, 567.7)">L</text><text xml:space="preserve" font-family="Palatino-Italic,Palatino" font-style="italic" font-size="24.0" fill="#404040" transform="matrix(1.00, 0.00, -0.00, -1.00, 84.0, 567.7)">S</text><text xml:space="preserve" font-family="Palatino-Italic,Palatino" font-style="italic" font-size="24.0" fill="#404040" transform="matrix(1.00, 0.00, -0.00, -1.00, 97.4, 567.7)"> </text><text xml:space="preserve" font-family="Palatino-Italic,Palatino" font-style="italic" font-size="24.0" fill="#404040" transform="matrix(1.00, 0.00, -0.00, -1.00, 103.4, 567.7)">5</text><text xml:space="preserve" font-family="Palatino-Italic,Palatino" font-style="italic" font-size="24.0" fill="#404040" transform="matrix(1.00, 0.00, -0.00, -1.00, 115.4, 567.7)">2</text><text xml:space="preserve" font-family="Palatino-Italic,Palatino" font-style="italic" font-size="24.0" fill="#404040" transform="matrix(1.00, 0.00, -0.00, -1.00, 127.4, 567.7)">0</text><text xml:space="preserve" font-family="Palatino-Italic,Palatino" font-style="italic" font-size="24.0" fill="#404040" transform="matrix(1.00, 0.00, -0.00, -1.00, 139.4, 567.7)">:</text><text xml:space="preserve" font-family="Palatino-Italic,Palatino" font-style="italic" font-size="24.0" fill="#404040" transform="matrix(1.00, 0.00, -0.00, -1.00, 145.4, 567.7)"> </text><text xml:space="preserve" font-family="Palatino-Italic,Palatino" font-style="italic" font-size="24.0" fill="#404040" transform="matrix(1.00, 0.00, -0.00, -1.00, 151.4, 567.7)">O</text><text xml:space="preserve" font-family="Palatino-Italic,Palatino" font-style="italic" font-size="24.0" fill="#404040" transform="matrix(1.00, 0.00, -0.00, -1.00, 170.0, 567.7)">r</text><text xml:space="preserve" font-family="Palatino-Italic,Palatino" font-style="italic" font-size="24.0" fill="#404040" transform="matrix(1.00, 0.00, -0.00, -1.00, 178.9, 567.7)">g</text><text xml:space="preserve" font-family="Palatino-Italic,Palatino" font-style="italic" font-size="24.0" fill="#404040" transform="matrix(1.00, 0.00, -0.00, -1.00, 190.9, 567.7)">a</text><text xml:space="preserve" font-family="Palatino-Italic,Palatino" font-style="italic" font-size="24.0" fill="#404040" transform="matrix(1.00, 0.00, -0.00, -1.00, 201.6, 567.7)">n</text><text xml:space="preserve" font-family="Palatino-Italic,Palatino" font-style="italic" font-size="24.0" fill="#404040" transform="matrix(1.00, 0.00, -0.00, -1.00, 214.9, 567.7)">i</text><text xml:space="preserve" font-family="Palatino-Italic,Palatino" font-style="italic" font-size="24.0" fill="#404040" transform="matrix(1.00, 0.00, -0.00, -1.00, 221.6, 567.7)">z</text><text xml:space="preserve" font-family="Palatino-Italic,Palatino" font-style="italic" font-size="24.0" fill="#404040" transform="matrix(1.00, 0.00, -0.00, -1.00, 232.3, 567.7)">a</text><text xml:space="preserve" font-family="Palatino-Italic,Palatino" font-style="italic" font-size="24.0" fill="#404040" transform="matrix(1.00, 0.00, -0.00, -1.00, 242.9, 567.7)">t</text><text xml:space="preserve" font-family="Palatino-Italic,Palatino" font-style="italic" font-size="24.0" fill="#404040" transform="matrix(1.00, 0.00, -0.00, -1.00, 250.9, 567.7)">i</text><text xml:space="preserve" font-family="Palatino-Italic,Palatino" font-style="italic" font-size="24.0" fill="#404040" transform="matrix(1.00, 0.00, -0.00, -1.00, 257.6, 567.7)">o</text><text xml:space="preserve" font-family="Palatino-Italic,Palatino" font-style="italic" font-size="24.0" fill="#404040" transform="matrix(1.00, 0.00, -0.00, -1.00, 268.2, 567.7)">n</text><text xml:space="preserve" font-family="Palatino-Italic,Palatino" font-style="italic" font-size="24.0" fill="#404040" transform="matrix(1.00, 0.00, -0.00, -1.00, 281.6, 567.7)"> </text><text xml:space="preserve" font-family="Palatino-Italic,Palatino" font-style="italic" font-size="24.0" fill="#404040" transform="matrix(1.00, 0.00, -0.00, -1.00, 287.6, 567.7)">o</text><text xml:space="preserve" font-family="Palatino-Italic,Palatino" font-style="italic" font-size="24.0" fill="#404040" transform="matrix(1.00, 0.00, -0.00, -1.00, 298.2, 567.7)">f</text><text xml:space="preserve" font-family="Palatino-Italic,Palatino" font-style="italic" font-size="24.0" fill="#404040" transform="matrix(1.00, 0.00, -0.00, -1.00, 304.9, 567.7)"> </text><text xml:space="preserve" font-family="Palatino-Italic,Palatino" font-style="italic" font-size="24.0" fill="#404040" transform="matrix(1.00, 0.00, -0.00, -1.00, 310.9, 567.7)">I</text><text xml:space="preserve" font-family="Palatino-Italic,Palatino" font-style="italic" font-size="24.0" fill="#404040" transform="matrix(1.00, 0.00, -0.00, -1.00, 318.9, 567.7)">n</text><text xml:space="preserve" font-family="Palatino-Italic,Palatino" font-style="italic" font-size="24.0" fill="#404040" transform="matrix(1.00, 0.00, -0.00, -1.00, 332.2, 567.7)">f</text><text xml:space="preserve" font-family="Palatino-Italic,Palatino" font-style="italic" font-size="24.0" fill="#404040" transform="matrix(1.00, 0.00, -0.00, -1.00, 338.9, 567.7)">o</text><text xml:space="preserve" font-family="Palatino-Italic,Palatino" font-style="italic" font-size="24.0" fill="#404040" transform="matrix(1.00, 0.00, -0.00, -1.00, 349.5, 567.7)">r</text><text xml:space="preserve" font-family="Palatino-Italic,Palatino" font-style="italic" font-size="24.0" fill="#404040" transform="matrix(1.00, 0.00, -0.00, -1.00, 358.9, 567.7)">m</text><text xml:space="preserve" font-family="Palatino-Italic,Palatino" font-style="italic" font-size="24.0" fill="#404040" transform="matrix(1.00, 0.00, -0.00, -1.00, 377.5, 567.7)">a</text><text xml:space="preserve" font-family="Palatino-Italic,Palatino" font-style="italic" font-size="24.0" fill="#404040" transform="matrix(1.00, 0.00, -0.00, -1.00, 388.2, 567.7)">t</text><text xml:space="preserve" font-family="Palatino-Italic,Palatino" font-style="italic" font-size="24.0" fill="#404040" transform="matrix(1.00, 0.00, -0.00, -1.00, 396.2, 567.7)">i</text><text xml:space="preserve" font-family="Palatino-Italic,Palatino" font-style="italic" font-size="24.0" fill="#404040" transform="matrix(1.00, 0.00, -0.00, -1.00, 402.8, 567.7)">o</text><text xml:space="preserve" font-family="Palatino-Italic,Palatino" font-style="italic" font-size="24.0" fill="#404040" transform="matrix(1.00, 0.00, -0.00, -1.00, 413.5, 567.7)">n</text><g><clipPath id="clip0x600001ea24c0"><path d="M 565.0 717.0 L 949.0 717.0 L 949.0 144.0 L 565.0 144.0 Z M 564.6 717.0 "></path></clipPath><g clip-path="url(#clip0x600001ea24c0)"><image xlink:href="../../8D54560D-212F-45C9-8CED-FFA3D929D8B3/assets/DA8D269CC543DB6F3505F46049048B9B.png" width="1629.00" height="1148.00" transform="matrix(0.50, 0.00, -0.00, -0.50, 350.3, 717.0)"></image></g></g><image xlink:href="../../8D54560D-212F-45C9-8CED-FFA3D929D8B3/assets/951D4EE0BBBB00AF4B80CE5FB1E33A1A.png" width="404.00" height="599.00" transform="matrix(1.00, 0.00, -0.00, 1.00, 554.6, 124.8)"></image><text xml:space="preserve" font-family="BodoniSvtyTwoITCTT-Book,Bodoni SvtyTwo ITC TT" font-size="56.0" fill="#D93D2A" transform="matrix(1.00, 0.00, -0.00, -1.00, 44.0, 447.9)">Q</text><text xml:space="preserve" font-family="BodoniSvtyTwoITCTT-Book,Bodoni SvtyTwo ITC TT" font-size="56.0" fill="#D93D2A" transform="matrix(1.00, 0.00, -0.00, -1.00, 84.4, 447.9)">u</text><text xml:space="preserve" font-family="BodoniSvtyTwoITCTT-Book,Bodoni SvtyTwo ITC TT" font-size="56.0" fill="#D93D2A" transform="matrix(1.00, 0.00, -0.00, -1.00, 111.9, 447.9)">e</text><text xml:space="preserve" font-family="BodoniSvtyTwoITCTT-Book,Bodoni SvtyTwo ITC TT" font-size="56.0" fill="#D93D2A" transform="matrix(1.00, 0.00, -0.00, -1.00, 136.0, 447.9)">s</text><text xml:space="preserve" font-family="BodoniSvtyTwoITCTT-Book,Bodoni SvtyTwo ITC TT" font-size="56.0" fill="#D93D2A" transform="matrix(1.00, 0.00, -0.00, -1.00, 156.2, 447.9)">t</text><text xml:space="preserve" font-family="BodoniSvtyTwoITCTT-Book,Bodoni SvtyTwo ITC TT" font-size="56.0" fill="#D93D2A" transform="matrix(1.00, 0.00, -0.00, -1.00, 172.1, 447.9)">i</text><text xml:space="preserve" font-family="BodoniSvtyTwoITCTT-Book,Bodoni SvtyTwo ITC TT" font-size="56.0" fill="#D93D2A" transform="matrix(1.00, 0.00, -0.00, -1.00, 186.2, 447.9)">o</text><text xml:space="preserve" font-family="BodoniSvtyTwoITCTT-Book,Bodoni SvtyTwo ITC TT" font-size="56.0" fill="#D93D2A" transform="matrix(1.00, 0.00, -0.00, -1.00, 213.1, 447.9)">n</text><text xml:space="preserve" font-family="BodoniSvtyTwoITCTT-Book,Bodoni SvtyTwo ITC TT" font-size="56.0" fill="#D93D2A" transform="matrix(1.00, 0.00, -0.00, -1.00, 240.4, 447.9)">s</text><text xml:space="preserve" font-family="BodoniSvtyTwoITCTT-Book,Bodoni SvtyTwo ITC TT" font-size="56.0" fill="#D93D2A" transform="matrix(1.00, 0.00, -0.00, -1.00, 260.7, 447.9)">?</text><text xml:space="preserve" font-family="Palatino-Roman,Palatino" font-size="24.0" fill="#404040" transform="matrix(1.00, 0.00, -0.00, -1.00, 44.0, 342.7)">S</text><text xml:space="preserve" font-family="Palatino-Roman,Palatino" font-size="24.0" fill="#404040" transform="matrix(1.00, 0.00, -0.00, -1.00, 56.6, 342.7)">e</text><text xml:space="preserve" font-family="Palatino-Roman,Palatino" font-size="24.0" fill="#404040" transform="matrix(1.00, 0.00, -0.00, -1.00, 68.1, 342.7)">a</text><text xml:space="preserve" font-family="Palatino-Roman,Palatino" font-size="24.0" fill="#404040" transform="matrix(1.00, 0.00, -0.00, -1.00, 80.1, 342.7)">n</text><text xml:space="preserve" font-family="Palatino-Roman,Palatino" font-size="24.0" fill="#404040" transform="matrix(1.00, 0.00, -0.00, -1.00, 94.1, 342.7)"> </text><text xml:space="preserve" font-family="Palatino-Roman,Palatino" font-size="24.0" fill="#404040" transform="matrix(1.00, 0.00, -0.00, -1.00, 100.1, 342.7)">C</text><text xml:space="preserve" font-family="Palatino-Roman,Palatino" font-size="24.0" fill="#404040" transform="matrix(1.00, 0.00, -0.00, -1.00, 117.1, 342.7)">h</text><text xml:space="preserve" font-family="Palatino-Roman,Palatino" font-size="24.0" fill="#404040" transform="matrix(1.00, 0.00, -0.00, -1.00, 131.0, 342.7)">e</text><text xml:space="preserve" font-family="Palatino-Roman,Palatino" font-size="24.0" fill="#404040" transform="matrix(1.00, 0.00, -0.00, -1.00, 142.5, 342.7)">n</text><text xml:space="preserve" font-family="Palatino-Roman,Palatino" font-size="24.0" fill="#404040" transform="matrix(1.00, 0.00, -0.00, -1.00, 44.0, 310.7)">s</text><text xml:space="preserve" font-family="Palatino-Roman,Palatino" font-size="24.0" fill="#404040" transform="matrix(1.00, 0.00, -0.00, -1.00, 54.2, 310.7)">c</text><text xml:space="preserve" font-family="Palatino-Roman,Palatino" font-size="24.0" fill="#404040" transform="matrix(1.00, 0.00, -0.00, -1.00, 64.8, 310.7)">h</text><text xml:space="preserve" font-family="Palatino-Roman,Palatino" font-size="24.0" fill="#404040" transform="matrix(1.00, 0.00, -0.00, -1.00, 78.8, 310.7)">e</text><text xml:space="preserve" font-family="Palatino-Roman,Palatino" font-size="24.0" fill="#404040" transform="matrix(1.00, 0.00, -0.00, -1.00, 90.3, 310.7)">n</text><text xml:space="preserve" font-family="Palatino-Roman,Palatino" font-size="24.0" fill="#404040" transform="matrix(1.00, 0.00, -0.00, -1.00, 104.2, 310.7)">@</text><text xml:space="preserve" font-family="Palatino-Roman,Palatino" font-size="24.0" fill="#404040" transform="matrix(1.00, 0.00, -0.00, -1.00, 122.2, 310.7)">l</text><text xml:space="preserve" font-family="Palatino-Roman,Palatino" font-size="24.0" fill="#404040" transform="matrix(1.00, 0.00, -0.00, -1.00, 129.2, 310.7)">a</text><text xml:space="preserve" font-family="Palatino-Roman,Palatino" font-size="24.0" fill="#404040" transform="matrix(1.00, 0.00, -0.00, -1.00, 141.2, 310.7)">w</text><text xml:space="preserve" font-family="Palatino-Roman,Palatino" font-size="24.0" fill="#404040" transform="matrix(1.00, 0.00, -0.00, -1.00, 159.0, 310.7)">.</text><text xml:space="preserve" font-family="Palatino-Roman,Palatino" font-size="24.0" fill="#404040" transform="matrix(1.00, 0.00, -0.00, -1.00, 165.0, 310.7)">d</text><text xml:space="preserve" font-family="Palatino-Roman,Palatino" font-size="24.0" fill="#404040" transform="matrix(1.00, 0.00, -0.00, -1.00, 179.6, 310.7)">u</text><text xml:space="preserve" font-family="Palatino-Roman,Palatino" font-size="24.0" fill="#404040" transform="matrix(1.00, 0.00, -0.00, -1.00, 194.1, 310.7)">k</text><text xml:space="preserve" font-family="Palatino-Roman,Palatino" font-size="24.0" fill="#404040" transform="matrix(1.00, 0.00, -0.00, -1.00, 207.5, 310.7)">e</text><text xml:space="preserve" font-family="Palatino-Roman,Palatino" font-size="24.0" fill="#404040" transform="matrix(1.00, 0.00, -0.00, -1.00, 219.0, 310.7)">.</text><text xml:space="preserve" font-family="Palatino-Roman,Palatino" font-size="24.0" fill="#404040" transform="matrix(1.00, 0.00, -0.00, -1.00, 225.0, 310.7)">e</text><text xml:space="preserve" font-family="Palatino-Roman,Palatino" font-size="24.0" fill="#404040" transform="matrix(1.00, 0.00, -0.00, -1.00, 236.4, 310.7)">d</text><text xml:space="preserve" font-family="Palatino-Roman,Palatino" font-size="24.0" fill="#404040" transform="matrix(1.00, 0.00, -0.00, -1.00, 251.1, 310.7)">u</text><g><clipPath id="clip0x600001ea3660"><path d="M 43.0 306.5 L 265.6 306.5 L 265.6 309.9 L 43.0 309.9 Z M 43.0 306.5 "></path></clipPath><g clip-path="url(#clip0x600001ea3660)"><path d="M 4.0 63.8 L 225.6 63.8 " fill="none" stroke="#404040" stroke-width="1.41" transform="matrix(1.00, 0.00, 0.00, -1.00, 40.0, 372.0)"></path></g></g><text xml:space="preserve" font-family="Palatino-Roman,Palatino" font-size="18.0" fill="#404040" transform="matrix(1.00, 0.00, -0.00, -1.00, 44.0, 267.0)">h</text><text xml:space="preserve" font-family="Palatino-Roman,Palatino" font-size="18.0" fill="#404040" transform="matrix(1.00, 0.00, -0.00, -1.00, 54.5, 267.0)">t</text><text xml:space="preserve" font-family="Palatino-Roman,Palatino" font-size="18.0" fill="#404040" transform="matrix(1.00, 0.00, -0.00, -1.00, 60.4, 267.0)">t</text><text xml:space="preserve" font-family="Palatino-Roman,Palatino" font-size="18.0" fill="#404040" transform="matrix(1.00, 0.00, -0.00, -1.00, 66.2, 267.0)">p</text><text xml:space="preserve" font-family="Palatino-Roman,Palatino" font-size="18.0" fill="#404040" transform="matrix(1.00, 0.00, -0.00, -1.00, 77.0, 267.0)">:</text><text xml:space="preserve" font-family="Palatino-Roman,Palatino" font-size="18.0" fill="#404040" transform="matrix(1.00, 0.00, -0.00, -1.00, 81.5, 267.0)">/</text><text xml:space="preserve" font-family="Palatino-Roman,Palatino" font-size="18.0" fill="#404040" transform="matrix(1.00, 0.00, -0.00, -1.00, 92.5, 267.0)">/</text><text xml:space="preserve" font-family="Palatino-Roman,Palatino" font-size="18.0" fill="#404040" transform="matrix(1.00, 0.00, -0.00, -1.00, 103.4, 267.0)">g</text><text xml:space="preserve" font-family="Palatino-Roman,Palatino" font-size="18.0" fill="#404040" transform="matrix(1.00, 0.00, -0.00, -1.00, 113.4, 267.0)">u</text><text xml:space="preserve" font-family="Palatino-Roman,Palatino" font-size="18.0" fill="#404040" transform="matrix(1.00, 0.00, -0.00, -1.00, 124.2, 267.0)">g</text><text xml:space="preserve" font-family="Palatino-Roman,Palatino" font-size="18.0" fill="#404040" transform="matrix(1.00, 0.00, -0.00, -1.00, 134.2, 267.0)">e</text><text xml:space="preserve" font-family="Palatino-Roman,Palatino" font-size="18.0" fill="#404040" transform="matrix(1.00, 0.00, -0.00, -1.00, 142.9, 267.0)">k</text><text xml:space="preserve" font-family="Palatino-Roman,Palatino" font-size="18.0" fill="#404040" transform="matrix(1.00, 0.00, -0.00, -1.00, 152.9, 267.0)">.</text><text xml:space="preserve" font-family="Palatino-Roman,Palatino" font-size="18.0" fill="#404040" transform="matrix(1.00, 0.00, -0.00, -1.00, 157.4, 267.0)">g</text><text xml:space="preserve" font-family="Palatino-Roman,Palatino" font-size="18.0" fill="#404040" transform="matrix(1.00, 0.00, -0.00, -1.00, 167.4, 267.0)">i</text><text xml:space="preserve" font-family="Palatino-Roman,Palatino" font-size="18.0" fill="#404040" transform="matrix(1.00, 0.00, -0.00, -1.00, 172.6, 267.0)">t</text><text xml:space="preserve" font-family="Palatino-Roman,Palatino" font-size="18.0" fill="#404040" transform="matrix(1.00, 0.00, -0.00, -1.00, 178.5, 267.0)">h</text><text xml:space="preserve" font-family="Palatino-Roman,Palatino" font-size="18.0" fill="#404040" transform="matrix(1.00, 0.00, -0.00, -1.00, 189.0, 267.0)">u</text><text xml:space="preserve" font-family="Palatino-Roman,Palatino" font-size="18.0" fill="#404040" transform="matrix(1.00, 0.00, -0.00, -1.00, 199.8, 267.0)">b</text><text xml:space="preserve" font-family="Palatino-Roman,Palatino" font-size="18.0" fill="#404040" transform="matrix(1.00, 0.00, -0.00, -1.00, 209.8, 267.0)">.</text><text xml:space="preserve" font-family="Palatino-Roman,Palatino" font-size="18.0" fill="#404040" transform="matrix(1.00, 0.00, -0.00, -1.00, 214.3, 267.0)">i</text><text xml:space="preserve" font-family="Palatino-Roman,Palatino" font-size="18.0" fill="#404040" transform="matrix(1.00, 0.00, -0.00, -1.00, 219.5, 267.0)">o</text><text xml:space="preserve" font-family="Palatino-Roman,Palatino" font-size="18.0" fill="#404040" transform="matrix(1.00, 0.00, -0.00, -1.00, 229.4, 267.0)">/</text><text xml:space="preserve" font-family="Palatino-Roman,Palatino" font-size="18.0" fill="#404040" transform="matrix(1.00, 0.00, -0.00, -1.00, 240.3, 267.0)">i</text><text xml:space="preserve" font-family="Palatino-Roman,Palatino" font-size="18.0" fill="#404040" transform="matrix(1.00, 0.00, -0.00, -1.00, 245.5, 267.0)">n</text><text xml:space="preserve" font-family="Palatino-Roman,Palatino" font-size="18.0" fill="#404040" transform="matrix(1.00, 0.00, -0.00, -1.00, 256.0, 267.0)">l</text><text xml:space="preserve" font-family="Palatino-Roman,Palatino" font-size="18.0" fill="#404040" transform="matrix(1.00, 0.00, -0.00, -1.00, 261.2, 267.0)">s</text><text xml:space="preserve" font-family="Palatino-Roman,Palatino" font-size="18.0" fill="#404040" transform="matrix(1.00, 0.00, -0.00, -1.00, 268.8, 267.0)">5</text><text xml:space="preserve" font-family="Palatino-Roman,Palatino" font-size="18.0" fill="#404040" transform="matrix(1.00, 0.00, -0.00, -1.00, 277.8, 267.0)">2</text><text xml:space="preserve" font-family="Palatino-Roman,Palatino" font-size="18.0" fill="#404040" transform="matrix(1.00, 0.00, -0.00, -1.00, 286.8, 267.0)">0</text><text xml:space="preserve" font-family="Palatino-Roman,Palatino" font-size="18.0" fill="#404040" transform="matrix(1.00, 0.00, -0.00, -1.00, 295.8, 267.0)">/</text><text xml:space="preserve" font-family="Palatino-Roman,Palatino" font-size="18.0" fill="#404040" transform="matrix(1.00, 0.00, -0.00, -1.00, 306.8, 267.0)">c</text><text xml:space="preserve" font-family="Palatino-Roman,Palatino" font-size="18.0" fill="#404040" transform="matrix(1.00, 0.00, -0.00, -1.00, 314.7, 267.0)">a</text><text xml:space="preserve" font-family="Palatino-Roman,Palatino" font-size="18.0" fill="#404040" transform="matrix(1.00, 0.00, -0.00, -1.00, 323.7, 267.0)">t</text><text xml:space="preserve" font-family="Palatino-Roman,Palatino" font-size="18.0" fill="#404040" transform="matrix(1.00, 0.00, -0.00, -1.00, 329.6, 267.0)">a</text><text xml:space="preserve" font-family="Palatino-Roman,Palatino" font-size="18.0" fill="#404040" transform="matrix(1.00, 0.00, -0.00, -1.00, 338.6, 267.0)">l</text><text xml:space="preserve" font-family="Palatino-Roman,Palatino" font-size="18.0" fill="#404040" transform="matrix(1.00, 0.00, -0.00, -1.00, 343.9, 267.0)">o</text><text xml:space="preserve" font-family="Palatino-Roman,Palatino" font-size="18.0" fill="#404040" transform="matrix(1.00, 0.00, -0.00, -1.00, 353.7, 267.0)">g</text><text xml:space="preserve" font-family="Palatino-Roman,Palatino" font-size="18.0" fill="#404040" transform="matrix(1.00, 0.00, -0.00, -1.00, 363.7, 267.0)">i</text><text xml:space="preserve" font-family="Palatino-Roman,Palatino" font-size="18.0" fill="#404040" transform="matrix(1.00, 0.00, -0.00, -1.00, 368.9, 267.0)">n</text><text xml:space="preserve" font-family="Palatino-Roman,Palatino" font-size="18.0" fill="#404040" transform="matrix(1.00, 0.00, -0.00, -1.00, 379.4, 267.0)">g</text><text xml:space="preserve" font-family="Palatino-Roman,Palatino" font-size="18.0" fill="#404040" transform="matrix(1.00, 0.00, -0.00, -1.00, 389.4, 267.0)">_</text><text xml:space="preserve" font-family="Palatino-Roman,Palatino" font-size="18.0" fill="#404040" transform="matrix(1.00, 0.00, -0.00, -1.00, 398.4, 267.0)">o</text><text xml:space="preserve" font-family="Palatino-Roman,Palatino" font-size="18.0" fill="#404040" transform="matrix(1.00, 0.00, -0.00, -1.00, 408.2, 267.0)">v</text><text xml:space="preserve" font-family="Palatino-Roman,Palatino" font-size="18.0" fill="#404040" transform="matrix(1.00, 0.00, -0.00, -1.00, 418.4, 267.0)">e</text><text xml:space="preserve" font-family="Palatino-Roman,Palatino" font-size="18.0" fill="#404040" transform="matrix(1.00, 0.00, -0.00, -1.00, 427.0, 267.0)">r</text><text xml:space="preserve" font-family="Palatino-Roman,Palatino" font-size="18.0" fill="#404040" transform="matrix(1.00, 0.00, -0.00, -1.00, 434.1, 267.0)">v</text><text xml:space="preserve" font-family="Palatino-Roman,Palatino" font-size="18.0" fill="#404040" transform="matrix(1.00, 0.00, -0.00, -1.00, 444.3, 267.0)">i</text><text xml:space="preserve" font-family="Palatino-Roman,Palatino" font-size="18.0" fill="#404040" transform="matrix(1.00, 0.00, -0.00, -1.00, 449.6, 267.0)">e</text><text xml:space="preserve" font-family="Palatino-Roman,Palatino" font-size="18.0" fill="#404040" transform="matrix(1.00, 0.00, -0.00, -1.00, 458.2, 267.0)">w</text><g><clipPath id="clip0x600001ea4bc0"><path d="M 43.0 263.6 L 473.2 263.6 L 473.2 266.7 L 43.0 266.7 Z M 43.0 263.6 "></path></clipPath><g clip-path="url(#clip0x600001ea4bc0)"><path d="M 4.0 106.8 L 433.2 106.8 " fill="none" stroke="#404040" stroke-width="1.05" transform="matrix(1.00, 0.00, 0.00, -1.00, 40.0, 372.0)"></path></g></g><text xml:space="preserve" font-family="Palatino-Roman,Palatino" font-size="12.0" fill="#404040" transform="matrix(1.00, 0.00, -0.00, -1.00, 602.4, 92.3)">C</text><text xml:space="preserve" font-family="Palatino-Roman,Palatino" font-size="12.0" fill="#404040" transform="matrix(1.00, 0.00, -0.00, -1.00, 610.9, 92.3)">a</text><text xml:space="preserve" font-family="Palatino-Roman,Palatino" font-size="12.0" fill="#404040" transform="matrix(1.00, 0.00, -0.00, -1.00, 616.9, 92.3)">r</text><text xml:space="preserve" font-family="Palatino-Roman,Palatino" font-size="12.0" fill="#404040" transform="matrix(1.00, 0.00, -0.00, -1.00, 621.4, 92.3)">d</text><text xml:space="preserve" font-family="Palatino-Roman,Palatino" font-size="12.0" fill="#404040" transform="matrix(1.00, 0.00, -0.00, -1.00, 628.7, 92.3)"> </text><text xml:space="preserve" font-family="Palatino-Roman,Palatino" font-size="12.0" fill="#404040" transform="matrix(1.00, 0.00, -0.00, -1.00, 631.7, 92.3)">C</text><text xml:space="preserve" font-family="Palatino-Roman,Palatino" font-size="12.0" fill="#404040" transform="matrix(1.00, 0.00, -0.00, -1.00, 640.2, 92.3)">a</text><text xml:space="preserve" font-family="Palatino-Roman,Palatino" font-size="12.0" fill="#404040" transform="matrix(1.00, 0.00, -0.00, -1.00, 646.2, 92.3)">t</text><text xml:space="preserve" font-family="Palatino-Roman,Palatino" font-size="12.0" fill="#404040" transform="matrix(1.00, 0.00, -0.00, -1.00, 650.1, 92.3)">a</text><text xml:space="preserve" font-family="Palatino-Roman,Palatino" font-size="12.0" fill="#404040" transform="matrix(1.00, 0.00, -0.00, -1.00, 656.1, 92.3)">l</text><text xml:space="preserve" font-family="Palatino-Roman,Palatino" font-size="12.0" fill="#404040" transform="matrix(1.00, 0.00, -0.00, -1.00, 659.6, 92.3)">o</text><text xml:space="preserve" font-family="Palatino-Roman,Palatino" font-size="12.0" fill="#404040" transform="matrix(1.00, 0.00, -0.00, -1.00, 666.2, 92.3)">g</text><text xml:space="preserve" font-family="Palatino-Roman,Palatino" font-size="12.0" fill="#404040" transform="matrix(1.00, 0.00, -0.00, -1.00, 672.9, 92.3)">s</text><text xml:space="preserve" font-family="Palatino-Roman,Palatino" font-size="12.0" fill="#404040" transform="matrix(1.00, 0.00, -0.00, -1.00, 677.9, 92.3)"> </text><text xml:space="preserve" font-family="Palatino-Roman,Palatino" font-size="12.0" fill="#404040" transform="matrix(1.00, 0.00, -0.00, -1.00, 680.9, 92.3)">b</text><text xml:space="preserve" font-family="Palatino-Roman,Palatino" font-size="12.0" fill="#404040" transform="matrix(1.00, 0.00, -0.00, -1.00, 687.6, 92.3)">y</text><text xml:space="preserve" font-family="Palatino-Roman,Palatino" font-size="12.0" fill="#404040" transform="matrix(1.00, 0.00, -0.00, -1.00, 694.3, 92.3)"> </text><text xml:space="preserve" font-family="Palatino-Roman,Palatino" font-size="12.0" fill="#404040" transform="matrix(1.00, 0.00, -0.00, -1.00, 697.3, 92.3)">k</text><text xml:space="preserve" font-family="Palatino-Roman,Palatino" font-size="12.0" fill="#404040" transform="matrix(1.00, 0.00, -0.00, -1.00, 703.9, 92.3)">e</text><text xml:space="preserve" font-family="Palatino-Roman,Palatino" font-size="12.0" fill="#404040" transform="matrix(1.00, 0.00, -0.00, -1.00, 709.7, 92.3)">v</text><text xml:space="preserve" font-family="Palatino-Roman,Palatino" font-size="12.0" fill="#404040" transform="matrix(1.00, 0.00, -0.00, -1.00, 716.5, 92.3)">h</text><text xml:space="preserve" font-family="Palatino-Roman,Palatino" font-size="12.0" fill="#404040" transform="matrix(1.00, 0.00, -0.00, -1.00, 723.4, 92.3)">a</text><text xml:space="preserve" font-family="Palatino-Roman,Palatino" font-size="12.0" fill="#404040" transform="matrix(1.00, 0.00, -0.00, -1.00, 729.4, 92.3)">r</text><text xml:space="preserve" font-family="Palatino-Roman,Palatino" font-size="12.0" fill="#404040" transform="matrix(1.00, 0.00, -0.00, -1.00, 734.2, 92.3)">b</text><text xml:space="preserve" font-family="Palatino-Roman,Palatino" font-size="12.0" fill="#404040" transform="matrix(1.00, 0.00, -0.00, -1.00, 740.8, 92.3)"> </text><text xml:space="preserve" font-family="Palatino-Roman,Palatino" font-size="12.0" fill="#404040" transform="matrix(1.00, 0.00, -0.00, -1.00, 743.8, 92.3)">i</text><text xml:space="preserve" font-family="Palatino-Roman,Palatino" font-size="12.0" fill="#404040" transform="matrix(1.00, 0.00, -0.00, -1.00, 747.3, 92.3)">s</text><text xml:space="preserve" font-family="Palatino-Roman,Palatino" font-size="12.0" fill="#404040" transform="matrix(1.00, 0.00, -0.00, -1.00, 752.4, 92.3)"> </text><text xml:space="preserve" font-family="Palatino-Roman,Palatino" font-size="12.0" fill="#404040" transform="matrix(1.00, 0.00, -0.00, -1.00, 755.4, 92.3)">l</text><text xml:space="preserve" font-family="Palatino-Roman,Palatino" font-size="12.0" fill="#404040" transform="matrix(1.00, 0.00, -0.00, -1.00, 758.9, 92.3)">i</text><text xml:space="preserve" font-family="Palatino-Roman,Palatino" font-size="12.0" fill="#404040" transform="matrix(1.00, 0.00, -0.00, -1.00, 762.4, 92.3)">c</text><text xml:space="preserve" font-family="Palatino-Roman,Palatino" font-size="12.0" fill="#404040" transform="matrix(1.00, 0.00, -0.00, -1.00, 767.7, 92.3)">e</text><text xml:space="preserve" font-family="Palatino-Roman,Palatino" font-size="12.0" fill="#404040" transform="matrix(1.00, 0.00, -0.00, -1.00, 773.5, 92.3)">n</text><text xml:space="preserve" font-family="Palatino-Roman,Palatino" font-size="12.0" fill="#404040" transform="matrix(1.00, 0.00, -0.00, -1.00, 780.4, 92.3)">s</text><text xml:space="preserve" font-family="Palatino-Roman,Palatino" font-size="12.0" fill="#404040" transform="matrix(1.00, 0.00, -0.00, -1.00, 785.5, 92.3)">e</text><text xml:space="preserve" font-family="Palatino-Roman,Palatino" font-size="12.0" fill="#404040" transform="matrix(1.00, 0.00, -0.00, -1.00, 791.3, 92.3)">d</text><text xml:space="preserve" font-family="Palatino-Roman,Palatino" font-size="12.0" fill="#404040" transform="matrix(1.00, 0.00, -0.00, -1.00, 798.6, 92.3)"> </text><text xml:space="preserve" font-family="Palatino-Roman,Palatino" font-size="12.0" fill="#404040" transform="matrix(1.00, 0.00, -0.00, -1.00, 801.6, 92.3)">u</text><text xml:space="preserve" font-family="Palatino-Roman,Palatino" font-size="12.0" fill="#404040" transform="matrix(1.00, 0.00, -0.00, -1.00, 808.8, 92.3)">n</text><text xml:space="preserve" font-family="Palatino-Roman,Palatino" font-size="12.0" fill="#404040" transform="matrix(1.00, 0.00, -0.00, -1.00, 815.8, 92.3)">d</text><text xml:space="preserve" font-family="Palatino-Roman,Palatino" font-size="12.0" fill="#404040" transform="matrix(1.00, 0.00, -0.00, -1.00, 823.2, 92.3)">e</text><text xml:space="preserve" font-family="Palatino-Roman,Palatino" font-size="12.0" fill="#404040" transform="matrix(1.00, 0.00, -0.00, -1.00, 828.9, 92.3)">r</text><text xml:space="preserve" font-family="Palatino-Roman,Palatino" font-size="12.0" fill="#404040" transform="matrix(1.00, 0.00, -0.00, -1.00, 833.6, 92.3)"> </text><text xml:space="preserve" font-family="Palatino-Roman,Palatino" font-size="12.0" fill="#404040" transform="matrix(1.00, 0.00, -0.00, -1.00, 836.7, 92.3)">C</text><text xml:space="preserve" font-family="Palatino-Roman,Palatino" font-size="12.0" fill="#404040" transform="matrix(1.00, 0.00, -0.00, -1.00, 845.2, 92.3)">C</text><text xml:space="preserve" font-family="Palatino-Roman,Palatino" font-size="12.0" fill="#404040" transform="matrix(1.00, 0.00, -0.00, -1.00, 853.7, 92.3)"> </text><text xml:space="preserve" font-family="Palatino-Roman,Palatino" font-size="12.0" fill="#404040" transform="matrix(1.00, 0.00, -0.00, -1.00, 856.7, 92.3)">B</text><text xml:space="preserve" font-family="Palatino-Roman,Palatino" font-size="12.0" fill="#404040" transform="matrix(1.00, 0.00, -0.00, -1.00, 864.0, 92.3)">Y</text><text xml:space="preserve" font-family="Palatino-Roman,Palatino" font-size="12.0" fill="#404040" transform="matrix(1.00, 0.00, -0.00, -1.00, 870.9, 92.3)">-</text><text xml:space="preserve" font-family="Palatino-Roman,Palatino" font-size="12.0" fill="#404040" transform="matrix(1.00, 0.00, -0.00, -1.00, 874.9, 92.3)">N</text><text xml:space="preserve" font-family="Palatino-Roman,Palatino" font-size="12.0" fill="#404040" transform="matrix(1.00, 0.00, -0.00, -1.00, 884.9, 92.3)">C</text><text xml:space="preserve" font-family="Palatino-Roman,Palatino" font-size="12.0" fill="#404040" transform="matrix(1.00, 0.00, -0.00, -1.00, 893.4, 92.3)"> </text><text xml:space="preserve" font-family="Palatino-Roman,Palatino" font-size="12.0" fill="#404040" transform="matrix(1.00, 0.00, -0.00, -1.00, 896.4, 92.3)">2</text><text xml:space="preserve" font-family="Palatino-Roman,Palatino" font-size="12.0" fill="#404040" transform="matrix(1.00, 0.00, -0.00, -1.00, 902.4, 92.3)">.</text><text xml:space="preserve" font-family="Palatino-Roman,Palatino" font-size="12.0" fill="#404040" transform="matrix(1.00, 0.00, -0.00, -1.00, 905.4, 92.3)">0</text><g><clipPath id="clip0x600001ea6300"><path d="M 696.3 89.8 L 740.8 89.8 L 740.8 92.5 L 696.3 92.5 Z M 696.3 89.8 "></path></clipPath><g clip-path="url(#clip0x600001ea6300)"><path d="M 139.9 17.9 L 183.4 17.9 " fill="none" stroke="#404040" stroke-width="0.70" transform="matrix(1.00, 0.00, 0.00, -1.00, 557.4, 109.0)"></path></g></g><g><clipPath id="clip0x600001ea6540"><path d="M 835.7 89.8 L 911.4 89.8 L 911.4 92.5 L 835.7 92.5 Z M 835.7 89.8 "></path></clipPath><g clip-path="url(#clip0x600001ea6540)"><path d="M 279.3 17.9 L 354.0 17.9 " fill="none" stroke="#404040" stroke-width="0.70" transform="matrix(1.00, 0.00, 0.00, -1.00, 557.4, 109.0)"></path></g></g><text xml:space="preserve" font-family="Palatino-Roman,Palatino" font-size="18.0" fill="#4B4945" transform="matrix(1.00, 0.00, -0.00, -1.00, 502.5, 16.0)">3</text><text xml:space="preserve" font-family="Palatino-Roman,Palatino" font-size="18.0" fill="#4B4945" transform="matrix(1.00, 0.00, -0.00, -1.00, 511.5, 16.0)">2</text></g></svg>