<?xml version="1.0" encoding="UTF-8" standalone="no"?><svg xmlns="http://www.w3.org/2000/svg" xmlns:xlink="http://www.w3.org/1999/xlink" clip-rule="evenodd" stroke-miterlimit="10" viewBox="0 0 183 89"><desc>SVG generated by Keynote</desc><defs></defs><g transform="matrix(1.00, 0.00, -0.00, -1.00, 0.0, 89.0)"><g><clipPath id="clip0x600001aadfe0"><path d="M 0.9 0.8 L 183.0 0.8 L 183.0 88.0 L 0.9 88.0 Z M 0.9 0.8 "></path></clipPath><g clip-path="url(#clip0x600001aadfe0)"><path d="M 0.0 69.1 L 0.1 14.1 C 0.1 6.3 6.3 0.0 14.1 0.0 L 163.9 0.0 C 171.7 0.0 178.1 6.3 178.1 14.1 L 178.1 69.1 C 178.1 76.9 171.7 83.0 163.9 83.0 L 14.1 83.0 C 6.3 83.0 0.0 76.9 0.0 69.1 Z M 0.0 69.1 " fill="none" stroke="#66635F" stroke-width="2.00" transform="matrix(1.00, 0.00, 0.00, -1.00, 2.9, 86.0)"></path></g></g><g><clipPath id="clip0x600001aae400"><path d="M 11.8 5.9 L 172.1 5.9 L 172.1 83.0 L 11.8 83.0 Z M 11.8 5.9 "></path></clipPath><g clip-path="url(#clip0x600001aae400)"><text xml:space="preserve" font-family="Palatino-Bold,Palatino" font-weight="bold" font-size="24.0" fill="#404040" transform="matrix(1.00, 0.00, -0.00, -1.00, 20.6, 34.6)">M</text><text xml:space="preserve" font-family="Palatino-Bold,Palatino" font-weight="bold" font-size="24.0" fill="#404040" transform="matrix(1.00, 0.00, -0.00, -1.00, 44.6, 34.6)">a</text><text xml:space="preserve" font-family="Palatino-Bold,Palatino" font-weight="bold" font-size="24.0" fill="#404040" transform="matrix(1.00, 0.00, -0.00, -1.00, 56.6, 34.6)">i</text><text xml:space="preserve" font-family="Palatino-Bold,Palatino" font-weight="bold" font-size="24.0" fill="#404040" transform="matrix(1.00, 0.00, -0.00, -1.00, 64.6, 34.6)">n</text><text xml:space="preserve" font-family="Palatino-Bold,Palatino" font-weight="bold" font-size="24.0" fill="#404040" transform="matrix(1.00, 0.00, -0.00, -1.00, 79.3, 34.6)">t</text><text xml:space="preserve" font-family="Palatino-Bold,Palatino" font-weight="bold" font-size="24.0" fill="#404040" transform="matrix(1.00, 0.00, -0.00, -1.00, 87.3, 34.6)">e</text><text xml:space="preserve" font-family="Palatino-Bold,Palatino" font-weight="bold" font-size="24.0" fill="#404040" transform="matrix(1.00, 0.00, -0.00, -1.00, 99.3, 34.6)">n</text><text xml:space="preserve" font-family="Palatino-Bold,Palatino" font-weight="bold" font-size="24.0" fill="#404040" transform="matrix(1.00, 0.00, -0.00, -1.00, 113.9, 34.6)">a</text><text xml:space="preserve" font-family="Palatino-Bold,Palatino" font-weight="bold" font-size="24.0" fill="#404040" transform="matrix(1.00, 0.00, -0.00, -1.00, 125.9, 34.6)">n</text><text xml:space="preserve" font-family="Palatino-Bold,Palatino" font-weight="bold" font-size="24.0" fill="#404040" transform="matrix(1.00, 0.00, -0.00, -1.00, 140.6, 34.6)">c</text><text xml:space="preserve" font-family="Palatino-Bold,Palatino" font-weight="bold" font-size="24.0" fill="#404040" transform="matrix(1.00, 0.00, -0.00, -1.00, 151.2, 34.6)">e</text></g></g></g></svg>