<?xml version="1.0" encoding="UTF-8" standalone="no"?><svg xmlns="http://www.w3.org/2000/svg" xmlns:xlink="http://www.w3.org/1999/xlink" clip-rule="evenodd" stroke-miterlimit="10" viewBox="0 0 183 88"><desc>SVG generated by Keynote</desc><defs></defs><g transform="matrix(1.00, 0.00, -0.00, -1.00, 0.0, 88.0)"><g><clipPath id="clip0x6080016b5960"><path d="M 0.1 0.2 L 182.2 0.2 L 182.2 87.4 L 0.1 87.4 Z M 0.1 0.2 "></path></clipPath><g clip-path="url(#clip0x6080016b5960)"><path d="M 0.0 69.1 L -0.1 14.1 C -0.1 6.3 6.3 0.4 14.1 0.4 L 163.9 0.4 C 171.7 0.4 177.9 6.3 177.9 14.1 L 177.9 69.1 C 177.9 76.9 171.7 83.4 163.9 83.4 L 14.1 83.4 C 6.3 83.4 0.0 76.9 0.0 69.1 Z M 0.0 69.1 " fill="none" stroke="#66635F" stroke-width="2.00" transform="matrix(1.00, 0.00, 0.00, -1.00, 2.1, 85.4)"></path></g></g><g><clipPath id="clip0x6080016bca40"><path d="M 11.0 4.8 L 171.2 4.8 L 171.2 82.4 L 11.0 82.4 Z M 11.0 4.8 "></path></clipPath><g clip-path="url(#clip0x6080016bca40)"><text xml:space="preserve" font-family="Palatino-Bold,Palatino" font-weight="bold" font-size="24.0" fill="#404040" transform="matrix(1.00, 0.00, -0.00, -1.00, 44.5, 50.0)">O</text><text xml:space="preserve" font-family="Palatino-Bold,Palatino" font-weight="bold" font-size="24.0" fill="#404040" transform="matrix(1.00, 0.00, -0.00, -1.00, 64.5, 50.0)">r</text><text xml:space="preserve" font-family="Palatino-Bold,Palatino" font-weight="bold" font-size="24.0" fill="#404040" transform="matrix(1.00, 0.00, -0.00, -1.00, 73.8, 50.0)">i</text><text xml:space="preserve" font-family="Palatino-Bold,Palatino" font-weight="bold" font-size="24.0" fill="#404040" transform="matrix(1.00, 0.00, -0.00, -1.00, 81.8, 50.0)">g</text><text xml:space="preserve" font-family="Palatino-Bold,Palatino" font-weight="bold" font-size="24.0" fill="#404040" transform="matrix(1.00, 0.00, -0.00, -1.00, 95.1, 50.0)">i</text><text xml:space="preserve" font-family="Palatino-Bold,Palatino" font-weight="bold" font-size="24.0" fill="#404040" transform="matrix(1.00, 0.00, -0.00, -1.00, 103.1, 50.0)">n</text><text xml:space="preserve" font-family="Palatino-Bold,Palatino" font-weight="bold" font-size="24.0" fill="#404040" transform="matrix(1.00, 0.00, -0.00, -1.00, 117.8, 50.0)">a</text><text xml:space="preserve" font-family="Palatino-Bold,Palatino" font-weight="bold" font-size="24.0" fill="#404040" transform="matrix(1.00, 0.00, -0.00, -1.00, 129.8, 50.0)">l</text><text xml:space="preserve" font-family="Palatino-Bold,Palatino" font-weight="bold" font-size="24.0" fill="#404040" transform="matrix(1.00, 0.00, -0.00, -1.00, 137.8, 50.0)"> </text><text xml:space="preserve" font-family="Palatino-Bold,Palatino" font-weight="bold" font-size="24.0" fill="#404040" transform="matrix(1.00, 0.00, -0.00, -1.00, 31.1, 18.0)">C</text><text xml:space="preserve" font-family="Palatino-Bold,Palatino" font-weight="bold" font-size="24.0" fill="#404040" transform="matrix(1.00, 0.00, -0.00, -1.00, 48.5, 18.0)">a</text><text xml:space="preserve" font-family="Palatino-Bold,Palatino" font-weight="bold" font-size="24.0" fill="#404040" transform="matrix(1.00, 0.00, -0.00, -1.00, 60.5, 18.0)">t</text><text xml:space="preserve" font-family="Palatino-Bold,Palatino" font-weight="bold" font-size="24.0" fill="#404040" transform="matrix(1.00, 0.00, -0.00, -1.00, 68.4, 18.0)">a</text><text xml:space="preserve" font-family="Palatino-Bold,Palatino" font-weight="bold" font-size="24.0" fill="#404040" transform="matrix(1.00, 0.00, -0.00, -1.00, 80.4, 18.0)">l</text><text xml:space="preserve" font-family="Palatino-Bold,Palatino" font-weight="bold" font-size="24.0" fill="#404040" transform="matrix(1.00, 0.00, -0.00, -1.00, 88.4, 18.0)">o</text><text xml:space="preserve" font-family="Palatino-Bold,Palatino" font-weight="bold" font-size="24.0" fill="#404040" transform="matrix(1.00, 0.00, -0.00, -1.00, 101.8, 18.0)">g</text><text xml:space="preserve" font-family="Palatino-Bold,Palatino" font-weight="bold" font-size="24.0" fill="#404040" transform="matrix(1.00, 0.00, -0.00, -1.00, 115.1, 18.0)">i</text><text xml:space="preserve" font-family="Palatino-Bold,Palatino" font-weight="bold" font-size="24.0" fill="#404040" transform="matrix(1.00, 0.00, -0.00, -1.00, 123.1, 18.0)">n</text><text xml:space="preserve" font-family="Palatino-Bold,Palatino" font-weight="bold" font-size="24.0" fill="#404040" transform="matrix(1.00, 0.00, -0.00, -1.00, 137.8, 18.0)">g</text></g></g></g></svg>