<?xml version="1.0" encoding="UTF-8" standalone="no"?><svg xmlns="http://www.w3.org/2000/svg" xmlns:xlink="http://www.w3.org/1999/xlink" clip-rule="evenodd" stroke-miterlimit="10" viewBox="0 0 1024 768"><desc>SVG generated by Keynote</desc><defs></defs><g transform="matrix(1.00, 0.00, -0.00, -1.00, 0.0, 768.0)"><g><clipPath id="clip0x600001cab220"><path d="M 0.0 768.0 L 1024.0 768.0 L 1024.0 0.0 L 0.0 0.0 Z M 0.0 768.0 "></path></clipPath><g clip-path="url(#clip0x600001cab220)"><image xlink:href="../../F253DB65-92C6-4850-9693-63CDF5253250/assets/5A8C990C4A4597A5304AC9F14CDA7C87.jpeg" width="2048.00" height="1536.00" transform="matrix(0.50, 0.00, -0.00, -0.50, 0.0, 768.0)"></image></g></g><g opacity="0.30"><g><clipPath id="clip0x600001cae160"><path d="M 39.0 595.0 L 986.0 595.0 L 986.0 599.0 L 39.0 599.0 Z M 39.0 595.0 "></path></clipPath><g clip-path="url(#clip0x600001cae160)"><path d="M 0.0 0.5 L 944.7 0.5 L 944.7 0.5 L 0.0 0.5 Z M 0.0 0.0 " fill="none" stroke="#434343" stroke-width="1.00" transform="matrix(1.00, 0.00, 0.00, -1.00, 40.0, 597.0)"></path></g></g></g><g opacity="0.30"><g><clipPath id="clip0x600001cab520"><path d="M 39.0 716.0 L 986.0 716.0 L 986.0 720.0 L 39.0 720.0 Z M 39.0 716.0 "></path></clipPath><g clip-path="url(#clip0x600001cab520)"><path d="M 0.0 0.5 L 944.7 0.5 L 944.7 0.5 L 0.0 0.5 Z M 0.0 0.0 " fill="none" stroke="#434343" stroke-width="1.00" transform="matrix(1.00, 0.00, 0.00, -1.00, 40.0, 718.0)"></path></g></g></g><text xml:space="preserve" font-family="BodoniSvtyTwoITCTT-Book,Bodoni SvtyTwo ITC TT" font-size="70.0" fill="#D93D2A" transform="matrix(1.00, 0.00, -0.00, -1.00, 152.3, 632.6)">H</text><text xml:space="preserve" font-family="BodoniSvtyTwoITCTT-Book,Bodoni SvtyTwo ITC TT" font-size="70.0" fill="#D93D2A" transform="matrix(1.00, 0.00, -0.00, -1.00, 202.1, 632.6)">o</text><text xml:space="preserve" font-family="BodoniSvtyTwoITCTT-Book,Bodoni SvtyTwo ITC TT" font-size="70.0" fill="#D93D2A" transform="matrix(1.00, 0.00, -0.00, -1.00, 235.7, 632.6)">w</text><text xml:space="preserve" font-family="BodoniSvtyTwoITCTT-Book,Bodoni SvtyTwo ITC TT" font-size="70.0" fill="#D93D2A" transform="matrix(1.00, 0.00, -0.00, -1.00, 277.7, 632.6)"> </text><text xml:space="preserve" font-family="BodoniSvtyTwoITCTT-Book,Bodoni SvtyTwo ITC TT" font-size="70.0" fill="#D93D2A" transform="matrix(1.00, 0.00, -0.00, -1.00, 290.7, 632.6)">D</text><text xml:space="preserve" font-family="BodoniSvtyTwoITCTT-Book,Bodoni SvtyTwo ITC TT" font-size="70.0" fill="#D93D2A" transform="matrix(1.00, 0.00, -0.00, -1.00, 340.8, 632.6)">o</text><text xml:space="preserve" font-family="BodoniSvtyTwoITCTT-Book,Bodoni SvtyTwo ITC TT" font-size="70.0" fill="#D93D2A" transform="matrix(1.00, 0.00, -0.00, -1.00, 374.4, 632.6)">e</text><text xml:space="preserve" font-family="BodoniSvtyTwoITCTT-Book,Bodoni SvtyTwo ITC TT" font-size="70.0" fill="#D93D2A" transform="matrix(1.00, 0.00, -0.00, -1.00, 404.5, 632.6)">s</text><text xml:space="preserve" font-family="BodoniSvtyTwoITCTT-Book,Bodoni SvtyTwo ITC TT" font-size="70.0" fill="#D93D2A" transform="matrix(1.00, 0.00, -0.00, -1.00, 429.9, 632.6)"> </text><text xml:space="preserve" font-family="BodoniSvtyTwoITCTT-Book,Bodoni SvtyTwo ITC TT" font-size="70.0" fill="#D93D2A" transform="matrix(1.00, 0.00, -0.00, -1.00, 442.9, 632.6)">T</text><text xml:space="preserve" font-family="BodoniSvtyTwoITCTT-Book,Bodoni SvtyTwo ITC TT" font-size="70.0" fill="#D93D2A" transform="matrix(1.00, 0.00, -0.00, -1.00, 483.9, 632.6)">h</text><text xml:space="preserve" font-family="BodoniSvtyTwoITCTT-Book,Bodoni SvtyTwo ITC TT" font-size="70.0" fill="#D93D2A" transform="matrix(1.00, 0.00, -0.00, -1.00, 517.3, 632.6)">i</text><text xml:space="preserve" font-family="BodoniSvtyTwoITCTT-Book,Bodoni SvtyTwo ITC TT" font-size="70.0" fill="#D93D2A" transform="matrix(1.00, 0.00, -0.00, -1.00, 534.9, 632.6)">s</text><text xml:space="preserve" font-family="BodoniSvtyTwoITCTT-Book,Bodoni SvtyTwo ITC TT" font-size="70.0" fill="#D93D2A" transform="matrix(1.00, 0.00, -0.00, -1.00, 560.2, 632.6)"> </text><text xml:space="preserve" font-family="BodoniSvtyTwoITCTT-Book,Bodoni SvtyTwo ITC TT" font-size="70.0" fill="#D93D2A" transform="matrix(1.00, 0.00, -0.00, -1.00, 573.2, 632.6)">W</text><text xml:space="preserve" font-family="BodoniSvtyTwoITCTT-Book,Bodoni SvtyTwo ITC TT" font-size="70.0" fill="#D93D2A" transform="matrix(1.00, 0.00, -0.00, -1.00, 637.1, 632.6)">o</text><text xml:space="preserve" font-family="BodoniSvtyTwoITCTT-Book,Bodoni SvtyTwo ITC TT" font-size="70.0" fill="#D93D2A" transform="matrix(1.00, 0.00, -0.00, -1.00, 670.7, 632.6)">r</text><text xml:space="preserve" font-family="BodoniSvtyTwoITCTT-Book,Bodoni SvtyTwo ITC TT" font-size="70.0" fill="#D93D2A" transform="matrix(1.00, 0.00, -0.00, -1.00, 694.3, 632.6)">k</text><text xml:space="preserve" font-family="BodoniSvtyTwoITCTT-Book,Bodoni SvtyTwo ITC TT" font-size="70.0" fill="#D93D2A" transform="matrix(1.00, 0.00, -0.00, -1.00, 727.1, 632.6)"> </text><text xml:space="preserve" font-family="BodoniSvtyTwoITCTT-Book,Bodoni SvtyTwo ITC TT" font-size="70.0" fill="#D93D2A" transform="matrix(1.00, 0.00, -0.00, -1.00, 740.2, 632.6)">I</text><text xml:space="preserve" font-family="BodoniSvtyTwoITCTT-Book,Bodoni SvtyTwo ITC TT" font-size="70.0" fill="#D93D2A" transform="matrix(1.00, 0.00, -0.00, -1.00, 762.1, 632.6)">R</text><text xml:space="preserve" font-family="BodoniSvtyTwoITCTT-Book,Bodoni SvtyTwo ITC TT" font-size="70.0" fill="#D93D2A" transform="matrix(1.00, 0.00, -0.00, -1.00, 803.3, 632.6)">L</text><text xml:space="preserve" font-family="BodoniSvtyTwoITCTT-Book,Bodoni SvtyTwo ITC TT" font-size="70.0" fill="#D93D2A" transform="matrix(1.00, 0.00, -0.00, -1.00, 842.8, 632.6)">?</text><text xml:space="preserve" font-family="Palatino-Roman,Palatino" font-size="18.0" fill="#4B4945" transform="matrix(1.00, 0.00, -0.00, -1.00, 502.5, 16.0)">3</text><text xml:space="preserve" font-family="Palatino-Roman,Palatino" font-size="18.0" fill="#4B4945" transform="matrix(1.00, 0.00, -0.00, -1.00, 511.5, 16.0)">2</text><g><clipPath id="clip0x600001caee80"><path d="M 352.1 460.0 L 534.2 460.0 L 534.2 547.2 L 352.1 547.2 Z M 352.1 460.0 "></path></clipPath><g clip-path="url(#clip0x600001caee80)"><path d="M 0.0 69.1 L -0.1 14.1 C -0.1 6.3 6.3 0.2 14.1 0.2 L 163.9 0.2 C 171.7 0.2 177.9 6.3 177.9 14.1 L 177.9 69.1 C 177.9 76.9 171.7 83.2 163.9 83.2 L 14.1 83.2 C 6.3 83.2 0.0 76.9 0.0 69.1 Z M 0.0 69.1 " fill="none" stroke="#66635F" stroke-width="2.00" transform="matrix(1.00, 0.00, 0.00, -1.00, 354.1, 545.2)"></path></g></g><g><clipPath id="clip0x600001caf0c0"><path d="M 363.0 464.5 L 523.2 464.5 L 523.2 542.1 L 363.0 542.1 Z M 363.0 464.5 "></path></clipPath><g clip-path="url(#clip0x600001caf0c0)"><text xml:space="preserve" font-family="Palatino-Bold,Palatino" font-weight="bold" font-size="24.0" fill="#404040" transform="matrix(1.00, 0.00, -0.00, -1.00, 412.5, 509.8)">B</text><text xml:space="preserve" font-family="Palatino-Bold,Palatino" font-weight="bold" font-size="24.0" fill="#404040" transform="matrix(1.00, 0.00, -0.00, -1.00, 428.5, 509.8)">a</text><text xml:space="preserve" font-family="Palatino-Bold,Palatino" font-weight="bold" font-size="24.0" fill="#404040" transform="matrix(1.00, 0.00, -0.00, -1.00, 440.5, 509.8)">t</text><text xml:space="preserve" font-family="Palatino-Bold,Palatino" font-weight="bold" font-size="24.0" fill="#404040" transform="matrix(1.00, 0.00, -0.00, -1.00, 448.5, 509.8)">c</text><text xml:space="preserve" font-family="Palatino-Bold,Palatino" font-weight="bold" font-size="24.0" fill="#404040" transform="matrix(1.00, 0.00, -0.00, -1.00, 459.1, 509.8)">h</text><text xml:space="preserve" font-family="Palatino-Bold,Palatino" font-weight="bold" font-size="24.0" fill="#404040" transform="matrix(1.00, 0.00, -0.00, -1.00, 473.8, 509.8)"> </text><text xml:space="preserve" font-family="Palatino-Bold,Palatino" font-weight="bold" font-size="24.0" fill="#404040" transform="matrix(1.00, 0.00, -0.00, -1.00, 399.1, 477.8)">R</text><text xml:space="preserve" font-family="Palatino-Bold,Palatino" font-weight="bold" font-size="24.0" fill="#404040" transform="matrix(1.00, 0.00, -0.00, -1.00, 416.5, 477.8)">e</text><text xml:space="preserve" font-family="Palatino-Bold,Palatino" font-weight="bold" font-size="24.0" fill="#404040" transform="matrix(1.00, 0.00, -0.00, -1.00, 428.5, 477.8)">c</text><text xml:space="preserve" font-family="Palatino-Bold,Palatino" font-weight="bold" font-size="24.0" fill="#404040" transform="matrix(1.00, 0.00, -0.00, -1.00, 439.1, 477.8)">o</text><text xml:space="preserve" font-family="Palatino-Bold,Palatino" font-weight="bold" font-size="24.0" fill="#404040" transform="matrix(1.00, 0.00, -0.00, -1.00, 452.5, 477.8)">r</text><text xml:space="preserve" font-family="Palatino-Bold,Palatino" font-weight="bold" font-size="24.0" fill="#404040" transform="matrix(1.00, 0.00, -0.00, -1.00, 461.8, 477.8)">d</text><text xml:space="preserve" font-family="Palatino-Bold,Palatino" font-weight="bold" font-size="24.0" fill="#404040" transform="matrix(1.00, 0.00, -0.00, -1.00, 476.5, 477.8)">s</text></g></g><g><clipPath id="clip0x600001caf780"><path d="M 118.6 546.9 L 300.6 547.6 L 301.0 460.4 L 118.9 459.7 Z M 118.6 546.9 "></path></clipPath><g clip-path="url(#clip0x600001caf780)"><path d="M 0.0 69.1 L 0.0 14.1 C 0.0 6.3 6.3 0.0 14.1 0.0 L 163.9 0.0 C 171.7 0.0 178.1 6.3 178.1 14.1 L 178.1 69.1 C 178.1 76.9 171.7 83.2 163.9 83.2 L 14.1 83.2 C 6.3 83.2 0.0 76.9 0.0 69.1 Z M 0.0 69.1 " fill="none" stroke="#66635F" stroke-width="2.00" transform="matrix(1.00, 0.00, 0.00, -1.00, 120.6, 544.9)"></path></g></g><g><clipPath id="clip0x600001caf9c0"><path d="M 129.5 541.8 L 289.7 542.5 L 290.0 465.4 L 129.8 464.8 Z M 129.5 541.8 "></path></clipPath><g clip-path="url(#clip0x600001caf9c0)"><text xml:space="preserve" font-family="Palatino-Bold,Palatino" font-weight="bold" font-size="24.0" fill="#404040" transform="matrix(1.00, 0.00, 0.00, -1.00, 159.1, 493.6)">O</text><text xml:space="preserve" font-family="Palatino-Bold,Palatino" font-weight="bold" font-size="24.0" fill="#404040" transform="matrix(1.00, 0.00, 0.00, -1.00, 179.1, 493.7)">r</text><text xml:space="preserve" font-family="Palatino-Bold,Palatino" font-weight="bold" font-size="24.0" fill="#404040" transform="matrix(1.00, 0.00, 0.00, -1.00, 188.5, 493.7)">d</text><text xml:space="preserve" font-family="Palatino-Bold,Palatino" font-weight="bold" font-size="24.0" fill="#404040" transform="matrix(1.00, 0.00, 0.00, -1.00, 203.1, 493.8)">e</text><text xml:space="preserve" font-family="Palatino-Bold,Palatino" font-weight="bold" font-size="24.0" fill="#404040" transform="matrix(1.00, 0.00, 0.00, -1.00, 215.1, 493.8)">r</text><text xml:space="preserve" font-family="Palatino-Bold,Palatino" font-weight="bold" font-size="24.0" fill="#404040" transform="matrix(1.00, 0.00, 0.00, -1.00, 224.5, 493.9)">i</text><text xml:space="preserve" font-family="Palatino-Bold,Palatino" font-weight="bold" font-size="24.0" fill="#404040" transform="matrix(1.00, 0.00, 0.00, -1.00, 232.5, 493.9)">n</text><text xml:space="preserve" font-family="Palatino-Bold,Palatino" font-weight="bold" font-size="24.0" fill="#404040" transform="matrix(1.00, 0.00, 0.00, -1.00, 247.1, 493.9)">g</text></g></g><g><clipPath id="clip0x600001cafea0"><path d="M 585.3 278.3 L 767.4 278.3 L 767.4 365.5 L 585.3 365.5 Z M 585.3 278.3 "></path></clipPath><g clip-path="url(#clip0x600001cafea0)"><path d="M 0.0 69.1 L -0.3 14.1 C -0.3 6.3 6.3 0.5 14.1 0.5 L 163.9 0.5 C 171.7 0.5 177.7 6.3 177.7 14.1 L 177.7 69.1 C 177.7 76.9 171.7 83.5 163.9 83.5 L 14.1 83.5 C 6.3 83.5 0.0 76.9 0.0 69.1 Z M 0.0 69.1 " fill="none" stroke="#66635F" stroke-width="2.00" transform="matrix(1.00, 0.00, 0.00, -1.00, 587.3, 363.5)"></path></g></g><g><clipPath id="clip0x600001cb00e0"><path d="M 596.2 282.8 L 756.4 282.8 L 756.4 360.4 L 596.2 360.4 Z M 596.2 282.8 "></path></clipPath><g clip-path="url(#clip0x600001cb00e0)"><text xml:space="preserve" font-family="Palatino-Bold,Palatino" font-weight="bold" font-size="24.0" fill="#404040" transform="matrix(1.00, 0.00, -0.00, -1.00, 647.0, 328.0)">C</text><text xml:space="preserve" font-family="Palatino-Bold,Palatino" font-weight="bold" font-size="24.0" fill="#404040" transform="matrix(1.00, 0.00, -0.00, -1.00, 664.3, 328.0)">o</text><text xml:space="preserve" font-family="Palatino-Bold,Palatino" font-weight="bold" font-size="24.0" fill="#404040" transform="matrix(1.00, 0.00, -0.00, -1.00, 677.7, 328.0)">p</text><text xml:space="preserve" font-family="Palatino-Bold,Palatino" font-weight="bold" font-size="24.0" fill="#404040" transform="matrix(1.00, 0.00, -0.00, -1.00, 692.3, 328.0)">y</text><text xml:space="preserve" font-family="Palatino-Bold,Palatino" font-weight="bold" font-size="24.0" fill="#404040" transform="matrix(1.00, 0.00, -0.00, -1.00, 616.3, 296.0)">C</text><text xml:space="preserve" font-family="Palatino-Bold,Palatino" font-weight="bold" font-size="24.0" fill="#404040" transform="matrix(1.00, 0.00, -0.00, -1.00, 633.7, 296.0)">a</text><text xml:space="preserve" font-family="Palatino-Bold,Palatino" font-weight="bold" font-size="24.0" fill="#404040" transform="matrix(1.00, 0.00, -0.00, -1.00, 645.7, 296.0)">t</text><text xml:space="preserve" font-family="Palatino-Bold,Palatino" font-weight="bold" font-size="24.0" fill="#404040" transform="matrix(1.00, 0.00, -0.00, -1.00, 653.6, 296.0)">a</text><text xml:space="preserve" font-family="Palatino-Bold,Palatino" font-weight="bold" font-size="24.0" fill="#404040" transform="matrix(1.00, 0.00, -0.00, -1.00, 665.6, 296.0)">l</text><text xml:space="preserve" font-family="Palatino-Bold,Palatino" font-weight="bold" font-size="24.0" fill="#404040" transform="matrix(1.00, 0.00, -0.00, -1.00, 673.6, 296.0)">o</text><text xml:space="preserve" font-family="Palatino-Bold,Palatino" font-weight="bold" font-size="24.0" fill="#404040" transform="matrix(1.00, 0.00, -0.00, -1.00, 687.0, 296.0)">g</text><text xml:space="preserve" font-family="Palatino-Bold,Palatino" font-weight="bold" font-size="24.0" fill="#404040" transform="matrix(1.00, 0.00, -0.00, -1.00, 700.3, 296.0)">i</text><text xml:space="preserve" font-family="Palatino-Bold,Palatino" font-weight="bold" font-size="24.0" fill="#404040" transform="matrix(1.00, 0.00, -0.00, -1.00, 708.3, 296.0)">n</text><text xml:space="preserve" font-family="Palatino-Bold,Palatino" font-weight="bold" font-size="24.0" fill="#404040" transform="matrix(1.00, 0.00, -0.00, -1.00, 723.0, 296.0)">g</text></g></g><g><clipPath id="clip0x600001cb0800"><path d="M 585.3 460.0 L 767.4 460.0 L 767.4 547.2 L 585.3 547.2 Z M 585.3 460.0 "></path></clipPath><g clip-path="url(#clip0x600001cb0800)"><path d="M 0.0 69.1 L -0.3 14.1 C -0.3 6.3 6.3 0.2 14.1 0.2 L 163.9 0.2 C 171.7 0.2 177.7 6.3 177.7 14.1 L 177.7 69.1 C 177.7 76.9 171.7 83.2 163.9 83.2 L 14.1 83.2 C 6.3 83.2 0.0 76.9 0.0 69.1 Z M 0.0 69.1 " fill="none" stroke="#66635F" stroke-width="2.00" transform="matrix(1.00, 0.00, 0.00, -1.00, 587.3, 545.2)"></path></g></g><g><clipPath id="clip0x600001cb0a40"><path d="M 596.2 465.1 L 756.4 465.1 L 756.4 542.1 L 596.2 542.1 Z M 596.2 465.1 "></path></clipPath><g clip-path="url(#clip0x600001cb0a40)"><text xml:space="preserve" font-family="Palatino-Bold,Palatino" font-weight="bold" font-size="24.0" fill="#404040" transform="matrix(1.00, 0.00, -0.00, -1.00, 635.0, 493.8)">R</text><text xml:space="preserve" font-family="Palatino-Bold,Palatino" font-weight="bold" font-size="24.0" fill="#404040" transform="matrix(1.00, 0.00, -0.00, -1.00, 652.3, 493.8)">e</text><text xml:space="preserve" font-family="Palatino-Bold,Palatino" font-weight="bold" font-size="24.0" fill="#404040" transform="matrix(1.00, 0.00, -0.00, -1.00, 664.3, 493.8)">c</text><text xml:space="preserve" font-family="Palatino-Bold,Palatino" font-weight="bold" font-size="24.0" fill="#404040" transform="matrix(1.00, 0.00, -0.00, -1.00, 675.0, 493.8)">e</text><text xml:space="preserve" font-family="Palatino-Bold,Palatino" font-weight="bold" font-size="24.0" fill="#404040" transform="matrix(1.00, 0.00, -0.00, -1.00, 687.0, 493.8)">i</text><text xml:space="preserve" font-family="Palatino-Bold,Palatino" font-weight="bold" font-size="24.0" fill="#404040" transform="matrix(1.00, 0.00, -0.00, -1.00, 695.0, 493.8)">p</text><text xml:space="preserve" font-family="Palatino-Bold,Palatino" font-weight="bold" font-size="24.0" fill="#404040" transform="matrix(1.00, 0.00, -0.00, -1.00, 709.6, 493.8)">t</text></g></g><path d="M 0.0 0.0 C 14.7 0.0 29.4 -0.4 44.1 -0.4 L 45.2 -0.4 " fill="none" stroke="#404040" stroke-width="2.00" transform="matrix(1.00, 0.00, 0.00, -1.00, 299.8, 503.6)"></path><path d="M 0.0 0.0 L 3.0 5.0 L 6.0 0.0 M 3.0 0.0 L 3.0 5.0 " fill="none" stroke="#404040" stroke-width="1.25" stroke-linejoin="round" transform="matrix(0.00, 1.60, 1.60, 0.00, 344.0, 499.2)"></path><path d="M 44.8 -0.4 L 43.5 -0.4 C 29.0 -0.4 14.5 0.0 0.0 0.0 " fill="none" stroke="#404040" stroke-width="2.00" transform="matrix(1.00, 0.00, 0.00, -1.00, 533.2, 503.6)"></path><path d="M 577.0 499.2 L 586.6 504.0 L 577.0 508.8 Z M 577.0 499.2 " fill="#404040"></path><path d="M 29.7 0.0 L 59.5 44.8 L 0.0 44.8 Z M 29.7 0.0 " fill="none" stroke="#66635F" stroke-width="2.00" transform="matrix(1.00, 0.00, 0.00, -1.00, 844.0, 525.8)"></path><path d="M 82.6 0.4 L 81.7 0.4 C 54.5 0.4 27.2 0.1 0.0 0.0 " fill="none" stroke="#404040" stroke-width="2.00" transform="matrix(1.00, 0.00, 0.00, -1.00, 766.4, 503.4)"></path><path d="M 848.0 498.2 L 857.6 503.0 L 848.0 507.8 Z M 848.0 498.2 " fill="#404040"></path><g><clipPath id="clip0x600001cb12e0"><path d="M 352.1 277.2 L 534.2 277.2 L 534.2 364.4 L 352.1 364.4 Z M 352.1 277.2 "></path></clipPath><g clip-path="url(#clip0x600001cb12e0)"><path d="M 0.0 69.1 L -0.1 14.1 C -0.1 6.3 6.3 0.4 14.1 0.4 L 163.9 0.4 C 171.7 0.4 177.9 6.3 177.9 14.1 L 177.9 69.1 C 177.9 76.9 171.7 83.4 163.9 83.4 L 14.1 83.4 C 6.3 83.4 0.0 76.9 0.0 69.1 Z M 0.0 69.1 " fill="none" stroke="#66635F" stroke-width="2.00" transform="matrix(1.00, 0.00, 0.00, -1.00, 354.1, 362.4)"></path></g></g><g><clipPath id="clip0x600001cb1520"><path d="M 363.0 281.8 L 523.2 281.8 L 523.2 359.4 L 363.0 359.4 Z M 363.0 281.8 "></path></clipPath><g clip-path="url(#clip0x600001cb1520)"><text xml:space="preserve" font-family="Palatino-Bold,Palatino" font-weight="bold" font-size="24.0" fill="#404040" transform="matrix(1.00, 0.00, -0.00, -1.00, 396.5, 327.0)">O</text><text xml:space="preserve" font-family="Palatino-Bold,Palatino" font-weight="bold" font-size="24.0" fill="#404040" transform="matrix(1.00, 0.00, -0.00, -1.00, 416.5, 327.0)">r</text><text xml:space="preserve" font-family="Palatino-Bold,Palatino" font-weight="bold" font-size="24.0" fill="#404040" transform="matrix(1.00, 0.00, -0.00, -1.00, 425.8, 327.0)">i</text><text xml:space="preserve" font-family="Palatino-Bold,Palatino" font-weight="bold" font-size="24.0" fill="#404040" transform="matrix(1.00, 0.00, -0.00, -1.00, 433.8, 327.0)">g</text><text xml:space="preserve" font-family="Palatino-Bold,Palatino" font-weight="bold" font-size="24.0" fill="#404040" transform="matrix(1.00, 0.00, -0.00, -1.00, 447.1, 327.0)">i</text><text xml:space="preserve" font-family="Palatino-Bold,Palatino" font-weight="bold" font-size="24.0" fill="#404040" transform="matrix(1.00, 0.00, -0.00, -1.00, 455.1, 327.0)">n</text><text xml:space="preserve" font-family="Palatino-Bold,Palatino" font-weight="bold" font-size="24.0" fill="#404040" transform="matrix(1.00, 0.00, -0.00, -1.00, 469.8, 327.0)">a</text><text xml:space="preserve" font-family="Palatino-Bold,Palatino" font-weight="bold" font-size="24.0" fill="#404040" transform="matrix(1.00, 0.00, -0.00, -1.00, 481.8, 327.0)">l</text><text xml:space="preserve" font-family="Palatino-Bold,Palatino" font-weight="bold" font-size="24.0" fill="#404040" transform="matrix(1.00, 0.00, -0.00, -1.00, 489.8, 327.0)"> </text><text xml:space="preserve" font-family="Palatino-Bold,Palatino" font-weight="bold" font-size="24.0" fill="#404040" transform="matrix(1.00, 0.00, -0.00, -1.00, 383.1, 295.0)">C</text><text xml:space="preserve" font-family="Palatino-Bold,Palatino" font-weight="bold" font-size="24.0" fill="#404040" transform="matrix(1.00, 0.00, -0.00, -1.00, 400.5, 295.0)">a</text><text xml:space="preserve" font-family="Palatino-Bold,Palatino" font-weight="bold" font-size="24.0" fill="#404040" transform="matrix(1.00, 0.00, -0.00, -1.00, 412.5, 295.0)">t</text><text xml:space="preserve" font-family="Palatino-Bold,Palatino" font-weight="bold" font-size="24.0" fill="#404040" transform="matrix(1.00, 0.00, -0.00, -1.00, 420.4, 295.0)">a</text><text xml:space="preserve" font-family="Palatino-Bold,Palatino" font-weight="bold" font-size="24.0" fill="#404040" transform="matrix(1.00, 0.00, -0.00, -1.00, 432.4, 295.0)">l</text><text xml:space="preserve" font-family="Palatino-Bold,Palatino" font-weight="bold" font-size="24.0" fill="#404040" transform="matrix(1.00, 0.00, -0.00, -1.00, 440.4, 295.0)">o</text><text xml:space="preserve" font-family="Palatino-Bold,Palatino" font-weight="bold" font-size="24.0" fill="#404040" transform="matrix(1.00, 0.00, -0.00, -1.00, 453.8, 295.0)">g</text><text xml:space="preserve" font-family="Palatino-Bold,Palatino" font-weight="bold" font-size="24.0" fill="#404040" transform="matrix(1.00, 0.00, -0.00, -1.00, 467.1, 295.0)">i</text><text xml:space="preserve" font-family="Palatino-Bold,Palatino" font-weight="bold" font-size="24.0" fill="#404040" transform="matrix(1.00, 0.00, -0.00, -1.00, 475.1, 295.0)">n</text><text xml:space="preserve" font-family="Palatino-Bold,Palatino" font-weight="bold" font-size="24.0" fill="#404040" transform="matrix(1.00, 0.00, -0.00, -1.00, 489.8, 295.0)">g</text></g></g><path d="M 321.5 0.0 C 217.3 44.1 113.1 88.6 8.8 132.8 L 8.1 132.8 " fill="none" stroke="#404040" stroke-width="2.00" transform="matrix(1.00, 0.00, 0.00, -1.00, 529.9, 493.8)"></path><path d="M 537.0 365.8 L 530.1 357.6 L 540.8 357.0 Z M 537.0 365.8 " fill="#404040"></path><path d="M 125.3 0.0 C 85.9 36.2 46.5 72.4 7.1 108.6 L 6.3 109.6 " fill="none" stroke="#404040" stroke-width="2.00" transform="matrix(1.00, 0.00, 0.00, -1.00, 722.7, 479.6)"></path><path d="M 726.5 374.2 L 722.7 364.2 L 733.0 367.1 Z M 726.5 374.2 " fill="#404040"></path><g><clipPath id="clip0x600001cb2060"><path d="M 118.9 277.2 L 300.9 277.2 L 300.9 364.4 L 118.9 364.4 Z M 118.9 277.2 "></path></clipPath><g clip-path="url(#clip0x600001cb2060)"><path d="M 0.0 69.1 L 0.1 14.1 C 0.1 6.3 6.3 0.4 14.1 0.4 L 163.9 0.4 C 171.7 0.4 178.1 6.3 178.1 14.1 L 178.1 69.1 C 178.1 76.9 171.7 83.4 163.9 83.4 L 14.1 83.4 C 6.3 83.4 0.0 76.9 0.0 69.1 Z M 0.0 69.1 " fill="none" stroke="#66635F" stroke-width="2.00" transform="matrix(1.00, 0.00, 0.00, -1.00, 120.9, 362.4)"></path></g></g><g><clipPath id="clip0x600001cb22a0"><path d="M 129.8 281.8 L 290.0 281.8 L 290.0 359.4 L 129.8 359.4 Z M 129.8 281.8 "></path></clipPath><g clip-path="url(#clip0x600001cb22a0)"><text xml:space="preserve" font-family="Palatino-Bold,Palatino" font-weight="bold" font-size="24.0" fill="#404040" transform="matrix(1.00, 0.00, -0.00, -1.00, 155.9, 327.0)">A</text><text xml:space="preserve" font-family="Palatino-Bold,Palatino" font-weight="bold" font-size="24.0" fill="#404040" transform="matrix(1.00, 0.00, -0.00, -1.00, 174.6, 327.0)">u</text><text xml:space="preserve" font-family="Palatino-Bold,Palatino" font-weight="bold" font-size="24.0" fill="#404040" transform="matrix(1.00, 0.00, -0.00, -1.00, 189.2, 327.0)">t</text><text xml:space="preserve" font-family="Palatino-Bold,Palatino" font-weight="bold" font-size="24.0" fill="#404040" transform="matrix(1.00, 0.00, -0.00, -1.00, 197.2, 327.0)">h</text><text xml:space="preserve" font-family="Palatino-Bold,Palatino" font-weight="bold" font-size="24.0" fill="#404040" transform="matrix(1.00, 0.00, -0.00, -1.00, 211.9, 327.0)">o</text><text xml:space="preserve" font-family="Palatino-Bold,Palatino" font-weight="bold" font-size="24.0" fill="#404040" transform="matrix(1.00, 0.00, -0.00, -1.00, 225.2, 327.0)">r</text><text xml:space="preserve" font-family="Palatino-Bold,Palatino" font-weight="bold" font-size="24.0" fill="#404040" transform="matrix(1.00, 0.00, -0.00, -1.00, 234.6, 327.0)">i</text><text xml:space="preserve" font-family="Palatino-Bold,Palatino" font-weight="bold" font-size="24.0" fill="#404040" transform="matrix(1.00, 0.00, -0.00, -1.00, 242.6, 327.0)">t</text><text xml:space="preserve" font-family="Palatino-Bold,Palatino" font-weight="bold" font-size="24.0" fill="#404040" transform="matrix(1.00, 0.00, -0.00, -1.00, 250.6, 327.0)">y</text><text xml:space="preserve" font-family="Palatino-Bold,Palatino" font-weight="bold" font-size="24.0" fill="#404040" transform="matrix(1.00, 0.00, -0.00, -1.00, 167.9, 295.0)">C</text><text xml:space="preserve" font-family="Palatino-Bold,Palatino" font-weight="bold" font-size="24.0" fill="#404040" transform="matrix(1.00, 0.00, -0.00, -1.00, 185.2, 295.0)">o</text><text xml:space="preserve" font-family="Palatino-Bold,Palatino" font-weight="bold" font-size="24.0" fill="#404040" transform="matrix(1.00, 0.00, -0.00, -1.00, 198.6, 295.0)">n</text><text xml:space="preserve" font-family="Palatino-Bold,Palatino" font-weight="bold" font-size="24.0" fill="#404040" transform="matrix(1.00, 0.00, -0.00, -1.00, 213.3, 295.0)">t</text><text xml:space="preserve" font-family="Palatino-Bold,Palatino" font-weight="bold" font-size="24.0" fill="#404040" transform="matrix(1.00, 0.00, -0.00, -1.00, 221.2, 295.0)">r</text><text xml:space="preserve" font-family="Palatino-Bold,Palatino" font-weight="bold" font-size="24.0" fill="#404040" transform="matrix(1.00, 0.00, -0.00, -1.00, 230.6, 295.0)">o</text><text xml:space="preserve" font-family="Palatino-Bold,Palatino" font-weight="bold" font-size="24.0" fill="#404040" transform="matrix(1.00, 0.00, -0.00, -1.00, 243.9, 295.0)">l</text></g></g><path d="M 53.1 0.0 C 38.6 0.0 24.1 -0.2 9.6 -0.2 L 9.1 -0.2 " fill="none" stroke="#404040" stroke-width="2.00" transform="matrix(1.00, 0.00, 0.00, -1.00, 299.9, 320.8)"></path><path d="M 310.0 325.8 L 300.4 321.0 L 310.0 316.2 Z M 310.0 325.8 " fill="#404040"></path><g><clipPath id="clip0x600001cb2c00"><path d="M 676.9 107.8 L 859.0 107.8 L 859.0 195.0 L 676.9 195.0 Z M 676.9 107.8 "></path></clipPath><g clip-path="url(#clip0x600001cb2c00)"><path d="M 0.0 69.1 L 0.1 14.1 C 0.1 6.3 6.3 0.0 14.1 0.0 L 163.9 0.0 C 171.7 0.0 178.1 6.3 178.1 14.1 L 178.1 69.1 C 178.1 76.9 171.7 83.0 163.9 83.0 L 14.1 83.0 C 6.3 83.0 0.0 76.9 0.0 69.1 Z M 0.0 69.1 " fill="none" stroke="#66635F" stroke-width="2.00" transform="matrix(1.00, 0.00, 0.00, -1.00, 678.9, 193.0)"></path></g></g><g><clipPath id="clip0x600001cb2e40"><path d="M 687.8 112.9 L 848.1 112.9 L 848.1 190.0 L 687.8 190.0 Z M 687.8 112.9 "></path></clipPath><g clip-path="url(#clip0x600001cb2e40)"><text xml:space="preserve" font-family="Palatino-Bold,Palatino" font-weight="bold" font-size="24.0" fill="#404040" transform="matrix(1.00, 0.00, -0.00, -1.00, 696.6, 141.6)">M</text><text xml:space="preserve" font-family="Palatino-Bold,Palatino" font-weight="bold" font-size="24.0" fill="#404040" transform="matrix(1.00, 0.00, -0.00, -1.00, 720.6, 141.6)">a</text><text xml:space="preserve" font-family="Palatino-Bold,Palatino" font-weight="bold" font-size="24.0" fill="#404040" transform="matrix(1.00, 0.00, -0.00, -1.00, 732.6, 141.6)">i</text><text xml:space="preserve" font-family="Palatino-Bold,Palatino" font-weight="bold" font-size="24.0" fill="#404040" transform="matrix(1.00, 0.00, -0.00, -1.00, 740.6, 141.6)">n</text><text xml:space="preserve" font-family="Palatino-Bold,Palatino" font-weight="bold" font-size="24.0" fill="#404040" transform="matrix(1.00, 0.00, -0.00, -1.00, 755.3, 141.6)">t</text><text xml:space="preserve" font-family="Palatino-Bold,Palatino" font-weight="bold" font-size="24.0" fill="#404040" transform="matrix(1.00, 0.00, -0.00, -1.00, 763.3, 141.6)">e</text><text xml:space="preserve" font-family="Palatino-Bold,Palatino" font-weight="bold" font-size="24.0" fill="#404040" transform="matrix(1.00, 0.00, -0.00, -1.00, 775.3, 141.6)">n</text><text xml:space="preserve" font-family="Palatino-Bold,Palatino" font-weight="bold" font-size="24.0" fill="#404040" transform="matrix(1.00, 0.00, -0.00, -1.00, 789.9, 141.6)">a</text><text xml:space="preserve" font-family="Palatino-Bold,Palatino" font-weight="bold" font-size="24.0" fill="#404040" transform="matrix(1.00, 0.00, -0.00, -1.00, 801.9, 141.6)">n</text><text xml:space="preserve" font-family="Palatino-Bold,Palatino" font-weight="bold" font-size="24.0" fill="#404040" transform="matrix(1.00, 0.00, -0.00, -1.00, 816.6, 141.6)">c</text><text xml:space="preserve" font-family="Palatino-Bold,Palatino" font-weight="bold" font-size="24.0" fill="#404040" transform="matrix(1.00, 0.00, -0.00, -1.00, 827.2, 141.6)">e</text></g></g><path d="M 85.8 0.0 C 58.2 92.1 30.9 184.2 3.2 276.4 L 2.2 277.6 " fill="none" stroke="#404040" stroke-width="2.00" transform="matrix(1.00, 0.00, 0.00, -1.00, 780.8, 479.6)"></path><path d="M 778.7 204.3 L 780.5 193.8 L 787.9 201.6 Z M 778.7 204.3 " fill="#404040"></path><path d="M 0.0 0.0 C 122.9 37.3 245.9 74.2 368.8 111.5 L 370.1 112.5 " fill="none" stroke="#404040" stroke-width="2.00" transform="matrix(1.00, 0.00, 0.00, -1.00, 299.9, 293.5)"></path><path d="M 667.6 176.7 L 678.2 178.5 L 670.4 185.9 Z M 667.6 176.7 " fill="#404040"></path><path d="M 41.8 77.2 L 41.8 76.8 C 28.0 51.2 13.8 25.6 0.0 0.0 " fill="none" stroke="#404040" stroke-width="2.00" transform="matrix(1.00, 0.00, 0.00, -1.00, 699.2, 279.2)"></path><path d="M 736.3 200.6 L 745.1 194.4 L 744.8 205.2 Z M 736.3 200.6 " fill="#404040"></path></g></svg>