<?xml version="1.0" encoding="UTF-8" standalone="no"?><svg xmlns="http://www.w3.org/2000/svg" xmlns:xlink="http://www.w3.org/1999/xlink" clip-rule="evenodd" stroke-miterlimit="10" viewBox="0 0 183 89"><desc>SVG generated by Keynote</desc><defs></defs><g transform="matrix(1.00, 0.00, -0.00, -1.00, 0.0, 89.0)"><g><clipPath id="clip0x6080016ba3a0"><path d="M 0.6 87.9 L 182.6 88.6 L 183.0 1.4 L 0.9 0.7 Z M 0.6 87.9 "></path></clipPath><g clip-path="url(#clip0x6080016ba3a0)"><path d="M 0.0 69.1 L 0.0 14.1 C 0.0 6.3 6.3 0.0 14.1 0.0 L 163.9 0.0 C 171.7 0.0 178.1 6.3 178.1 14.1 L 178.1 69.1 C 178.1 76.9 171.7 83.2 163.9 83.2 L 14.1 83.2 C 6.3 83.2 0.0 76.9 0.0 69.1 Z M 0.0 69.1 " fill="none" stroke="#66635F" stroke-width="2.00" transform="matrix(1.00, 0.00, 0.00, -1.00, 2.6, 85.9)"></path></g></g><g><clipPath id="clip0x6080016b9da0"><path d="M 11.5 82.8 L 171.7 83.5 L 172.0 6.4 L 11.8 5.8 Z M 11.5 82.8 "></path></clipPath><g clip-path="url(#clip0x6080016b9da0)"><text xml:space="preserve" font-family="Palatino-Bold,Palatino" font-weight="bold" font-size="24.0" fill="#404040" transform="matrix(1.00, 0.00, 0.00, -1.00, 41.1, 34.6)">O</text><text xml:space="preserve" font-family="Palatino-Bold,Palatino" font-weight="bold" font-size="24.0" fill="#404040" transform="matrix(1.00, 0.00, 0.00, -1.00, 61.1, 34.7)">r</text><text xml:space="preserve" font-family="Palatino-Bold,Palatino" font-weight="bold" font-size="24.0" fill="#404040" transform="matrix(1.00, 0.00, 0.00, -1.00, 70.5, 34.7)">d</text><text xml:space="preserve" font-family="Palatino-Bold,Palatino" font-weight="bold" font-size="24.0" fill="#404040" transform="matrix(1.00, 0.00, 0.00, -1.00, 85.1, 34.8)">e</text><text xml:space="preserve" font-family="Palatino-Bold,Palatino" font-weight="bold" font-size="24.0" fill="#404040" transform="matrix(1.00, 0.00, 0.00, -1.00, 97.1, 34.8)">r</text><text xml:space="preserve" font-family="Palatino-Bold,Palatino" font-weight="bold" font-size="24.0" fill="#404040" transform="matrix(1.00, 0.00, 0.00, -1.00, 106.5, 34.9)">i</text><text xml:space="preserve" font-family="Palatino-Bold,Palatino" font-weight="bold" font-size="24.0" fill="#404040" transform="matrix(1.00, 0.00, 0.00, -1.00, 114.5, 34.9)">n</text><text xml:space="preserve" font-family="Palatino-Bold,Palatino" font-weight="bold" font-size="24.0" fill="#404040" transform="matrix(1.00, 0.00, 0.00, -1.00, 129.1, 34.9)">g</text></g></g></g></svg>