<?xml version="1.0" encoding="UTF-8" standalone="no"?><svg xmlns="http://www.w3.org/2000/svg" xmlns:xlink="http://www.w3.org/1999/xlink" clip-rule="evenodd" stroke-miterlimit="10" viewBox="0 0 851 40"><desc>SVG generated by Keynote</desc><defs></defs><g transform="matrix(1.00, 0.00, -0.00, -1.00, 0.0, 40.0)"><text xml:space="preserve" font-family="ZapfDingbatsITC,Zapf Dingbats" font-size="21.6" fill="#919191" transform="matrix(1.00, 0.00, -0.00, -1.00, 0.0, 16.8)">â–</text><text xml:space="preserve" font-family="Palatino-Italic,Palatino" font-style="italic" font-size="36.0" fill="#404040" transform="matrix(1.00, 0.00, -0.00, -1.00, 37.0, 11.0)">S</text><text xml:space="preserve" font-family="Palatino-Italic,Palatino" font-style="italic" font-size="36.0" fill="#404040" transform="matrix(1.00, 0.00, -0.00, -1.00, 57.0, 11.0)">t</text><text xml:space="preserve" font-family="Palatino-Italic,Palatino" font-style="italic" font-size="36.0" fill="#404040" transform="matrix(1.00, 0.00, -0.00, -1.00, 69.0, 11.0)">a</text><text xml:space="preserve" font-family="Palatino-Italic,Palatino" font-style="italic" font-size="36.0" fill="#404040" transform="matrix(1.00, 0.00, -0.00, -1.00, 85.0, 11.0)">t</text><text xml:space="preserve" font-family="Palatino-Italic,Palatino" font-style="italic" font-size="36.0" fill="#404040" transform="matrix(1.00, 0.00, -0.00, -1.00, 97.0, 11.0)">e</text><text xml:space="preserve" font-family="Palatino-Italic,Palatino" font-style="italic" font-size="36.0" fill="#404040" transform="matrix(1.00, 0.00, -0.00, -1.00, 111.0, 11.0)">m</text><text xml:space="preserve" font-family="Palatino-Italic,Palatino" font-style="italic" font-size="36.0" fill="#404040" transform="matrix(1.00, 0.00, -0.00, -1.00, 139.0, 11.0)">e</text><text xml:space="preserve" font-family="Palatino-Italic,Palatino" font-style="italic" font-size="36.0" fill="#404040" transform="matrix(1.00, 0.00, -0.00, -1.00, 153.0, 11.0)">n</text><text xml:space="preserve" font-family="Palatino-Italic,Palatino" font-style="italic" font-size="36.0" fill="#404040" transform="matrix(1.00, 0.00, -0.00, -1.00, 173.0, 11.0)">t</text><text xml:space="preserve" font-family="Palatino-Italic,Palatino" font-style="italic" font-size="36.0" fill="#404040" transform="matrix(1.00, 0.00, -0.00, -1.00, 185.0, 11.0)"> </text><text xml:space="preserve" font-family="Palatino-Italic,Palatino" font-style="italic" font-size="36.0" fill="#404040" transform="matrix(1.00, 0.00, -0.00, -1.00, 194.0, 11.0)">o</text><text xml:space="preserve" font-family="Palatino-Italic,Palatino" font-style="italic" font-size="36.0" fill="#404040" transform="matrix(1.00, 0.00, -0.00, -1.00, 210.0, 11.0)">f</text><text xml:space="preserve" font-family="Palatino-Italic,Palatino" font-style="italic" font-size="36.0" fill="#404040" transform="matrix(1.00, 0.00, -0.00, -1.00, 220.0, 11.0)"> </text><text xml:space="preserve" font-family="Palatino-Italic,Palatino" font-style="italic" font-size="36.0" fill="#404040" transform="matrix(1.00, 0.00, -0.00, -1.00, 229.0, 11.0)">I</text><text xml:space="preserve" font-family="Palatino-Italic,Palatino" font-style="italic" font-size="36.0" fill="#404040" transform="matrix(1.00, 0.00, -0.00, -1.00, 241.0, 11.0)">n</text><text xml:space="preserve" font-family="Palatino-Italic,Palatino" font-style="italic" font-size="36.0" fill="#404040" transform="matrix(1.00, 0.00, -0.00, -1.00, 261.0, 11.0)">t</text><text xml:space="preserve" font-family="Palatino-Italic,Palatino" font-style="italic" font-size="36.0" fill="#404040" transform="matrix(1.00, 0.00, -0.00, -1.00, 273.0, 11.0)">e</text><text xml:space="preserve" font-family="Palatino-Italic,Palatino" font-style="italic" font-size="36.0" fill="#404040" transform="matrix(1.00, 0.00, -0.00, -1.00, 287.0, 11.0)">r</text><text xml:space="preserve" font-family="Palatino-Italic,Palatino" font-style="italic" font-size="36.0" fill="#404040" transform="matrix(1.00, 0.00, -0.00, -1.00, 301.0, 11.0)">n</text><text xml:space="preserve" font-family="Palatino-Italic,Palatino" font-style="italic" font-size="36.0" fill="#404040" transform="matrix(1.00, 0.00, -0.00, -1.00, 321.1, 11.0)">a</text><text xml:space="preserve" font-family="Palatino-Italic,Palatino" font-style="italic" font-size="36.0" fill="#404040" transform="matrix(1.00, 0.00, -0.00, -1.00, 337.0, 11.0)">t</text><text xml:space="preserve" font-family="Palatino-Italic,Palatino" font-style="italic" font-size="36.0" fill="#404040" transform="matrix(1.00, 0.00, -0.00, -1.00, 349.0, 11.0)">i</text><text xml:space="preserve" font-family="Palatino-Italic,Palatino" font-style="italic" font-size="36.0" fill="#404040" transform="matrix(1.00, 0.00, -0.00, -1.00, 359.0, 11.0)">o</text><text xml:space="preserve" font-family="Palatino-Italic,Palatino" font-style="italic" font-size="36.0" fill="#404040" transform="matrix(1.00, 0.00, -0.00, -1.00, 375.0, 11.0)">n</text><text xml:space="preserve" font-family="Palatino-Italic,Palatino" font-style="italic" font-size="36.0" fill="#404040" transform="matrix(1.00, 0.00, -0.00, -1.00, 395.0, 11.0)">a</text><text xml:space="preserve" font-family="Palatino-Italic,Palatino" font-style="italic" font-size="36.0" fill="#404040" transform="matrix(1.00, 0.00, -0.00, -1.00, 411.0, 11.0)">l</text><text xml:space="preserve" font-family="Palatino-Italic,Palatino" font-style="italic" font-size="36.0" fill="#404040" transform="matrix(1.00, 0.00, -0.00, -1.00, 421.0, 11.0)"> </text><text xml:space="preserve" font-family="Palatino-Italic,Palatino" font-style="italic" font-size="36.0" fill="#404040" transform="matrix(1.00, 0.00, -0.00, -1.00, 430.0, 11.0)">C</text><text xml:space="preserve" font-family="Palatino-Italic,Palatino" font-style="italic" font-size="36.0" fill="#404040" transform="matrix(1.00, 0.00, -0.00, -1.00, 454.0, 11.0)">a</text><text xml:space="preserve" font-family="Palatino-Italic,Palatino" font-style="italic" font-size="36.0" fill="#404040" transform="matrix(1.00, 0.00, -0.00, -1.00, 470.0, 11.0)">t</text><text xml:space="preserve" font-family="Palatino-Italic,Palatino" font-style="italic" font-size="36.0" fill="#404040" transform="matrix(1.00, 0.00, -0.00, -1.00, 481.9, 11.0)">a</text><text xml:space="preserve" font-family="Palatino-Italic,Palatino" font-style="italic" font-size="36.0" fill="#404040" transform="matrix(1.00, 0.00, -0.00, -1.00, 497.9, 11.0)">l</text><text xml:space="preserve" font-family="Palatino-Italic,Palatino" font-style="italic" font-size="36.0" fill="#404040" transform="matrix(1.00, 0.00, -0.00, -1.00, 507.9, 11.0)">o</text><text xml:space="preserve" font-family="Palatino-Italic,Palatino" font-style="italic" font-size="36.0" fill="#404040" transform="matrix(1.00, 0.00, -0.00, -1.00, 523.9, 11.0)">g</text><text xml:space="preserve" font-family="Palatino-Italic,Palatino" font-style="italic" font-size="36.0" fill="#404040" transform="matrix(1.00, 0.00, -0.00, -1.00, 541.9, 11.0)">i</text><text xml:space="preserve" font-family="Palatino-Italic,Palatino" font-style="italic" font-size="36.0" fill="#404040" transform="matrix(1.00, 0.00, -0.00, -1.00, 551.9, 11.0)">n</text><text xml:space="preserve" font-family="Palatino-Italic,Palatino" font-style="italic" font-size="36.0" fill="#404040" transform="matrix(1.00, 0.00, -0.00, -1.00, 571.9, 11.0)">g</text><text xml:space="preserve" font-family="Palatino-Italic,Palatino" font-style="italic" font-size="36.0" fill="#404040" transform="matrix(1.00, 0.00, -0.00, -1.00, 589.9, 11.0)"> </text><text xml:space="preserve" font-family="Palatino-Italic,Palatino" font-style="italic" font-size="36.0" fill="#404040" transform="matrix(1.00, 0.00, -0.00, -1.00, 598.9, 11.0)">P</text><text xml:space="preserve" font-family="Palatino-Italic,Palatino" font-style="italic" font-size="36.0" fill="#404040" transform="matrix(1.00, 0.00, -0.00, -1.00, 620.9, 11.0)">r</text><text xml:space="preserve" font-family="Palatino-Italic,Palatino" font-style="italic" font-size="36.0" fill="#404040" transform="matrix(1.00, 0.00, -0.00, -1.00, 634.9, 11.0)">i</text><text xml:space="preserve" font-family="Palatino-Italic,Palatino" font-style="italic" font-size="36.0" fill="#404040" transform="matrix(1.00, 0.00, -0.00, -1.00, 644.9, 11.0)">n</text><text xml:space="preserve" font-family="Palatino-Italic,Palatino" font-style="italic" font-size="36.0" fill="#404040" transform="matrix(1.00, 0.00, -0.00, -1.00, 664.9, 11.0)">c</text><text xml:space="preserve" font-family="Palatino-Italic,Palatino" font-style="italic" font-size="36.0" fill="#404040" transform="matrix(1.00, 0.00, -0.00, -1.00, 679.6, 11.0)">i</text><text xml:space="preserve" font-family="Palatino-Italic,Palatino" font-style="italic" font-size="36.0" fill="#404040" transform="matrix(1.00, 0.00, -0.00, -1.00, 689.6, 11.0)">p</text><text xml:space="preserve" font-family="Palatino-Italic,Palatino" font-style="italic" font-size="36.0" fill="#404040" transform="matrix(1.00, 0.00, -0.00, -1.00, 707.6, 11.0)">l</text><text xml:space="preserve" font-family="Palatino-Italic,Palatino" font-style="italic" font-size="36.0" fill="#404040" transform="matrix(1.00, 0.00, -0.00, -1.00, 717.6, 11.0)">e</text><text xml:space="preserve" font-family="Palatino-Italic,Palatino" font-style="italic" font-size="36.0" fill="#404040" transform="matrix(1.00, 0.00, -0.00, -1.00, 731.6, 11.0)">s</text><text xml:space="preserve" font-family="Palatino-Italic,Palatino" font-style="italic" font-size="36.0" fill="#404040" transform="matrix(1.00, 0.00, -0.00, -1.00, 745.6, 11.0)"> </text><text xml:space="preserve" font-family="Palatino-Roman,Palatino" font-size="36.0" fill="#404040" transform="matrix(1.00, 0.00, -0.00, -1.00, 754.6, 11.0)">(</text><text xml:space="preserve" font-family="Palatino-Roman,Palatino" font-size="36.0" fill="#404040" transform="matrix(1.00, 0.00, -0.00, -1.00, 766.6, 11.0)">1</text><text xml:space="preserve" font-family="Palatino-Roman,Palatino" font-size="36.0" fill="#404040" transform="matrix(1.00, 0.00, -0.00, -1.00, 784.6, 11.0)">9</text><text xml:space="preserve" font-family="Palatino-Roman,Palatino" font-size="36.0" fill="#404040" transform="matrix(1.00, 0.00, -0.00, -1.00, 802.6, 11.0)">6</text><text xml:space="preserve" font-family="Palatino-Roman,Palatino" font-size="36.0" fill="#404040" transform="matrix(1.00, 0.00, -0.00, -1.00, 820.6, 11.0)">1</text><text xml:space="preserve" font-family="Palatino-Roman,Palatino" font-size="36.0" fill="#404040" transform="matrix(1.00, 0.00, -0.00, -1.00, 838.6, 11.0)">)</text></g></svg>