<?xml version="1.0" encoding="UTF-8" standalone="no"?><svg xmlns="http://www.w3.org/2000/svg" xmlns:xlink="http://www.w3.org/1999/xlink" clip-rule="evenodd" stroke-miterlimit="10" viewBox="0 0 1024 768"><desc>SVG generated by Keynote</desc><defs></defs><g transform="matrix(1.00, 0.00, -0.00, -1.00, 0.0, 768.0)"><g><clipPath id="clip0x6000010ba280"><path d="M 0.0 768.0 L 1024.0 768.0 L 1024.0 0.0 L 0.0 0.0 Z M 0.0 768.0 "></path></clipPath><g clip-path="url(#clip0x6000010ba280)"><image xlink:href="../../F253DB65-92C6-4850-9693-63CDF5253250/assets/5A8C990C4A4597A5304AC9F14CDA7C87.jpeg" width="2048.00" height="1536.00" transform="matrix(0.50, 0.00, -0.00, -0.50, 0.0, 768.0)"></image></g></g><g opacity="0.30"><g><clipPath id="clip0x6000010bb8a0"><path d="M 39.0 595.0 L 986.0 595.0 L 986.0 599.0 L 39.0 599.0 Z M 39.0 595.0 "></path></clipPath><g clip-path="url(#clip0x6000010bb8a0)"><path d="M 0.0 0.5 L 944.7 0.5 L 944.7 0.5 L 0.0 0.5 Z M 0.0 0.0 " fill="none" stroke="#434343" stroke-width="1.00" transform="matrix(1.00, 0.00, 0.00, -1.00, 40.0, 597.0)"></path></g></g></g><g opacity="0.30"><g><clipPath id="clip0x6000010ba6a0"><path d="M 39.0 716.0 L 986.0 716.0 L 986.0 720.0 L 39.0 720.0 Z M 39.0 716.0 "></path></clipPath><g clip-path="url(#clip0x6000010ba6a0)"><path d="M 0.0 0.5 L 944.7 0.5 L 944.7 0.5 L 0.0 0.5 Z M 0.0 0.0 " fill="none" stroke="#434343" stroke-width="1.00" transform="matrix(1.00, 0.00, 0.00, -1.00, 40.0, 718.0)"></path></g></g></g><text xml:space="preserve" font-family="BodoniSvtyTwoITCTT-Book,Bodoni SvtyTwo ITC TT" font-size="70.0" fill="#D93D2A" transform="matrix(1.00, 0.00, -0.00, -1.00, 333.6, 632.6)">B</text><text xml:space="preserve" font-family="BodoniSvtyTwoITCTT-Book,Bodoni SvtyTwo ITC TT" font-size="70.0" fill="#D93D2A" transform="matrix(1.00, 0.00, -0.00, -1.00, 373.6, 632.6)">i</text><text xml:space="preserve" font-family="BodoniSvtyTwoITCTT-Book,Bodoni SvtyTwo ITC TT" font-size="70.0" fill="#D93D2A" transform="matrix(1.00, 0.00, -0.00, -1.00, 391.1, 632.6)">b</text><text xml:space="preserve" font-family="BodoniSvtyTwoITCTT-Book,Bodoni SvtyTwo ITC TT" font-size="70.0" fill="#D93D2A" transform="matrix(1.00, 0.00, -0.00, -1.00, 424.8, 632.6)">l</text><text xml:space="preserve" font-family="BodoniSvtyTwoITCTT-Book,Bodoni SvtyTwo ITC TT" font-size="70.0" fill="#D93D2A" transform="matrix(1.00, 0.00, -0.00, -1.00, 441.3, 632.6)">i</text><text xml:space="preserve" font-family="BodoniSvtyTwoITCTT-Book,Bodoni SvtyTwo ITC TT" font-size="70.0" fill="#D93D2A" transform="matrix(1.00, 0.00, -0.00, -1.00, 458.8, 632.6)">o</text><text xml:space="preserve" font-family="BodoniSvtyTwoITCTT-Book,Bodoni SvtyTwo ITC TT" font-size="70.0" fill="#D93D2A" transform="matrix(1.00, 0.00, -0.00, -1.00, 492.4, 632.6)">g</text><text xml:space="preserve" font-family="BodoniSvtyTwoITCTT-Book,Bodoni SvtyTwo ITC TT" font-size="70.0" fill="#D93D2A" transform="matrix(1.00, 0.00, -0.00, -1.00, 525.1, 632.6)">r</text><text xml:space="preserve" font-family="BodoniSvtyTwoITCTT-Book,Bodoni SvtyTwo ITC TT" font-size="70.0" fill="#D93D2A" transform="matrix(1.00, 0.00, -0.00, -1.00, 548.8, 632.6)">a</text><text xml:space="preserve" font-family="BodoniSvtyTwoITCTT-Book,Bodoni SvtyTwo ITC TT" font-size="70.0" fill="#D93D2A" transform="matrix(1.00, 0.00, -0.00, -1.00, 576.6, 632.6)">p</text><text xml:space="preserve" font-family="BodoniSvtyTwoITCTT-Book,Bodoni SvtyTwo ITC TT" font-size="70.0" fill="#D93D2A" transform="matrix(1.00, 0.00, -0.00, -1.00, 610.8, 632.6)">h</text><text xml:space="preserve" font-family="BodoniSvtyTwoITCTT-Book,Bodoni SvtyTwo ITC TT" font-size="70.0" fill="#D93D2A" transform="matrix(1.00, 0.00, -0.00, -1.00, 644.2, 632.6)">i</text><text xml:space="preserve" font-family="BodoniSvtyTwoITCTT-Book,Bodoni SvtyTwo ITC TT" font-size="70.0" fill="#D93D2A" transform="matrix(1.00, 0.00, -0.00, -1.00, 661.8, 632.6)">c</text><text xml:space="preserve" font-family="ZapfDingbatsITC,Zapf Dingbats" font-size="21.6" fill="#919191" transform="matrix(1.00, 0.00, -0.00, -1.00, 44.0, 420.8)">❖</text><text xml:space="preserve" font-family="Palatino-Roman,Palatino" font-size="36.0" fill="#404040" transform="matrix(1.00, 0.00, -0.00, -1.00, 81.0, 415.0)">W</text><text xml:space="preserve" font-family="Palatino-Roman,Palatino" font-size="36.0" fill="#404040" transform="matrix(1.00, 0.00, -0.00, -1.00, 113.7, 415.0)">o</text><text xml:space="preserve" font-family="Palatino-Roman,Palatino" font-size="36.0" fill="#404040" transform="matrix(1.00, 0.00, -0.00, -1.00, 133.3, 415.0)">r</text><text xml:space="preserve" font-family="Palatino-Roman,Palatino" font-size="36.0" fill="#404040" transform="matrix(1.00, 0.00, -0.00, -1.00, 147.6, 415.0)">k</text><text xml:space="preserve" font-family="ZapfDingbatsITC,Zapf Dingbats" font-size="21.6" fill="#919191" transform="matrix(1.00, 0.00, -0.00, -1.00, 44.0, 348.8)">❖</text><text xml:space="preserve" font-family="Palatino-Roman,Palatino" font-size="36.0" fill="#404040" transform="matrix(1.00, 0.00, -0.00, -1.00, 81.0, 343.0)">E</text><text xml:space="preserve" font-family="Palatino-Roman,Palatino" font-size="36.0" fill="#404040" transform="matrix(1.00, 0.00, -0.00, -1.00, 103.0, 343.0)">x</text><text xml:space="preserve" font-family="Palatino-Roman,Palatino" font-size="36.0" fill="#404040" transform="matrix(1.00, 0.00, -0.00, -1.00, 121.6, 343.0)">p</text><text xml:space="preserve" font-family="Palatino-Roman,Palatino" font-size="36.0" fill="#404040" transform="matrix(1.00, 0.00, -0.00, -1.00, 143.2, 343.0)">r</text><text xml:space="preserve" font-family="Palatino-Roman,Palatino" font-size="36.0" fill="#404040" transform="matrix(1.00, 0.00, -0.00, -1.00, 156.8, 343.0)">e</text><text xml:space="preserve" font-family="Palatino-Roman,Palatino" font-size="36.0" fill="#404040" transform="matrix(1.00, 0.00, -0.00, -1.00, 174.0, 343.0)">s</text><text xml:space="preserve" font-family="Palatino-Roman,Palatino" font-size="36.0" fill="#404040" transform="matrix(1.00, 0.00, -0.00, -1.00, 189.3, 343.0)">s</text><text xml:space="preserve" font-family="Palatino-Roman,Palatino" font-size="36.0" fill="#404040" transform="matrix(1.00, 0.00, -0.00, -1.00, 204.5, 343.0)">i</text><text xml:space="preserve" font-family="Palatino-Roman,Palatino" font-size="36.0" fill="#404040" transform="matrix(1.00, 0.00, -0.00, -1.00, 215.0, 343.0)">o</text><text xml:space="preserve" font-family="Palatino-Roman,Palatino" font-size="36.0" fill="#404040" transform="matrix(1.00, 0.00, -0.00, -1.00, 234.7, 343.0)">n</text><text xml:space="preserve" font-family="ZapfDingbatsITC,Zapf Dingbats" font-size="21.6" fill="#919191" transform="matrix(1.00, 0.00, -0.00, -1.00, 44.0, 276.8)">❖</text><text xml:space="preserve" font-family="Palatino-Roman,Palatino" font-size="36.0" fill="#404040" transform="matrix(1.00, 0.00, -0.00, -1.00, 81.0, 271.0)">M</text><text xml:space="preserve" font-family="Palatino-Roman,Palatino" font-size="36.0" fill="#404040" transform="matrix(1.00, 0.00, -0.00, -1.00, 115.0, 271.0)">a</text><text xml:space="preserve" font-family="Palatino-Roman,Palatino" font-size="36.0" fill="#404040" transform="matrix(1.00, 0.00, -0.00, -1.00, 133.0, 271.0)">n</text><text xml:space="preserve" font-family="Palatino-Roman,Palatino" font-size="36.0" fill="#404040" transform="matrix(1.00, 0.00, -0.00, -1.00, 154.0, 271.0)">i</text><text xml:space="preserve" font-family="Palatino-Roman,Palatino" font-size="36.0" fill="#404040" transform="matrix(1.00, 0.00, -0.00, -1.00, 164.5, 271.0)">f</text><text xml:space="preserve" font-family="Palatino-Roman,Palatino" font-size="36.0" fill="#404040" transform="matrix(1.00, 0.00, -0.00, -1.00, 176.5, 271.0)">e</text><text xml:space="preserve" font-family="Palatino-Roman,Palatino" font-size="36.0" fill="#404040" transform="matrix(1.00, 0.00, -0.00, -1.00, 193.7, 271.0)">s</text><text xml:space="preserve" font-family="Palatino-Roman,Palatino" font-size="36.0" fill="#404040" transform="matrix(1.00, 0.00, -0.00, -1.00, 209.0, 271.0)">t</text><text xml:space="preserve" font-family="Palatino-Roman,Palatino" font-size="36.0" fill="#404040" transform="matrix(1.00, 0.00, -0.00, -1.00, 220.7, 271.0)">a</text><text xml:space="preserve" font-family="Palatino-Roman,Palatino" font-size="36.0" fill="#404040" transform="matrix(1.00, 0.00, -0.00, -1.00, 238.7, 271.0)">t</text><text xml:space="preserve" font-family="Palatino-Roman,Palatino" font-size="36.0" fill="#404040" transform="matrix(1.00, 0.00, -0.00, -1.00, 250.5, 271.0)">i</text><text xml:space="preserve" font-family="Palatino-Roman,Palatino" font-size="36.0" fill="#404040" transform="matrix(1.00, 0.00, -0.00, -1.00, 260.9, 271.0)">o</text><text xml:space="preserve" font-family="Palatino-Roman,Palatino" font-size="36.0" fill="#404040" transform="matrix(1.00, 0.00, -0.00, -1.00, 280.6, 271.0)">n</text><text xml:space="preserve" font-family="ZapfDingbatsITC,Zapf Dingbats" font-size="21.6" fill="#919191" transform="matrix(1.00, 0.00, -0.00, -1.00, 44.0, 204.8)">❖</text><text xml:space="preserve" font-family="Palatino-Roman,Palatino" font-size="36.0" fill="#404040" transform="matrix(1.00, 0.00, -0.00, -1.00, 81.0, 199.0)">I</text><text xml:space="preserve" font-family="Palatino-Roman,Palatino" font-size="36.0" fill="#404040" transform="matrix(1.00, 0.00, -0.00, -1.00, 93.1, 199.0)">t</text><text xml:space="preserve" font-family="Palatino-Roman,Palatino" font-size="36.0" fill="#404040" transform="matrix(1.00, 0.00, -0.00, -1.00, 104.9, 199.0)">e</text><text xml:space="preserve" font-family="Palatino-Roman,Palatino" font-size="36.0" fill="#404040" transform="matrix(1.00, 0.00, -0.00, -1.00, 122.1, 199.0)">m</text><text xml:space="preserve" font-family="Palatino-Roman,Palatino" font-size="18.0" fill="#4B4945" transform="matrix(1.00, 0.00, -0.00, -1.00, 507.0, 16.0)">9</text></g></svg>