<?xml version="1.0" encoding="UTF-8" standalone="no"?><svg xmlns="http://www.w3.org/2000/svg" xmlns:xlink="http://www.w3.org/1999/xlink" clip-rule="evenodd" stroke-miterlimit="10" viewBox="0 0 355 207"><desc>SVG generated by Keynote</desc><defs></defs><g transform="matrix(1.00, 0.00, -0.00, -1.00, 0.0, 207.0)"><text xml:space="preserve" font-family="ZapfDingbatsITC,Zapf Dingbats" font-size="18.4" fill="#919191" transform="matrix(1.00, 0.00, -0.00, -1.00, 0.0, 188.2)">❖</text><text xml:space="preserve" font-family="Palatino-Roman,Palatino" font-size="30.6" fill="#404040" transform="matrix(1.00, 0.00, -0.00, -1.00, 31.4, 183.5)">C</text><text xml:space="preserve" font-family="Palatino-Roman,Palatino" font-size="30.6" fill="#404040" transform="matrix(1.00, 0.00, -0.00, -1.00, 53.1, 183.5)">o</text><text xml:space="preserve" font-family="Palatino-Roman,Palatino" font-size="30.6" fill="#404040" transform="matrix(1.00, 0.00, -0.00, -1.00, 69.8, 183.5)">m</text><text xml:space="preserve" font-family="Palatino-Roman,Palatino" font-size="30.6" fill="#404040" transform="matrix(1.00, 0.00, -0.00, -1.00, 96.9, 183.5)">m</text><text xml:space="preserve" font-family="Palatino-Roman,Palatino" font-size="30.6" fill="#404040" transform="matrix(1.00, 0.00, -0.00, -1.00, 123.9, 183.5)">e</text><text xml:space="preserve" font-family="Palatino-Roman,Palatino" font-size="30.6" fill="#404040" transform="matrix(1.00, 0.00, -0.00, -1.00, 138.5, 183.5)">r</text><text xml:space="preserve" font-family="Palatino-Roman,Palatino" font-size="30.6" fill="#404040" transform="matrix(1.00, 0.00, -0.00, -1.00, 150.1, 183.5)">c</text><text xml:space="preserve" font-family="Palatino-Roman,Palatino" font-size="30.6" fill="#404040" transform="matrix(1.00, 0.00, -0.00, -1.00, 163.6, 183.5)">i</text><text xml:space="preserve" font-family="Palatino-Roman,Palatino" font-size="30.6" fill="#404040" transform="matrix(1.00, 0.00, -0.00, -1.00, 172.5, 183.5)">a</text><text xml:space="preserve" font-family="Palatino-Roman,Palatino" font-size="30.6" fill="#404040" transform="matrix(1.00, 0.00, -0.00, -1.00, 187.8, 183.5)">l</text><text xml:space="preserve" font-family="ZapfDingbatsITC,Zapf Dingbats" font-size="18.4" fill="#919191" transform="matrix(1.00, 0.00, -0.00, -1.00, 37.0, 127.8)">❖</text><text xml:space="preserve" font-family="Palatino-Roman,Palatino" font-size="30.6" fill="#404040" transform="matrix(1.00, 0.00, -0.00, -1.00, 68.5, 123.1)">E</text><text xml:space="preserve" font-family="Palatino-Roman,Palatino" font-size="30.6" fill="#404040" transform="matrix(1.00, 0.00, -0.00, -1.00, 87.1, 123.1)">x</text><text xml:space="preserve" font-family="Palatino-Roman,Palatino" font-size="30.6" fill="#404040" transform="matrix(1.00, 0.00, -0.00, -1.00, 102.9, 123.1)">L</text><text xml:space="preserve" font-family="Palatino-Roman,Palatino" font-size="30.6" fill="#404040" transform="matrix(1.00, 0.00, -0.00, -1.00, 121.6, 123.1)">i</text><text xml:space="preserve" font-family="Palatino-Roman,Palatino" font-size="30.6" fill="#404040" transform="matrix(1.00, 0.00, -0.00, -1.00, 130.5, 123.1)">b</text><text xml:space="preserve" font-family="Palatino-Roman,Palatino" font-size="30.6" fill="#404040" transform="matrix(1.00, 0.00, -0.00, -1.00, 147.5, 123.1)">r</text><text xml:space="preserve" font-family="Palatino-Roman,Palatino" font-size="30.6" fill="#404040" transform="matrix(1.00, 0.00, -0.00, -1.00, 159.5, 123.1)">i</text><text xml:space="preserve" font-family="Palatino-Roman,Palatino" font-size="30.6" fill="#404040" transform="matrix(1.00, 0.00, -0.00, -1.00, 168.4, 123.1)">s</text><text xml:space="preserve" font-family="ZapfDingbatsITC,Zapf Dingbats" font-size="18.4" fill="#919191" transform="matrix(1.00, 0.00, -0.00, -1.00, 37.0, 67.4)">❖</text><text xml:space="preserve" font-family="Palatino-Roman,Palatino" font-size="30.6" fill="#404040" transform="matrix(1.00, 0.00, -0.00, -1.00, 68.5, 62.7)">I</text><text xml:space="preserve" font-family="Palatino-Roman,Palatino" font-size="30.6" fill="#404040" transform="matrix(1.00, 0.00, -0.00, -1.00, 78.8, 62.7)">n</text><text xml:space="preserve" font-family="Palatino-Roman,Palatino" font-size="30.6" fill="#404040" transform="matrix(1.00, 0.00, -0.00, -1.00, 96.6, 62.7)">n</text><text xml:space="preserve" font-family="Palatino-Roman,Palatino" font-size="30.6" fill="#404040" transform="matrix(1.00, 0.00, -0.00, -1.00, 114.4, 62.7)">o</text><text xml:space="preserve" font-family="Palatino-Roman,Palatino" font-size="30.6" fill="#404040" transform="matrix(1.00, 0.00, -0.00, -1.00, 131.1, 62.7)">v</text><text xml:space="preserve" font-family="Palatino-Roman,Palatino" font-size="30.6" fill="#404040" transform="matrix(1.00, 0.00, -0.00, -1.00, 148.4, 62.7)">a</text><text xml:space="preserve" font-family="Palatino-Roman,Palatino" font-size="30.6" fill="#404040" transform="matrix(1.00, 0.00, -0.00, -1.00, 163.7, 62.7)">t</text><text xml:space="preserve" font-family="Palatino-Roman,Palatino" font-size="30.6" fill="#404040" transform="matrix(1.00, 0.00, -0.00, -1.00, 173.6, 62.7)">i</text><text xml:space="preserve" font-family="Palatino-Roman,Palatino" font-size="30.6" fill="#404040" transform="matrix(1.00, 0.00, -0.00, -1.00, 182.6, 62.7)">v</text><text xml:space="preserve" font-family="Palatino-Roman,Palatino" font-size="30.6" fill="#404040" transform="matrix(1.00, 0.00, -0.00, -1.00, 199.8, 62.7)">e</text><text xml:space="preserve" font-family="Palatino-Roman,Palatino" font-size="30.6" fill="#404040" transform="matrix(1.00, 0.00, -0.00, -1.00, 214.5, 62.7)"> </text><text xml:space="preserve" font-family="Palatino-Roman,Palatino" font-size="30.6" fill="#404040" transform="matrix(1.00, 0.00, -0.00, -1.00, 222.1, 62.7)">I</text><text xml:space="preserve" font-family="Palatino-Roman,Palatino" font-size="30.6" fill="#404040" transform="matrix(1.00, 0.00, -0.00, -1.00, 232.5, 62.7)">n</text><text xml:space="preserve" font-family="Palatino-Roman,Palatino" font-size="30.6" fill="#404040" transform="matrix(1.00, 0.00, -0.00, -1.00, 250.3, 62.7)">t</text><text xml:space="preserve" font-family="Palatino-Roman,Palatino" font-size="30.6" fill="#404040" transform="matrix(1.00, 0.00, -0.00, -1.00, 260.2, 62.7)">e</text><text xml:space="preserve" font-family="Palatino-Roman,Palatino" font-size="30.6" fill="#404040" transform="matrix(1.00, 0.00, -0.00, -1.00, 274.9, 62.7)">r</text><text xml:space="preserve" font-family="Palatino-Roman,Palatino" font-size="30.6" fill="#404040" transform="matrix(1.00, 0.00, -0.00, -1.00, 287.0, 62.7)">f</text><text xml:space="preserve" font-family="Palatino-Roman,Palatino" font-size="30.6" fill="#404040" transform="matrix(1.00, 0.00, -0.00, -1.00, 297.2, 62.7)">a</text><text xml:space="preserve" font-family="Palatino-Roman,Palatino" font-size="30.6" fill="#404040" transform="matrix(1.00, 0.00, -0.00, -1.00, 312.5, 62.7)">c</text><text xml:space="preserve" font-family="Palatino-Roman,Palatino" font-size="30.6" fill="#404040" transform="matrix(1.00, 0.00, -0.00, -1.00, 326.1, 62.7)">e</text><text xml:space="preserve" font-family="Palatino-Roman,Palatino" font-size="30.6" fill="#404040" transform="matrix(1.00, 0.00, -0.00, -1.00, 340.7, 62.7)">s</text><text xml:space="preserve" font-family="ZapfDingbatsITC,Zapf Dingbats" font-size="18.4" fill="#919191" transform="matrix(1.00, 0.00, -0.00, -1.00, 37.0, 7.0)">❖</text><text xml:space="preserve" font-family="Palatino-Roman,Palatino" font-size="30.6" fill="#404040" transform="matrix(1.00, 0.00, -0.00, -1.00, 68.5, 2.3)">O</text><text xml:space="preserve" font-family="Palatino-Roman,Palatino" font-size="30.6" fill="#404040" transform="matrix(1.00, 0.00, -0.00, -1.00, 92.5, 2.3)">C</text><text xml:space="preserve" font-family="Palatino-Roman,Palatino" font-size="30.6" fill="#404040" transform="matrix(1.00, 0.00, -0.00, -1.00, 114.2, 2.3)">L</text><text xml:space="preserve" font-family="Palatino-Roman,Palatino" font-size="30.6" fill="#404040" transform="matrix(1.00, 0.00, -0.00, -1.00, 132.9, 2.3)">C</text></g></svg>