<?xml version="1.0" encoding="UTF-8" standalone="no"?><svg xmlns="http://www.w3.org/2000/svg" xmlns:xlink="http://www.w3.org/1999/xlink" clip-rule="evenodd" stroke-miterlimit="10" viewBox="0 0 338 207"><desc>SVG generated by Keynote</desc><defs></defs><g transform="matrix(1.00, 0.00, -0.00, -1.00, 0.0, 207.0)"><text xml:space="preserve" font-family="ZapfDingbatsITC,Zapf Dingbats" font-size="18.4" fill="#919191" transform="matrix(1.00, 0.00, -0.00, -1.00, 0.0, 188.6)">❖</text><text xml:space="preserve" font-family="Palatino-Roman,Palatino" font-size="30.6" fill="#404040" transform="matrix(1.00, 0.00, -0.00, -1.00, 31.4, 183.9)">O</text><text xml:space="preserve" font-family="Palatino-Roman,Palatino" font-size="30.6" fill="#404040" transform="matrix(1.00, 0.00, -0.00, -1.00, 55.5, 183.9)">p</text><text xml:space="preserve" font-family="Palatino-Roman,Palatino" font-size="30.6" fill="#404040" transform="matrix(1.00, 0.00, -0.00, -1.00, 73.9, 183.9)">e</text><text xml:space="preserve" font-family="Palatino-Roman,Palatino" font-size="30.6" fill="#404040" transform="matrix(1.00, 0.00, -0.00, -1.00, 88.6, 183.9)">n</text><text xml:space="preserve" font-family="Palatino-Roman,Palatino" font-size="30.6" fill="#404040" transform="matrix(1.00, 0.00, -0.00, -1.00, 106.4, 183.9)"> </text><text xml:space="preserve" font-family="Palatino-Roman,Palatino" font-size="30.6" fill="#404040" transform="matrix(1.00, 0.00, -0.00, -1.00, 114.0, 183.9)">S</text><text xml:space="preserve" font-family="Palatino-Roman,Palatino" font-size="30.6" fill="#404040" transform="matrix(1.00, 0.00, -0.00, -1.00, 130.1, 183.9)">o</text><text xml:space="preserve" font-family="Palatino-Roman,Palatino" font-size="30.6" fill="#404040" transform="matrix(1.00, 0.00, -0.00, -1.00, 146.8, 183.9)">u</text><text xml:space="preserve" font-family="Palatino-Roman,Palatino" font-size="30.6" fill="#404040" transform="matrix(1.00, 0.00, -0.00, -1.00, 165.2, 183.9)">r</text><text xml:space="preserve" font-family="Palatino-Roman,Palatino" font-size="30.6" fill="#404040" transform="matrix(1.00, 0.00, -0.00, -1.00, 176.8, 183.9)">c</text><text xml:space="preserve" font-family="Palatino-Roman,Palatino" font-size="30.6" fill="#404040" transform="matrix(1.00, 0.00, -0.00, -1.00, 190.4, 183.9)">e</text><text xml:space="preserve" font-family="ZapfDingbatsITC,Zapf Dingbats" font-size="18.4" fill="#919191" transform="matrix(1.00, 0.00, -0.00, -1.00, 37.0, 128.2)">❖</text><text xml:space="preserve" font-family="Palatino-Roman,Palatino" font-size="30.6" fill="#404040" transform="matrix(1.00, 0.00, -0.00, -1.00, 68.5, 123.5)">E</text><text xml:space="preserve" font-family="Palatino-Roman,Palatino" font-size="30.6" fill="#404040" transform="matrix(1.00, 0.00, -0.00, -1.00, 87.1, 123.5)">v</text><text xml:space="preserve" font-family="Palatino-Roman,Palatino" font-size="30.6" fill="#404040" transform="matrix(1.00, 0.00, -0.00, -1.00, 104.4, 123.5)">e</text><text xml:space="preserve" font-family="Palatino-Roman,Palatino" font-size="30.6" fill="#404040" transform="matrix(1.00, 0.00, -0.00, -1.00, 119.1, 123.5)">r</text><text xml:space="preserve" font-family="Palatino-Roman,Palatino" font-size="30.6" fill="#404040" transform="matrix(1.00, 0.00, -0.00, -1.00, 130.6, 123.5)">g</text><text xml:space="preserve" font-family="Palatino-Roman,Palatino" font-size="30.6" fill="#404040" transform="matrix(1.00, 0.00, -0.00, -1.00, 147.7, 123.5)">r</text><text xml:space="preserve" font-family="Palatino-Roman,Palatino" font-size="30.6" fill="#404040" transform="matrix(1.00, 0.00, -0.00, -1.00, 159.2, 123.5)">e</text><text xml:space="preserve" font-family="Palatino-Roman,Palatino" font-size="30.6" fill="#404040" transform="matrix(1.00, 0.00, -0.00, -1.00, 173.9, 123.5)">e</text><text xml:space="preserve" font-family="Palatino-Roman,Palatino" font-size="30.6" fill="#404040" transform="matrix(1.00, 0.00, -0.00, -1.00, 188.5, 123.5)">n</text><text xml:space="preserve" font-family="Palatino-Roman,Palatino" font-size="30.6" fill="#404040" transform="matrix(1.00, 0.00, -0.00, -1.00, 206.3, 123.5)">-</text><text xml:space="preserve" font-family="Palatino-Roman,Palatino" font-size="30.6" fill="#404040" transform="matrix(1.00, 0.00, -0.00, -1.00, 216.5, 123.5)">O</text><text xml:space="preserve" font-family="Palatino-Roman,Palatino" font-size="30.6" fill="#404040" transform="matrix(1.00, 0.00, -0.00, -1.00, 240.6, 123.5)">p</text><text xml:space="preserve" font-family="Palatino-Roman,Palatino" font-size="30.6" fill="#404040" transform="matrix(1.00, 0.00, -0.00, -1.00, 259.0, 123.5)">e</text><text xml:space="preserve" font-family="Palatino-Roman,Palatino" font-size="30.6" fill="#404040" transform="matrix(1.00, 0.00, -0.00, -1.00, 273.6, 123.5)">n</text><text xml:space="preserve" font-family="Palatino-Roman,Palatino" font-size="30.6" fill="#404040" transform="matrix(1.00, 0.00, -0.00, -1.00, 291.4, 123.5)">I</text><text xml:space="preserve" font-family="Palatino-Roman,Palatino" font-size="30.6" fill="#404040" transform="matrix(1.00, 0.00, -0.00, -1.00, 301.7, 123.5)">L</text><text xml:space="preserve" font-family="Palatino-Roman,Palatino" font-size="30.6" fill="#404040" transform="matrix(1.00, 0.00, -0.00, -1.00, 320.4, 123.5)">S</text><text xml:space="preserve" font-family="ZapfDingbatsITC,Zapf Dingbats" font-size="18.4" fill="#919191" transform="matrix(1.00, 0.00, -0.00, -1.00, 37.0, 67.8)">❖</text><text xml:space="preserve" font-family="Palatino-Roman,Palatino" font-size="30.6" fill="#404040" transform="matrix(1.00, 0.00, -0.00, -1.00, 68.5, 63.1)">K</text><text xml:space="preserve" font-family="Palatino-Roman,Palatino" font-size="30.6" fill="#404040" transform="matrix(1.00, 0.00, -0.00, -1.00, 90.7, 63.1)">o</text><text xml:space="preserve" font-family="Palatino-Roman,Palatino" font-size="30.6" fill="#404040" transform="matrix(1.00, 0.00, -0.00, -1.00, 107.4, 63.1)">h</text><text xml:space="preserve" font-family="Palatino-Roman,Palatino" font-size="30.6" fill="#404040" transform="matrix(1.00, 0.00, -0.00, -1.00, 125.2, 63.1)">a</text><text xml:space="preserve" font-family="ZapfDingbatsITC,Zapf Dingbats" font-size="18.4" fill="#919191" transform="matrix(1.00, 0.00, -0.00, -1.00, 37.0, 7.4)">❖</text><text xml:space="preserve" font-family="Palatino-Roman,Palatino" font-size="30.6" fill="#404040" transform="matrix(1.00, 0.00, -0.00, -1.00, 68.5, 2.7)">K</text><text xml:space="preserve" font-family="Palatino-Roman,Palatino" font-size="30.6" fill="#404040" transform="matrix(1.00, 0.00, -0.00, -1.00, 90.7, 2.7)">u</text><text xml:space="preserve" font-family="Palatino-Roman,Palatino" font-size="30.6" fill="#404040" transform="matrix(1.00, 0.00, -0.00, -1.00, 109.1, 2.7)">a</text><text xml:space="preserve" font-family="Palatino-Roman,Palatino" font-size="30.6" fill="#404040" transform="matrix(1.00, 0.00, -0.00, -1.00, 124.4, 2.7)">l</text><text xml:space="preserve" font-family="Palatino-Roman,Palatino" font-size="30.6" fill="#404040" transform="matrix(1.00, 0.00, -0.00, -1.00, 133.3, 2.7)">i</text><text xml:space="preserve" font-family="Palatino-Roman,Palatino" font-size="30.6" fill="#404040" transform="matrix(1.00, 0.00, -0.00, -1.00, 142.2, 2.7)"> </text><text xml:space="preserve" font-family="Palatino-Roman,Palatino" font-size="30.6" fill="#404040" transform="matrix(1.00, 0.00, -0.00, -1.00, 149.9, 2.7)">O</text><text xml:space="preserve" font-family="Palatino-Roman,Palatino" font-size="30.6" fill="#404040" transform="matrix(1.00, 0.00, -0.00, -1.00, 173.9, 2.7)">L</text><text xml:space="preserve" font-family="Palatino-Roman,Palatino" font-size="30.6" fill="#404040" transform="matrix(1.00, 0.00, -0.00, -1.00, 192.6, 2.7)">E</text></g></svg>