<?xml version="1.0" encoding="UTF-8" standalone="no"?><svg xmlns="http://www.w3.org/2000/svg" xmlns:xlink="http://www.w3.org/1999/xlink" clip-rule="evenodd" stroke-miterlimit="10" viewBox="0 0 171 245"><desc>SVG generated by Keynote</desc><defs></defs><g transform="matrix(1.00, 0.00, -0.00, -1.00, 0.0, 245.0)"><text xml:space="preserve" font-family="ZapfDingbatsITC,Zapf Dingbats" font-size="21.6" fill="#919191" transform="matrix(1.00, 0.00, -0.00, -1.00, 0.0, 223.8)">❖</text><text xml:space="preserve" font-family="Palatino-Roman,Palatino" font-size="36.0" fill="#404040" transform="matrix(1.00, 0.00, -0.00, -1.00, 37.0, 218.0)">C</text><text xml:space="preserve" font-family="Palatino-Roman,Palatino" font-size="36.0" fill="#404040" transform="matrix(1.00, 0.00, -0.00, -1.00, 62.5, 218.0)">o</text><text xml:space="preserve" font-family="Palatino-Roman,Palatino" font-size="36.0" fill="#404040" transform="matrix(1.00, 0.00, -0.00, -1.00, 82.2, 218.0)">n</text><text xml:space="preserve" font-family="Palatino-Roman,Palatino" font-size="36.0" fill="#404040" transform="matrix(1.00, 0.00, -0.00, -1.00, 103.1, 218.0)">c</text><text xml:space="preserve" font-family="Palatino-Roman,Palatino" font-size="36.0" fill="#404040" transform="matrix(1.00, 0.00, -0.00, -1.00, 119.1, 218.0)">e</text><text xml:space="preserve" font-family="Palatino-Roman,Palatino" font-size="36.0" fill="#404040" transform="matrix(1.00, 0.00, -0.00, -1.00, 136.3, 218.0)">p</text><text xml:space="preserve" font-family="Palatino-Roman,Palatino" font-size="36.0" fill="#404040" transform="matrix(1.00, 0.00, -0.00, -1.00, 158.0, 218.0)">t</text><text xml:space="preserve" font-family="ZapfDingbatsITC,Zapf Dingbats" font-size="21.6" fill="#919191" transform="matrix(1.00, 0.00, -0.00, -1.00, 0.0, 151.8)">❖</text><text xml:space="preserve" font-family="Palatino-Roman,Palatino" font-size="36.0" fill="#404040" transform="matrix(1.00, 0.00, -0.00, -1.00, 37.0, 146.0)">O</text><text xml:space="preserve" font-family="Palatino-Roman,Palatino" font-size="36.0" fill="#404040" transform="matrix(1.00, 0.00, -0.00, -1.00, 65.3, 146.0)">b</text><text xml:space="preserve" font-family="Palatino-Roman,Palatino" font-size="36.0" fill="#404040" transform="matrix(1.00, 0.00, -0.00, -1.00, 85.2, 146.0)">j</text><text xml:space="preserve" font-family="Palatino-Roman,Palatino" font-size="36.0" fill="#404040" transform="matrix(1.00, 0.00, -0.00, -1.00, 93.6, 146.0)">e</text><text xml:space="preserve" font-family="Palatino-Roman,Palatino" font-size="36.0" fill="#404040" transform="matrix(1.00, 0.00, -0.00, -1.00, 110.9, 146.0)">c</text><text xml:space="preserve" font-family="Palatino-Roman,Palatino" font-size="36.0" fill="#404040" transform="matrix(1.00, 0.00, -0.00, -1.00, 126.9, 146.0)">t</text><text xml:space="preserve" font-family="ZapfDingbatsITC,Zapf Dingbats" font-size="21.6" fill="#919191" transform="matrix(1.00, 0.00, -0.00, -1.00, 0.0, 79.8)">❖</text><text xml:space="preserve" font-family="Palatino-Roman,Palatino" font-size="36.0" fill="#404040" transform="matrix(1.00, 0.00, -0.00, -1.00, 37.0, 74.0)">E</text><text xml:space="preserve" font-family="Palatino-Roman,Palatino" font-size="36.0" fill="#404040" transform="matrix(1.00, 0.00, -0.00, -1.00, 59.0, 74.0)">v</text><text xml:space="preserve" font-family="Palatino-Roman,Palatino" font-size="36.0" fill="#404040" transform="matrix(1.00, 0.00, -0.00, -1.00, 79.3, 74.0)">e</text><text xml:space="preserve" font-family="Palatino-Roman,Palatino" font-size="36.0" fill="#404040" transform="matrix(1.00, 0.00, -0.00, -1.00, 96.6, 74.0)">n</text><text xml:space="preserve" font-family="Palatino-Roman,Palatino" font-size="36.0" fill="#404040" transform="matrix(1.00, 0.00, -0.00, -1.00, 117.5, 74.0)">t</text><text xml:space="preserve" font-family="ZapfDingbatsITC,Zapf Dingbats" font-size="21.6" fill="#919191" transform="matrix(1.00, 0.00, -0.00, -1.00, 0.0, 7.8)">❖</text><text xml:space="preserve" font-family="Palatino-Roman,Palatino" font-size="36.0" fill="#404040" transform="matrix(1.00, 0.00, -0.00, -1.00, 37.0, 2.0)">P</text><text xml:space="preserve" font-family="Palatino-Roman,Palatino" font-size="36.0" fill="#404040" transform="matrix(1.00, 0.00, -0.00, -1.00, 58.7, 2.0)">l</text><text xml:space="preserve" font-family="Palatino-Roman,Palatino" font-size="36.0" fill="#404040" transform="matrix(1.00, 0.00, -0.00, -1.00, 69.2, 2.0)">a</text><text xml:space="preserve" font-family="Palatino-Roman,Palatino" font-size="36.0" fill="#404040" transform="matrix(1.00, 0.00, -0.00, -1.00, 87.2, 2.0)">c</text><text xml:space="preserve" font-family="Palatino-Roman,Palatino" font-size="36.0" fill="#404040" transform="matrix(1.00, 0.00, -0.00, -1.00, 103.2, 2.0)">e</text></g></svg>