<?xml version="1.0" encoding="UTF-8" standalone="no"?><svg xmlns="http://www.w3.org/2000/svg" xmlns:xlink="http://www.w3.org/1999/xlink" clip-rule="evenodd" stroke-miterlimit="10" viewBox="0 0 1024 768"><desc>SVG generated by Keynote</desc><defs></defs><g transform="matrix(1.00, 0.00, -0.00, -1.00, 0.0, 768.0)"><g><clipPath id="clip0x600000aaed60"><path d="M 0.0 768.0 L 1024.0 768.0 L 1024.0 0.0 L 0.0 0.0 Z M 0.0 768.0 "></path></clipPath><g clip-path="url(#clip0x600000aaed60)"><image xlink:href="../../F253DB65-92C6-4850-9693-63CDF5253250/assets/5A8C990C4A4597A5304AC9F14CDA7C87.jpeg" width="2048.00" height="1536.00" transform="matrix(0.50, 0.00, -0.00, -0.50, 0.0, 768.0)"></image></g></g><g opacity="0.30"><g><clipPath id="clip0x6000008b8fc0"><path d="M 39.0 247.0 L 986.0 247.0 L 986.0 251.0 L 39.0 251.0 Z M 39.0 247.0 "></path></clipPath><g clip-path="url(#clip0x6000008b8fc0)"><path d="M 0.0 0.5 L 944.8 0.5 L 944.8 0.5 L 0.0 0.5 Z M 0.0 0.0 " fill="none" stroke="#434343" stroke-width="1.00" transform="matrix(1.00, 0.00, 0.00, -1.00, 40.0, 249.0)"></path></g></g></g><g opacity="0.30"><g><clipPath id="clip0x600000eaa920"><path d="M 39.0 444.0 L 986.0 444.0 L 986.0 448.0 L 39.0 448.0 Z M 39.0 444.0 "></path></clipPath><g clip-path="url(#clip0x600000eaa920)"><path d="M 0.0 0.5 L 944.9 0.5 L 944.9 0.5 L 0.0 0.5 Z M 0.0 0.0 " fill="none" stroke="#434343" stroke-width="1.00" transform="matrix(1.00, 0.00, 0.00, -1.00, 40.0, 446.0)"></path></g></g></g><g opacity="0.30"><g><clipPath id="clip0x6000006b6440"><path d="M 627.0 281.0 L 631.0 281.0 L 631.0 413.0 L 627.0 413.0 Z M 627.0 281.0 "></path></clipPath><g clip-path="url(#clip0x6000006b6440)"><path d="M -0.3 0.0 L 129.4 0.0 L 129.4 0.0 L -0.3 0.0 Z M 0.0 0.0 " fill="none" stroke="#434343" stroke-width="1.00" transform="matrix(0.00, 1.00, 1.00, 0.00, 629.5, 282.3)"></path></g></g></g><text xml:space="preserve" font-family="Palatino-Italic,Palatino" font-style="italic" font-size="24.0" fill="#404040" transform="matrix(1.00, 0.00, -0.00, -1.00, 44.0, 462.7)">I</text><text xml:space="preserve" font-family="Palatino-Italic,Palatino" font-style="italic" font-size="24.0" fill="#404040" transform="matrix(1.00, 0.00, -0.00, -1.00, 52.0, 462.7)">N</text><text xml:space="preserve" font-family="Palatino-Italic,Palatino" font-style="italic" font-size="24.0" fill="#404040" transform="matrix(1.00, 0.00, -0.00, -1.00, 70.7, 462.7)">L</text><text xml:space="preserve" font-family="Palatino-Italic,Palatino" font-style="italic" font-size="24.0" fill="#404040" transform="matrix(1.00, 0.00, -0.00, -1.00, 84.0, 462.7)">S</text><text xml:space="preserve" font-family="Palatino-Italic,Palatino" font-style="italic" font-size="24.0" fill="#404040" transform="matrix(1.00, 0.00, -0.00, -1.00, 97.4, 462.7)"> </text><text xml:space="preserve" font-family="Palatino-Italic,Palatino" font-style="italic" font-size="24.0" fill="#404040" transform="matrix(1.00, 0.00, -0.00, -1.00, 103.4, 462.7)">5</text><text xml:space="preserve" font-family="Palatino-Italic,Palatino" font-style="italic" font-size="24.0" fill="#404040" transform="matrix(1.00, 0.00, -0.00, -1.00, 115.4, 462.7)">2</text><text xml:space="preserve" font-family="Palatino-Italic,Palatino" font-style="italic" font-size="24.0" fill="#404040" transform="matrix(1.00, 0.00, -0.00, -1.00, 127.4, 462.7)">0</text><text xml:space="preserve" font-family="Palatino-Italic,Palatino" font-style="italic" font-size="24.0" fill="#404040" transform="matrix(1.00, 0.00, -0.00, -1.00, 139.4, 462.7)">:</text><text xml:space="preserve" font-family="Palatino-Italic,Palatino" font-style="italic" font-size="24.0" fill="#404040" transform="matrix(1.00, 0.00, -0.00, -1.00, 145.4, 462.7)"> </text><text xml:space="preserve" font-family="Palatino-Italic,Palatino" font-style="italic" font-size="24.0" fill="#404040" transform="matrix(1.00, 0.00, -0.00, -1.00, 151.4, 462.7)">O</text><text xml:space="preserve" font-family="Palatino-Italic,Palatino" font-style="italic" font-size="24.0" fill="#404040" transform="matrix(1.00, 0.00, -0.00, -1.00, 170.0, 462.7)">r</text><text xml:space="preserve" font-family="Palatino-Italic,Palatino" font-style="italic" font-size="24.0" fill="#404040" transform="matrix(1.00, 0.00, -0.00, -1.00, 178.9, 462.7)">g</text><text xml:space="preserve" font-family="Palatino-Italic,Palatino" font-style="italic" font-size="24.0" fill="#404040" transform="matrix(1.00, 0.00, -0.00, -1.00, 190.9, 462.7)">a</text><text xml:space="preserve" font-family="Palatino-Italic,Palatino" font-style="italic" font-size="24.0" fill="#404040" transform="matrix(1.00, 0.00, -0.00, -1.00, 201.6, 462.7)">n</text><text xml:space="preserve" font-family="Palatino-Italic,Palatino" font-style="italic" font-size="24.0" fill="#404040" transform="matrix(1.00, 0.00, -0.00, -1.00, 214.9, 462.7)">i</text><text xml:space="preserve" font-family="Palatino-Italic,Palatino" font-style="italic" font-size="24.0" fill="#404040" transform="matrix(1.00, 0.00, -0.00, -1.00, 221.6, 462.7)">z</text><text xml:space="preserve" font-family="Palatino-Italic,Palatino" font-style="italic" font-size="24.0" fill="#404040" transform="matrix(1.00, 0.00, -0.00, -1.00, 232.3, 462.7)">a</text><text xml:space="preserve" font-family="Palatino-Italic,Palatino" font-style="italic" font-size="24.0" fill="#404040" transform="matrix(1.00, 0.00, -0.00, -1.00, 242.9, 462.7)">t</text><text xml:space="preserve" font-family="Palatino-Italic,Palatino" font-style="italic" font-size="24.0" fill="#404040" transform="matrix(1.00, 0.00, -0.00, -1.00, 250.9, 462.7)">i</text><text xml:space="preserve" font-family="Palatino-Italic,Palatino" font-style="italic" font-size="24.0" fill="#404040" transform="matrix(1.00, 0.00, -0.00, -1.00, 257.6, 462.7)">o</text><text xml:space="preserve" font-family="Palatino-Italic,Palatino" font-style="italic" font-size="24.0" fill="#404040" transform="matrix(1.00, 0.00, -0.00, -1.00, 268.2, 462.7)">n</text><text xml:space="preserve" font-family="Palatino-Italic,Palatino" font-style="italic" font-size="24.0" fill="#404040" transform="matrix(1.00, 0.00, -0.00, -1.00, 281.6, 462.7)"> </text><text xml:space="preserve" font-family="Palatino-Italic,Palatino" font-style="italic" font-size="24.0" fill="#404040" transform="matrix(1.00, 0.00, -0.00, -1.00, 287.6, 462.7)">o</text><text xml:space="preserve" font-family="Palatino-Italic,Palatino" font-style="italic" font-size="24.0" fill="#404040" transform="matrix(1.00, 0.00, -0.00, -1.00, 298.2, 462.7)">f</text><text xml:space="preserve" font-family="Palatino-Italic,Palatino" font-style="italic" font-size="24.0" fill="#404040" transform="matrix(1.00, 0.00, -0.00, -1.00, 304.9, 462.7)"> </text><text xml:space="preserve" font-family="Palatino-Italic,Palatino" font-style="italic" font-size="24.0" fill="#404040" transform="matrix(1.00, 0.00, -0.00, -1.00, 310.9, 462.7)">I</text><text xml:space="preserve" font-family="Palatino-Italic,Palatino" font-style="italic" font-size="24.0" fill="#404040" transform="matrix(1.00, 0.00, -0.00, -1.00, 318.9, 462.7)">n</text><text xml:space="preserve" font-family="Palatino-Italic,Palatino" font-style="italic" font-size="24.0" fill="#404040" transform="matrix(1.00, 0.00, -0.00, -1.00, 332.2, 462.7)">f</text><text xml:space="preserve" font-family="Palatino-Italic,Palatino" font-style="italic" font-size="24.0" fill="#404040" transform="matrix(1.00, 0.00, -0.00, -1.00, 338.9, 462.7)">o</text><text xml:space="preserve" font-family="Palatino-Italic,Palatino" font-style="italic" font-size="24.0" fill="#404040" transform="matrix(1.00, 0.00, -0.00, -1.00, 349.5, 462.7)">r</text><text xml:space="preserve" font-family="Palatino-Italic,Palatino" font-style="italic" font-size="24.0" fill="#404040" transform="matrix(1.00, 0.00, -0.00, -1.00, 358.9, 462.7)">m</text><text xml:space="preserve" font-family="Palatino-Italic,Palatino" font-style="italic" font-size="24.0" fill="#404040" transform="matrix(1.00, 0.00, -0.00, -1.00, 377.5, 462.7)">a</text><text xml:space="preserve" font-family="Palatino-Italic,Palatino" font-style="italic" font-size="24.0" fill="#404040" transform="matrix(1.00, 0.00, -0.00, -1.00, 388.2, 462.7)">t</text><text xml:space="preserve" font-family="Palatino-Italic,Palatino" font-style="italic" font-size="24.0" fill="#404040" transform="matrix(1.00, 0.00, -0.00, -1.00, 396.2, 462.7)">i</text><text xml:space="preserve" font-family="Palatino-Italic,Palatino" font-style="italic" font-size="24.0" fill="#404040" transform="matrix(1.00, 0.00, -0.00, -1.00, 402.8, 462.7)">o</text><text xml:space="preserve" font-family="Palatino-Italic,Palatino" font-style="italic" font-size="24.0" fill="#404040" transform="matrix(1.00, 0.00, -0.00, -1.00, 413.5, 462.7)">n</text><text xml:space="preserve" font-family="BodoniSvtyTwoITCTT-Book,Bodoni SvtyTwo ITC TT" font-size="58.1" fill="#D93D2A" transform="matrix(1.00, 0.00, -0.00, -1.00, 44.0, 359.5)">C</text><text xml:space="preserve" font-family="BodoniSvtyTwoITCTT-Book,Bodoni SvtyTwo ITC TT" font-size="58.1" fill="#D93D2A" transform="matrix(1.00, 0.00, -0.00, -1.00, 81.9, 359.5)">a</text><text xml:space="preserve" font-family="BodoniSvtyTwoITCTT-Book,Bodoni SvtyTwo ITC TT" font-size="58.1" fill="#D93D2A" transform="matrix(1.00, 0.00, -0.00, -1.00, 105.0, 359.5)">t</text><text xml:space="preserve" font-family="BodoniSvtyTwoITCTT-Book,Bodoni SvtyTwo ITC TT" font-size="58.1" fill="#D93D2A" transform="matrix(1.00, 0.00, -0.00, -1.00, 121.5, 359.5)">a</text><text xml:space="preserve" font-family="BodoniSvtyTwoITCTT-Book,Bodoni SvtyTwo ITC TT" font-size="58.1" fill="#D93D2A" transform="matrix(1.00, 0.00, -0.00, -1.00, 144.6, 359.5)">l</text><text xml:space="preserve" font-family="BodoniSvtyTwoITCTT-Book,Bodoni SvtyTwo ITC TT" font-size="58.1" fill="#D93D2A" transform="matrix(1.00, 0.00, -0.00, -1.00, 158.2, 359.5)">o</text><text xml:space="preserve" font-family="BodoniSvtyTwoITCTT-Book,Bodoni SvtyTwo ITC TT" font-size="58.1" fill="#D93D2A" transform="matrix(1.00, 0.00, -0.00, -1.00, 186.1, 359.5)">g</text><text xml:space="preserve" font-family="BodoniSvtyTwoITCTT-Book,Bodoni SvtyTwo ITC TT" font-size="58.1" fill="#D93D2A" transform="matrix(1.00, 0.00, -0.00, -1.00, 213.2, 359.5)">i</text><text xml:space="preserve" font-family="BodoniSvtyTwoITCTT-Book,Bodoni SvtyTwo ITC TT" font-size="58.1" fill="#D93D2A" transform="matrix(1.00, 0.00, -0.00, -1.00, 227.8, 359.5)">n</text><text xml:space="preserve" font-family="BodoniSvtyTwoITCTT-Book,Bodoni SvtyTwo ITC TT" font-size="58.1" fill="#D93D2A" transform="matrix(1.00, 0.00, -0.00, -1.00, 256.2, 359.5)">g</text><text xml:space="preserve" font-family="BodoniSvtyTwoITCTT-Book,Bodoni SvtyTwo ITC TT" font-size="58.1" fill="#D93D2A" transform="matrix(1.00, 0.00, -0.00, -1.00, 283.4, 359.5)">:</text><text xml:space="preserve" font-family="BodoniSvtyTwoITCTT-Book,Bodoni SvtyTwo ITC TT" font-size="58.1" fill="#D93D2A" transform="matrix(1.00, 0.00, -0.00, -1.00, 298.4, 359.5)"> </text><text xml:space="preserve" font-family="BodoniSvtyTwoITCTT-Book,Bodoni SvtyTwo ITC TT" font-size="58.1" fill="#D93D2A" transform="matrix(1.00, 0.00, -0.00, -1.00, 309.2, 359.5)">O</text><text xml:space="preserve" font-family="BodoniSvtyTwoITCTT-Book,Bodoni SvtyTwo ITC TT" font-size="58.1" fill="#D93D2A" transform="matrix(1.00, 0.00, -0.00, -1.00, 351.1, 359.5)">r</text><text xml:space="preserve" font-family="BodoniSvtyTwoITCTT-Book,Bodoni SvtyTwo ITC TT" font-size="58.1" fill="#D93D2A" transform="matrix(1.00, 0.00, -0.00, -1.00, 370.7, 359.5)">g</text><text xml:space="preserve" font-family="BodoniSvtyTwoITCTT-Book,Bodoni SvtyTwo ITC TT" font-size="58.1" fill="#D93D2A" transform="matrix(1.00, 0.00, -0.00, -1.00, 397.8, 359.5)">a</text><text xml:space="preserve" font-family="BodoniSvtyTwoITCTT-Book,Bodoni SvtyTwo ITC TT" font-size="58.1" fill="#D93D2A" transform="matrix(1.00, 0.00, -0.00, -1.00, 420.9, 359.5)">n</text><text xml:space="preserve" font-family="BodoniSvtyTwoITCTT-Book,Bodoni SvtyTwo ITC TT" font-size="58.1" fill="#D93D2A" transform="matrix(1.00, 0.00, -0.00, -1.00, 449.3, 359.5)">i</text><text xml:space="preserve" font-family="BodoniSvtyTwoITCTT-Book,Bodoni SvtyTwo ITC TT" font-size="58.1" fill="#D93D2A" transform="matrix(1.00, 0.00, -0.00, -1.00, 463.9, 359.5)">z</text><text xml:space="preserve" font-family="BodoniSvtyTwoITCTT-Book,Bodoni SvtyTwo ITC TT" font-size="58.1" fill="#D93D2A" transform="matrix(1.00, 0.00, -0.00, -1.00, 486.8, 359.5)">a</text><text xml:space="preserve" font-family="BodoniSvtyTwoITCTT-Book,Bodoni SvtyTwo ITC TT" font-size="58.1" fill="#D93D2A" transform="matrix(1.00, 0.00, -0.00, -1.00, 509.9, 359.5)">t</text><text xml:space="preserve" font-family="BodoniSvtyTwoITCTT-Book,Bodoni SvtyTwo ITC TT" font-size="58.1" fill="#D93D2A" transform="matrix(1.00, 0.00, -0.00, -1.00, 526.4, 359.5)">i</text><text xml:space="preserve" font-family="BodoniSvtyTwoITCTT-Book,Bodoni SvtyTwo ITC TT" font-size="58.1" fill="#D93D2A" transform="matrix(1.00, 0.00, -0.00, -1.00, 541.0, 359.5)">o</text><text xml:space="preserve" font-family="BodoniSvtyTwoITCTT-Book,Bodoni SvtyTwo ITC TT" font-size="58.1" fill="#D93D2A" transform="matrix(1.00, 0.00, -0.00, -1.00, 568.9, 359.5)">n</text><text xml:space="preserve" font-family="BodoniSvtyTwoITCTT-Book,Bodoni SvtyTwo ITC TT" font-size="58.1" fill="#D93D2A" transform="matrix(1.00, 0.00, -0.00, -1.00, 597.3, 359.5)"> </text><text xml:space="preserve" font-family="BodoniSvtyTwoITCTT-Book,Bodoni SvtyTwo ITC TT" font-size="58.1" fill="#D93D2A" transform="matrix(1.00, 0.00, -0.00, -1.00, 44.0, 297.4)">o</text><text xml:space="preserve" font-family="BodoniSvtyTwoITCTT-Book,Bodoni SvtyTwo ITC TT" font-size="58.1" fill="#D93D2A" transform="matrix(1.00, 0.00, -0.00, -1.00, 71.9, 297.4)">f</text><text xml:space="preserve" font-family="BodoniSvtyTwoITCTT-Book,Bodoni SvtyTwo ITC TT" font-size="58.1" fill="#D93D2A" transform="matrix(1.00, 0.00, -0.00, -1.00, 87.2, 297.4)"> </text><text xml:space="preserve" font-family="BodoniSvtyTwoITCTT-Book,Bodoni SvtyTwo ITC TT" font-size="58.1" fill="#D93D2A" transform="matrix(1.00, 0.00, -0.00, -1.00, 98.0, 297.4)">M</text><text xml:space="preserve" font-family="BodoniSvtyTwoITCTT-Book,Bodoni SvtyTwo ITC TT" font-size="58.1" fill="#D93D2A" transform="matrix(1.00, 0.00, -0.00, -1.00, 141.9, 297.4)">a</text><text xml:space="preserve" font-family="BodoniSvtyTwoITCTT-Book,Bodoni SvtyTwo ITC TT" font-size="58.1" fill="#D93D2A" transform="matrix(1.00, 0.00, -0.00, -1.00, 165.0, 297.4)">t</text><text xml:space="preserve" font-family="BodoniSvtyTwoITCTT-Book,Bodoni SvtyTwo ITC TT" font-size="58.1" fill="#D93D2A" transform="matrix(1.00, 0.00, -0.00, -1.00, 181.5, 297.4)">e</text><text xml:space="preserve" font-family="BodoniSvtyTwoITCTT-Book,Bodoni SvtyTwo ITC TT" font-size="58.1" fill="#D93D2A" transform="matrix(1.00, 0.00, -0.00, -1.00, 206.4, 297.4)">r</text><text xml:space="preserve" font-family="BodoniSvtyTwoITCTT-Book,Bodoni SvtyTwo ITC TT" font-size="58.1" fill="#D93D2A" transform="matrix(1.00, 0.00, -0.00, -1.00, 226.1, 297.4)">i</text><text xml:space="preserve" font-family="BodoniSvtyTwoITCTT-Book,Bodoni SvtyTwo ITC TT" font-size="58.1" fill="#D93D2A" transform="matrix(1.00, 0.00, -0.00, -1.00, 240.7, 297.4)">a</text><text xml:space="preserve" font-family="BodoniSvtyTwoITCTT-Book,Bodoni SvtyTwo ITC TT" font-size="58.1" fill="#D93D2A" transform="matrix(1.00, 0.00, -0.00, -1.00, 263.7, 297.4)">l</text><text xml:space="preserve" font-family="BodoniSvtyTwoITCTT-Book,Bodoni SvtyTwo ITC TT" font-size="58.1" fill="#D93D2A" transform="matrix(1.00, 0.00, -0.00, -1.00, 277.4, 297.4)">s</text><text xml:space="preserve" font-family="Palatino-Roman,Palatino" font-size="24.0" fill="#404040" transform="matrix(1.00, 0.00, -0.00, -1.00, 656.0, 369.7)">S</text><text xml:space="preserve" font-family="Palatino-Roman,Palatino" font-size="24.0" fill="#404040" transform="matrix(1.00, 0.00, -0.00, -1.00, 668.6, 369.7)">e</text><text xml:space="preserve" font-family="Palatino-Roman,Palatino" font-size="24.0" fill="#404040" transform="matrix(1.00, 0.00, -0.00, -1.00, 680.1, 369.7)">a</text><text xml:space="preserve" font-family="Palatino-Roman,Palatino" font-size="24.0" fill="#404040" transform="matrix(1.00, 0.00, -0.00, -1.00, 692.1, 369.7)">n</text><text xml:space="preserve" font-family="Palatino-Roman,Palatino" font-size="24.0" fill="#404040" transform="matrix(1.00, 0.00, -0.00, -1.00, 706.1, 369.7)"> </text><text xml:space="preserve" font-family="Palatino-Roman,Palatino" font-size="24.0" fill="#404040" transform="matrix(1.00, 0.00, -0.00, -1.00, 712.1, 369.7)">C</text><text xml:space="preserve" font-family="Palatino-Roman,Palatino" font-size="24.0" fill="#404040" transform="matrix(1.00, 0.00, -0.00, -1.00, 729.1, 369.7)">h</text><text xml:space="preserve" font-family="Palatino-Roman,Palatino" font-size="24.0" fill="#404040" transform="matrix(1.00, 0.00, -0.00, -1.00, 743.0, 369.7)">e</text><text xml:space="preserve" font-family="Palatino-Roman,Palatino" font-size="24.0" fill="#404040" transform="matrix(1.00, 0.00, -0.00, -1.00, 754.5, 369.7)">n</text><text xml:space="preserve" font-family="Palatino-Roman,Palatino" font-size="24.0" fill="#404040" transform="matrix(1.00, 0.00, -0.00, -1.00, 656.0, 337.7)">s</text><text xml:space="preserve" font-family="Palatino-Roman,Palatino" font-size="24.0" fill="#404040" transform="matrix(1.00, 0.00, -0.00, -1.00, 666.2, 337.7)">c</text><text xml:space="preserve" font-family="Palatino-Roman,Palatino" font-size="24.0" fill="#404040" transform="matrix(1.00, 0.00, -0.00, -1.00, 676.8, 337.7)">h</text><text xml:space="preserve" font-family="Palatino-Roman,Palatino" font-size="24.0" fill="#404040" transform="matrix(1.00, 0.00, -0.00, -1.00, 690.8, 337.7)">e</text><text xml:space="preserve" font-family="Palatino-Roman,Palatino" font-size="24.0" fill="#404040" transform="matrix(1.00, 0.00, -0.00, -1.00, 702.3, 337.7)">n</text><text xml:space="preserve" font-family="Palatino-Roman,Palatino" font-size="24.0" fill="#404040" transform="matrix(1.00, 0.00, -0.00, -1.00, 716.2, 337.7)">@</text><text xml:space="preserve" font-family="Palatino-Roman,Palatino" font-size="24.0" fill="#404040" transform="matrix(1.00, 0.00, -0.00, -1.00, 734.2, 337.7)">l</text><text xml:space="preserve" font-family="Palatino-Roman,Palatino" font-size="24.0" fill="#404040" transform="matrix(1.00, 0.00, -0.00, -1.00, 741.2, 337.7)">a</text><text xml:space="preserve" font-family="Palatino-Roman,Palatino" font-size="24.0" fill="#404040" transform="matrix(1.00, 0.00, -0.00, -1.00, 753.2, 337.7)">w</text><text xml:space="preserve" font-family="Palatino-Roman,Palatino" font-size="24.0" fill="#404040" transform="matrix(1.00, 0.00, -0.00, -1.00, 771.0, 337.7)">.</text><text xml:space="preserve" font-family="Palatino-Roman,Palatino" font-size="24.0" fill="#404040" transform="matrix(1.00, 0.00, -0.00, -1.00, 777.0, 337.7)">d</text><text xml:space="preserve" font-family="Palatino-Roman,Palatino" font-size="24.0" fill="#404040" transform="matrix(1.00, 0.00, -0.00, -1.00, 791.6, 337.7)">u</text><text xml:space="preserve" font-family="Palatino-Roman,Palatino" font-size="24.0" fill="#404040" transform="matrix(1.00, 0.00, -0.00, -1.00, 806.1, 337.7)">k</text><text xml:space="preserve" font-family="Palatino-Roman,Palatino" font-size="24.0" fill="#404040" transform="matrix(1.00, 0.00, -0.00, -1.00, 819.5, 337.7)">e</text><text xml:space="preserve" font-family="Palatino-Roman,Palatino" font-size="24.0" fill="#404040" transform="matrix(1.00, 0.00, -0.00, -1.00, 831.0, 337.7)">.</text><text xml:space="preserve" font-family="Palatino-Roman,Palatino" font-size="24.0" fill="#404040" transform="matrix(1.00, 0.00, -0.00, -1.00, 837.0, 337.7)">e</text><text xml:space="preserve" font-family="Palatino-Roman,Palatino" font-size="24.0" fill="#404040" transform="matrix(1.00, 0.00, -0.00, -1.00, 848.4, 337.7)">d</text><text xml:space="preserve" font-family="Palatino-Roman,Palatino" font-size="24.0" fill="#404040" transform="matrix(1.00, 0.00, -0.00, -1.00, 863.1, 337.7)">u</text><g><clipPath id="clip0x6000008be480"><path d="M 655.0 333.5 L 877.6 333.5 L 877.6 336.9 L 655.0 336.9 Z M 655.0 333.5 "></path></clipPath><g clip-path="url(#clip0x6000008be480)"><path d="M 4.0 106.8 L 225.6 106.8 " fill="none" stroke="#404040" stroke-width="1.41" transform="matrix(1.00, 0.00, 0.00, -1.00, 652.0, 442.0)"></path></g></g><text xml:space="preserve" font-family="Palatino-Roman,Palatino" font-size="24.0" fill="#404040" transform="matrix(1.00, 0.00, -0.00, -1.00, 656.0, 305.7)">F</text><text xml:space="preserve" font-family="Palatino-Roman,Palatino" font-size="24.0" fill="#404040" transform="matrix(1.00, 0.00, -0.00, -1.00, 669.4, 305.7)">e</text><text xml:space="preserve" font-family="Palatino-Roman,Palatino" font-size="24.0" fill="#404040" transform="matrix(1.00, 0.00, -0.00, -1.00, 680.8, 305.7)">b</text><text xml:space="preserve" font-family="Palatino-Roman,Palatino" font-size="24.0" fill="#404040" transform="matrix(1.00, 0.00, -0.00, -1.00, 694.1, 305.7)">r</text><text xml:space="preserve" font-family="Palatino-Roman,Palatino" font-size="24.0" fill="#404040" transform="matrix(1.00, 0.00, -0.00, -1.00, 703.4, 305.7)">u</text><text xml:space="preserve" font-family="Palatino-Roman,Palatino" font-size="24.0" fill="#404040" transform="matrix(1.00, 0.00, -0.00, -1.00, 717.9, 305.7)">a</text><text xml:space="preserve" font-family="Palatino-Roman,Palatino" font-size="24.0" fill="#404040" transform="matrix(1.00, 0.00, -0.00, -1.00, 729.9, 305.7)">r</text><text xml:space="preserve" font-family="Palatino-Roman,Palatino" font-size="24.0" fill="#404040" transform="matrix(1.00, 0.00, -0.00, -1.00, 739.4, 305.7)">y</text><text xml:space="preserve" font-family="Palatino-Roman,Palatino" font-size="24.0" fill="#404040" transform="matrix(1.00, 0.00, -0.00, -1.00, 752.7, 305.7)"> </text><text xml:space="preserve" font-family="Palatino-Roman,Palatino" font-size="24.0" fill="#404040" transform="matrix(1.00, 0.00, -0.00, -1.00, 758.7, 305.7)">3</text><text xml:space="preserve" font-family="Palatino-Roman,Palatino" font-size="24.0" fill="#404040" transform="matrix(1.00, 0.00, -0.00, -1.00, 770.7, 305.7)">,</text><text xml:space="preserve" font-family="Palatino-Roman,Palatino" font-size="24.0" fill="#404040" transform="matrix(1.00, 0.00, -0.00, -1.00, 776.7, 305.7)"> </text><text xml:space="preserve" font-family="Palatino-Roman,Palatino" font-size="24.0" fill="#404040" transform="matrix(1.00, 0.00, -0.00, -1.00, 782.7, 305.7)">2</text><text xml:space="preserve" font-family="Palatino-Roman,Palatino" font-size="24.0" fill="#404040" transform="matrix(1.00, 0.00, -0.00, -1.00, 794.7, 305.7)">0</text><text xml:space="preserve" font-family="Palatino-Roman,Palatino" font-size="24.0" fill="#404040" transform="matrix(1.00, 0.00, -0.00, -1.00, 806.7, 305.7)">1</text><text xml:space="preserve" font-family="Palatino-Roman,Palatino" font-size="24.0" fill="#404040" transform="matrix(1.00, 0.00, -0.00, -1.00, 818.7, 305.7)">4</text><text xml:space="preserve" font-family="Palatino-Roman,Palatino" font-size="18.0" fill="#4B4945" transform="matrix(1.00, 0.00, -0.00, -1.00, 507.0, 16.0)">1</text></g></svg>