<?xml version="1.0" encoding="UTF-8" standalone="no"?><svg xmlns="http://www.w3.org/2000/svg" xmlns:xlink="http://www.w3.org/1999/xlink" clip-rule="evenodd" stroke-miterlimit="10" viewBox="0 0 917 71"><desc>SVG generated by Keynote</desc><defs></defs><g transform="matrix(1.00, 0.00, -0.00, -1.00, 0.0, 71.0)"><text xml:space="preserve" font-family="BodoniSvtyTwoITCTT-Book,Bodoni SvtyTwo ITC TT" font-size="70.0" fill="#D93D2A" transform="matrix(1.00, 0.00, -0.00, -1.00, -0.0, 19.6)">P</text><text xml:space="preserve" font-family="BodoniSvtyTwoITCTT-Book,Bodoni SvtyTwo ITC TT" font-size="70.0" fill="#D93D2A" transform="matrix(1.00, 0.00, -0.00, -1.00, 35.2, 19.6)">r</text><text xml:space="preserve" font-family="BodoniSvtyTwoITCTT-Book,Bodoni SvtyTwo ITC TT" font-size="70.0" fill="#D93D2A" transform="matrix(1.00, 0.00, -0.00, -1.00, 58.9, 19.6)">o</text><text xml:space="preserve" font-family="BodoniSvtyTwoITCTT-Book,Bodoni SvtyTwo ITC TT" font-size="70.0" fill="#D93D2A" transform="matrix(1.00, 0.00, -0.00, -1.00, 92.5, 19.6)">j</text><text xml:space="preserve" font-family="BodoniSvtyTwoITCTT-Book,Bodoni SvtyTwo ITC TT" font-size="70.0" fill="#D93D2A" transform="matrix(1.00, 0.00, -0.00, -1.00, 109.1, 19.6)">e</text><text xml:space="preserve" font-family="BodoniSvtyTwoITCTT-Book,Bodoni SvtyTwo ITC TT" font-size="70.0" fill="#D93D2A" transform="matrix(1.00, 0.00, -0.00, -1.00, 139.2, 19.6)">c</text><text xml:space="preserve" font-family="BodoniSvtyTwoITCTT-Book,Bodoni SvtyTwo ITC TT" font-size="70.0" fill="#D93D2A" transform="matrix(1.00, 0.00, -0.00, -1.00, 167.8, 19.6)">t</text><text xml:space="preserve" font-family="BodoniSvtyTwoITCTT-Book,Bodoni SvtyTwo ITC TT" font-size="70.0" fill="#D93D2A" transform="matrix(1.00, 0.00, -0.00, -1.00, 187.7, 19.6)"> </text><text xml:space="preserve" font-family="BodoniSvtyTwoITCTT-Book,Bodoni SvtyTwo ITC TT" font-size="70.0" fill="#D93D2A" transform="matrix(1.00, 0.00, -0.00, -1.00, 200.7, 19.6)">f</text><text xml:space="preserve" font-family="BodoniSvtyTwoITCTT-Book,Bodoni SvtyTwo ITC TT" font-size="70.0" fill="#D93D2A" transform="matrix(1.00, 0.00, -0.00, -1.00, 219.2, 19.6)">o</text><text xml:space="preserve" font-family="BodoniSvtyTwoITCTT-Book,Bodoni SvtyTwo ITC TT" font-size="70.0" fill="#D93D2A" transform="matrix(1.00, 0.00, -0.00, -1.00, 252.8, 19.6)">r</text><text xml:space="preserve" font-family="BodoniSvtyTwoITCTT-Book,Bodoni SvtyTwo ITC TT" font-size="70.0" fill="#D93D2A" transform="matrix(1.00, 0.00, -0.00, -1.00, 276.5, 19.6)"> </text><text xml:space="preserve" font-family="BodoniSvtyTwoITCTT-Book,Bodoni SvtyTwo ITC TT" font-size="70.0" fill="#D93D2A" transform="matrix(1.00, 0.00, -0.00, -1.00, 289.5, 19.6)">C</text><text xml:space="preserve" font-family="BodoniSvtyTwoITCTT-Book,Bodoni SvtyTwo ITC TT" font-size="70.0" fill="#D93D2A" transform="matrix(1.00, 0.00, -0.00, -1.00, 335.2, 19.6)">o</text><text xml:space="preserve" font-family="BodoniSvtyTwoITCTT-Book,Bodoni SvtyTwo ITC TT" font-size="70.0" fill="#D93D2A" transform="matrix(1.00, 0.00, -0.00, -1.00, 368.8, 19.6)">o</text><text xml:space="preserve" font-family="BodoniSvtyTwoITCTT-Book,Bodoni SvtyTwo ITC TT" font-size="70.0" fill="#D93D2A" transform="matrix(1.00, 0.00, -0.00, -1.00, 402.4, 19.6)">p</text><text xml:space="preserve" font-family="BodoniSvtyTwoITCTT-Book,Bodoni SvtyTwo ITC TT" font-size="70.0" fill="#D93D2A" transform="matrix(1.00, 0.00, -0.00, -1.00, 436.6, 19.6)">e</text><text xml:space="preserve" font-family="BodoniSvtyTwoITCTT-Book,Bodoni SvtyTwo ITC TT" font-size="70.0" fill="#D93D2A" transform="matrix(1.00, 0.00, -0.00, -1.00, 466.7, 19.6)">r</text><text xml:space="preserve" font-family="BodoniSvtyTwoITCTT-Book,Bodoni SvtyTwo ITC TT" font-size="70.0" fill="#D93D2A" transform="matrix(1.00, 0.00, -0.00, -1.00, 490.4, 19.6)">a</text><text xml:space="preserve" font-family="BodoniSvtyTwoITCTT-Book,Bodoni SvtyTwo ITC TT" font-size="70.0" fill="#D93D2A" transform="matrix(1.00, 0.00, -0.00, -1.00, 518.2, 19.6)">t</text><text xml:space="preserve" font-family="BodoniSvtyTwoITCTT-Book,Bodoni SvtyTwo ITC TT" font-size="70.0" fill="#D93D2A" transform="matrix(1.00, 0.00, -0.00, -1.00, 538.1, 19.6)">i</text><text xml:space="preserve" font-family="BodoniSvtyTwoITCTT-Book,Bodoni SvtyTwo ITC TT" font-size="70.0" fill="#D93D2A" transform="matrix(1.00, 0.00, -0.00, -1.00, 555.6, 19.6)">v</text><text xml:space="preserve" font-family="BodoniSvtyTwoITCTT-Book,Bodoni SvtyTwo ITC TT" font-size="70.0" fill="#D93D2A" transform="matrix(1.00, 0.00, -0.00, -1.00, 582.5, 19.6)">e</text><text xml:space="preserve" font-family="BodoniSvtyTwoITCTT-Book,Bodoni SvtyTwo ITC TT" font-size="70.0" fill="#D93D2A" transform="matrix(1.00, 0.00, -0.00, -1.00, 612.6, 19.6)"> </text><text xml:space="preserve" font-family="BodoniSvtyTwoITCTT-Book,Bodoni SvtyTwo ITC TT" font-size="70.0" fill="#D93D2A" transform="matrix(1.00, 0.00, -0.00, -1.00, 625.6, 19.6)">C</text><text xml:space="preserve" font-family="BodoniSvtyTwoITCTT-Book,Bodoni SvtyTwo ITC TT" font-size="70.0" fill="#D93D2A" transform="matrix(1.00, 0.00, -0.00, -1.00, 671.3, 19.6)">a</text><text xml:space="preserve" font-family="BodoniSvtyTwoITCTT-Book,Bodoni SvtyTwo ITC TT" font-size="70.0" fill="#D93D2A" transform="matrix(1.00, 0.00, -0.00, -1.00, 699.1, 19.6)">t</text><text xml:space="preserve" font-family="BodoniSvtyTwoITCTT-Book,Bodoni SvtyTwo ITC TT" font-size="70.0" fill="#D93D2A" transform="matrix(1.00, 0.00, -0.00, -1.00, 719.0, 19.6)">a</text><text xml:space="preserve" font-family="BodoniSvtyTwoITCTT-Book,Bodoni SvtyTwo ITC TT" font-size="70.0" fill="#D93D2A" transform="matrix(1.00, 0.00, -0.00, -1.00, 746.8, 19.6)">l</text><text xml:space="preserve" font-family="BodoniSvtyTwoITCTT-Book,Bodoni SvtyTwo ITC TT" font-size="70.0" fill="#D93D2A" transform="matrix(1.00, 0.00, -0.00, -1.00, 763.3, 19.6)">o</text><text xml:space="preserve" font-family="BodoniSvtyTwoITCTT-Book,Bodoni SvtyTwo ITC TT" font-size="70.0" fill="#D93D2A" transform="matrix(1.00, 0.00, -0.00, -1.00, 796.9, 19.6)">g</text><text xml:space="preserve" font-family="BodoniSvtyTwoITCTT-Book,Bodoni SvtyTwo ITC TT" font-size="70.0" fill="#D93D2A" transform="matrix(1.00, 0.00, -0.00, -1.00, 829.5, 19.6)">i</text><text xml:space="preserve" font-family="BodoniSvtyTwoITCTT-Book,Bodoni SvtyTwo ITC TT" font-size="70.0" fill="#D93D2A" transform="matrix(1.00, 0.00, -0.00, -1.00, 847.1, 19.6)">n</text><text xml:space="preserve" font-family="BodoniSvtyTwoITCTT-Book,Bodoni SvtyTwo ITC TT" font-size="70.0" fill="#D93D2A" transform="matrix(1.00, 0.00, -0.00, -1.00, 881.3, 19.6)">g</text></g></svg>