<?xml version="1.0" encoding="UTF-8" standalone="no"?><svg xmlns="http://www.w3.org/2000/svg" xmlns:xlink="http://www.w3.org/1999/xlink" clip-rule="evenodd" stroke-miterlimit="10" viewBox="0 0 839 40"><desc>SVG generated by Keynote</desc><defs></defs><g transform="matrix(1.00, 0.00, -0.00, -1.00, 0.0, 40.0)"><text xml:space="preserve" font-family="ZapfDingbatsITC,Zapf Dingbats" font-size="21.6" fill="#919191" transform="matrix(1.00, 0.00, -0.00, -1.00, 0.0, 16.8)">â–</text><text xml:space="preserve" font-family="Palatino-Roman,Palatino" font-size="36.0" fill="#404040" transform="matrix(1.00, 0.00, -0.00, -1.00, 37.0, 11.0)">C</text><text xml:space="preserve" font-family="Palatino-Roman,Palatino" font-size="36.0" fill="#404040" transform="matrix(1.00, 0.00, -0.00, -1.00, 62.5, 11.0)">h</text><text xml:space="preserve" font-family="Palatino-Roman,Palatino" font-size="36.0" fill="#404040" transform="matrix(1.00, 0.00, -0.00, -1.00, 83.5, 11.0)">a</text><text xml:space="preserve" font-family="Palatino-Roman,Palatino" font-size="36.0" fill="#404040" transform="matrix(1.00, 0.00, -0.00, -1.00, 101.5, 11.0)">r</text><text xml:space="preserve" font-family="Palatino-Roman,Palatino" font-size="36.0" fill="#404040" transform="matrix(1.00, 0.00, -0.00, -1.00, 115.7, 11.0)">l</text><text xml:space="preserve" font-family="Palatino-Roman,Palatino" font-size="36.0" fill="#404040" transform="matrix(1.00, 0.00, -0.00, -1.00, 126.2, 11.0)">e</text><text xml:space="preserve" font-family="Palatino-Roman,Palatino" font-size="36.0" fill="#404040" transform="matrix(1.00, 0.00, -0.00, -1.00, 143.4, 11.0)">s</text><text xml:space="preserve" font-family="Palatino-Roman,Palatino" font-size="36.0" fill="#404040" transform="matrix(1.00, 0.00, -0.00, -1.00, 158.7, 11.0)"> </text><text xml:space="preserve" font-family="Palatino-Roman,Palatino" font-size="36.0" fill="#404040" transform="matrix(1.00, 0.00, -0.00, -1.00, 167.7, 11.0)">C</text><text xml:space="preserve" font-family="Palatino-Roman,Palatino" font-size="36.0" fill="#404040" transform="matrix(1.00, 0.00, -0.00, -1.00, 193.2, 11.0)">u</text><text xml:space="preserve" font-family="Palatino-Roman,Palatino" font-size="36.0" fill="#404040" transform="matrix(1.00, 0.00, -0.00, -1.00, 214.9, 11.0)">t</text><text xml:space="preserve" font-family="Palatino-Roman,Palatino" font-size="36.0" fill="#404040" transform="matrix(1.00, 0.00, -0.00, -1.00, 226.7, 11.0)">t</text><text xml:space="preserve" font-family="Palatino-Roman,Palatino" font-size="36.0" fill="#404040" transform="matrix(1.00, 0.00, -0.00, -1.00, 238.4, 11.0)">e</text><text xml:space="preserve" font-family="Palatino-Roman,Palatino" font-size="36.0" fill="#404040" transform="matrix(1.00, 0.00, -0.00, -1.00, 255.6, 11.0)">r</text><text xml:space="preserve" font-family="Palatino-Roman,Palatino" font-size="36.0" fill="#404040" transform="matrix(1.00, 0.00, -0.00, -1.00, 269.9, 11.0)"> </text><text xml:space="preserve" font-family="Palatino-Roman,Palatino" font-size="36.0" fill="#404040" transform="matrix(1.00, 0.00, -0.00, -1.00, 278.9, 11.0)">(</text><text xml:space="preserve" font-family="Palatino-Roman,Palatino" font-size="36.0" fill="#404040" transform="matrix(1.00, 0.00, -0.00, -1.00, 290.9, 11.0)">1</text><text xml:space="preserve" font-family="Palatino-Roman,Palatino" font-size="36.0" fill="#404040" transform="matrix(1.00, 0.00, -0.00, -1.00, 308.9, 11.0)">8</text><text xml:space="preserve" font-family="Palatino-Roman,Palatino" font-size="36.0" fill="#404040" transform="matrix(1.00, 0.00, -0.00, -1.00, 326.9, 11.0)">7</text><text xml:space="preserve" font-family="Palatino-Roman,Palatino" font-size="36.0" fill="#404040" transform="matrix(1.00, 0.00, -0.00, -1.00, 344.9, 11.0)">6</text><text xml:space="preserve" font-family="Palatino-Roman,Palatino" font-size="36.0" fill="#404040" transform="matrix(1.00, 0.00, -0.00, -1.00, 362.9, 11.0)">)</text><text xml:space="preserve" font-family="Palatino-Roman,Palatino" font-size="36.0" fill="#404040" transform="matrix(1.00, 0.00, -0.00, -1.00, 374.8, 11.0)">.</text><text xml:space="preserve" font-family="Palatino-Roman,Palatino" font-size="36.0" fill="#404040" transform="matrix(1.00, 0.00, -0.00, -1.00, 383.8, 11.0)"> </text><text xml:space="preserve" font-family="Palatino-Italic,Palatino" font-style="italic" font-size="36.0" fill="#404040" transform="matrix(1.00, 0.00, -0.00, -1.00, 392.8, 11.0)">R</text><text xml:space="preserve" font-family="Palatino-Italic,Palatino" font-style="italic" font-size="36.0" fill="#404040" transform="matrix(1.00, 0.00, -0.00, -1.00, 416.8, 11.0)">u</text><text xml:space="preserve" font-family="Palatino-Italic,Palatino" font-style="italic" font-size="36.0" fill="#404040" transform="matrix(1.00, 0.00, -0.00, -1.00, 436.9, 11.0)">l</text><text xml:space="preserve" font-family="Palatino-Italic,Palatino" font-style="italic" font-size="36.0" fill="#404040" transform="matrix(1.00, 0.00, -0.00, -1.00, 446.9, 11.0)">e</text><text xml:space="preserve" font-family="Palatino-Italic,Palatino" font-style="italic" font-size="36.0" fill="#404040" transform="matrix(1.00, 0.00, -0.00, -1.00, 460.9, 11.0)">s</text><text xml:space="preserve" font-family="Palatino-Italic,Palatino" font-style="italic" font-size="36.0" fill="#404040" transform="matrix(1.00, 0.00, -0.00, -1.00, 474.9, 11.0)"> </text><text xml:space="preserve" font-family="Palatino-Italic,Palatino" font-style="italic" font-size="36.0" fill="#404040" transform="matrix(1.00, 0.00, -0.00, -1.00, 483.9, 11.0)">f</text><text xml:space="preserve" font-family="Palatino-Italic,Palatino" font-style="italic" font-size="36.0" fill="#404040" transform="matrix(1.00, 0.00, -0.00, -1.00, 493.9, 11.0)">o</text><text xml:space="preserve" font-family="Palatino-Italic,Palatino" font-style="italic" font-size="36.0" fill="#404040" transform="matrix(1.00, 0.00, -0.00, -1.00, 509.9, 11.0)">r</text><text xml:space="preserve" font-family="Palatino-Italic,Palatino" font-style="italic" font-size="36.0" fill="#404040" transform="matrix(1.00, 0.00, -0.00, -1.00, 523.9, 11.0)"> </text><text xml:space="preserve" font-family="Palatino-Italic,Palatino" font-style="italic" font-size="36.0" fill="#404040" transform="matrix(1.00, 0.00, -0.00, -1.00, 532.9, 11.0)">a</text><text xml:space="preserve" font-family="Palatino-Italic,Palatino" font-style="italic" font-size="36.0" fill="#404040" transform="matrix(1.00, 0.00, -0.00, -1.00, 548.9, 11.0)"> </text><text xml:space="preserve" font-family="Palatino-Italic,Palatino" font-style="italic" font-size="36.0" fill="#404040" transform="matrix(1.00, 0.00, -0.00, -1.00, 557.9, 11.0)">D</text><text xml:space="preserve" font-family="Palatino-Italic,Palatino" font-style="italic" font-size="36.0" fill="#404040" transform="matrix(1.00, 0.00, -0.00, -1.00, 585.9, 11.0)">i</text><text xml:space="preserve" font-family="Palatino-Italic,Palatino" font-style="italic" font-size="36.0" fill="#404040" transform="matrix(1.00, 0.00, -0.00, -1.00, 595.8, 11.0)">c</text><text xml:space="preserve" font-family="Palatino-Italic,Palatino" font-style="italic" font-size="36.0" fill="#404040" transform="matrix(1.00, 0.00, -0.00, -1.00, 610.5, 11.0)">t</text><text xml:space="preserve" font-family="Palatino-Italic,Palatino" font-style="italic" font-size="36.0" fill="#404040" transform="matrix(1.00, 0.00, -0.00, -1.00, 622.5, 11.0)">i</text><text xml:space="preserve" font-family="Palatino-Italic,Palatino" font-style="italic" font-size="36.0" fill="#404040" transform="matrix(1.00, 0.00, -0.00, -1.00, 632.5, 11.0)">o</text><text xml:space="preserve" font-family="Palatino-Italic,Palatino" font-style="italic" font-size="36.0" fill="#404040" transform="matrix(1.00, 0.00, -0.00, -1.00, 648.5, 11.0)">n</text><text xml:space="preserve" font-family="Palatino-Italic,Palatino" font-style="italic" font-size="36.0" fill="#404040" transform="matrix(1.00, 0.00, -0.00, -1.00, 668.5, 11.0)">a</text><text xml:space="preserve" font-family="Palatino-Italic,Palatino" font-style="italic" font-size="36.0" fill="#404040" transform="matrix(1.00, 0.00, -0.00, -1.00, 684.5, 11.0)">r</text><text xml:space="preserve" font-family="Palatino-Italic,Palatino" font-style="italic" font-size="36.0" fill="#404040" transform="matrix(1.00, 0.00, -0.00, -1.00, 698.5, 11.0)">y</text><text xml:space="preserve" font-family="Palatino-Italic,Palatino" font-style="italic" font-size="36.0" fill="#404040" transform="matrix(1.00, 0.00, -0.00, -1.00, 716.5, 11.0)"> </text><text xml:space="preserve" font-family="Palatino-Italic,Palatino" font-style="italic" font-size="36.0" fill="#404040" transform="matrix(1.00, 0.00, -0.00, -1.00, 725.5, 11.0)">C</text><text xml:space="preserve" font-family="Palatino-Italic,Palatino" font-style="italic" font-size="36.0" fill="#404040" transform="matrix(1.00, 0.00, -0.00, -1.00, 749.5, 11.0)">a</text><text xml:space="preserve" font-family="Palatino-Italic,Palatino" font-style="italic" font-size="36.0" fill="#404040" transform="matrix(1.00, 0.00, -0.00, -1.00, 765.5, 11.0)">t</text><text xml:space="preserve" font-family="Palatino-Italic,Palatino" font-style="italic" font-size="36.0" fill="#404040" transform="matrix(1.00, 0.00, -0.00, -1.00, 777.5, 11.0)">a</text><text xml:space="preserve" font-family="Palatino-Italic,Palatino" font-style="italic" font-size="36.0" fill="#404040" transform="matrix(1.00, 0.00, -0.00, -1.00, 793.4, 11.0)">l</text><text xml:space="preserve" font-family="Palatino-Italic,Palatino" font-style="italic" font-size="36.0" fill="#404040" transform="matrix(1.00, 0.00, -0.00, -1.00, 803.4, 11.0)">o</text><text xml:space="preserve" font-family="Palatino-Italic,Palatino" font-style="italic" font-size="36.0" fill="#404040" transform="matrix(1.00, 0.00, -0.00, -1.00, 819.4, 11.0)">g</text></g></svg>